<?xml version="1.0" encoding="UTF-8"?>
<svg width="16px" height="16px" viewBox="0 0 16 16" version="1.1" xmlns="http://www.w3.org/2000/svg" xmlns:xlink="http://www.w3.org/1999/xlink">
    <!-- Generator: Sketch 50.2 (55047) - http://www.bohemiancoding.com/sketch -->
    <title>business catalog icon on</title>
    <desc>Created with Sketch.</desc>
    <defs></defs>
    <g id="business-catalog-icon-on" stroke="none" stroke-width="1" fill="#9B9B9B" fill-rule="evenodd">
        <g id="Group" fill="#9B9B9B">
            <polygon id="Fill-1" points="14.563102 8.65306122 15.9017469 7.51020408 14.563102 6.36734694 14.563102 7.00382041 13.5344 7.00382041 13.5344 8.01657143 14.563102 8.01657143"></polygon>
            <polygon id="Fill-2" points="1.35523265 6.36734694 0.0165879184 7.51020408 1.35523265 8.65306122 1.35523265 8.01658776 2.38393469 8.01658776 2.38393469 7.00383673 1.35523265 7.00383673"></polygon>
            <polygon id="Fill-3" points="4.01665306 2.5797551 2.26922449 2.43243429 2.41654531 4.17986286 2.85723102 3.73854041 3.5919249 4.47323429 4.31003102 3.75512816 3.57533714 3.02043429"></polygon>
            <polygon id="Fill-4" points="11.9017143 2.5797551 13.6651429 2.43243429 13.5184588 4.17986286 13.0777731 3.73854041 12.3430792 4.47323429 11.6243363 3.75512816 12.3590302 3.02043429"></polygon>
            <path d="M8.26155102,7.28195918 L8.26155102,5.66589388 C8.91461224,5.87826939 8.9962449,6.69459592 9.01283265,6.72711837 L9.02941388,6.87380245 L9.76410776,6.80875102 L9.74752653,6.66206694 C9.69841959,6.12316082 9.32277551,5.09445878 8.26155102,4.91529143 L8.26155102,4.2622302 L7.52685714,4.2622302 L7.52685714,4.93187918 C7.06958367,5.03009306 6.66142041,5.24182204 6.40058776,5.5358302 C6.10657959,5.86236082 5.99242449,6.28711184 6.05746939,6.74373224 C6.17162776,7.57664653 7.03706122,7.85406694 7.52685714,7.95163429 L7.52685714,9.22523429 C6.80875102,8.98033633 6.79216327,8.39232 6.79216327,8.37638531 L6.79216327,8.22970122 L6.05746939,8.21312 L6.05746939,8.35980408 C6.05746939,8.37638531 6.05746939,9.66592653 7.52685714,9.99245714 L7.52685714,10.7762612 L8.26155102,10.7762612 L8.26155102,10.0415673 C8.50644898,10.0090416 8.91461224,9.92740898 9.24114286,9.63340408 C9.56767347,9.33939592 9.74752653,8.8987102 9.74752653,8.39232653 C9.7468898,7.59195102 8.79982041,7.34705306 8.26155102,7.28199184 L8.26155102,7.28195918 Z M9.01219592,8.37570612 C9.01219592,8.68564898 8.93056327,8.91461224 8.7507102,9.0612898 C8.63655184,9.17544816 8.45670204,9.24114286 8.27750204,9.27366531 L8.27750204,8.01665306 C8.68566531,8.09828571 9.01219592,8.24496327 9.01219592,8.37570612 Z M6.79211429,6.64476735 C6.75958857,6.38328163 6.80869551,6.18749388 6.95537959,6.02422857 C7.1186449,5.84437551 7.3469551,5.74680816 7.52680816,5.69769796 L7.52680816,7.18367347 C7.21622857,7.11862204 6.84058776,6.95536327 6.79211429,6.64476735 Z" id="Fill-5"></path>
            <polygon id="Fill-6" points="9.04457143 1.3877551 7.90171429 0.0491102041 6.75885714 1.3877551 7.39596735 1.3877551 7.39596735 2.43239184 8.40808163 2.43239184 8.40808163 1.3877551"></polygon>
            <polygon id="Fill-7" points="11.8367347 12.4406531 13.6001633 12.5879739 13.4528424 10.8405453 13.0121567 11.2818678 12.2774629 10.5471739 11.5593567 11.26528 12.2940506 11.9999739"></polygon>
            <polygon id="Fill-8" points="3.95085714 12.4406531 2.20408163 12.5879739 2.33482122 10.8405453 2.79209469 11.2818678 3.52678857 10.5471739 4.24489469 11.26528 3.51020082 11.9999739"></polygon>
            <polygon id="Fill-9" points="6.82465306 13.6326531 7.9675102 14.971298 9.11036735 13.6326531 8.47325714 13.6326531 8.47325714 12.5880163 7.46114286 12.5880163 7.46114286 13.6326531"></polygon>
        </g>
    </g>
</svg>