<?xml version="1.0" encoding="UTF-8"?>
<svg width="16px" height="8px" viewBox="0 0 16 8" version="1.1" xmlns="http://www.w3.org/2000/svg" xmlns:xlink="http://www.w3.org/1999/xlink">
    <!-- Generator: Sketch 49.3 (51167) - http://www.bohemiancoding.com/sketch -->
    <title>arrow up tooltip</title>
    <desc>Created with Sketch.</desc>
    <defs></defs>
    <g id="Page-1" stroke="none" stroke-width="1" fill="none" fill-rule="evenodd">
        <g id="icons" transform="translate(-160.000000, -213.000000)">
            <g id="arrow-up-tooltip" transform="translate(160.000000, 209.000000)">
                <g id="Icon-Caret-Down-Copy">
                    <rect id="16X16" x="0" y="0" width="16" height="16"></rect>
                    <g id="Shape-Caret-Down" transform="translate(8.000000, 8.000000) rotate(-180.000000) translate(-8.000000, -8.000000) translate(0.000000, 4.000000)" fill="#089AA6">
                        <path d="M15.8537454,0.144988685 C15.6627395,-0.0461210734 15.3577299,-0.047121648 15.1617238,0.134982939 L15.1597237,0.13298179 L7.99949998,6.81882162 L0.84127629,0.13298179 L0.838276196,0.134982939 C0.642270071,-0.047121648 0.337260539,-0.0461210734 0.14625457,0.144988685 C-0.0487515235,0.340100743 -0.0487515235,0.657282908 0.14625457,0.852394965 C0.150254695,0.856397264 0.156254883,0.858398413 0.160255008,0.862400712 L0.158254945,0.864401861 L7.65848933,7.86842443 L7.66048939,7.86642328 C7.85249539,8.04452557 8.14750461,8.04452557 8.33951061,7.86642328 L8.34151067,7.86842443 L15.840745,0.864401861 L15.838745,0.862400712 C15.8437451,0.858398413 15.8497453,0.856397264 15.8537454,0.852394965 C16.0487515,0.657282908 16.0487515,0.340100743 15.8537454,0.144988685" id="Page-1"></path>
                    </g>
                </g>
            </g>
        </g>
    </g>
</svg>