<?xml version="1.0" encoding="UTF-8"?>
<svg width="32px" height="32px" viewBox="0 0 32 32" version="1.1" xmlns="http://www.w3.org/2000/svg" xmlns:xlink="http://www.w3.org/1999/xlink">
    <!-- Generator: Sketch 52.4 (67378) - http://www.bohemiancoding.com/sketch -->
    <title>Group 42</title>
    <desc>Created with Sketch.</desc>
    <defs>
        <rect id="path-1" x="0" y="0" width="16" height="16"></rect>
    </defs>
    <g id="Page-1" stroke="none" stroke-width="1" fill="none" fill-rule="evenodd">
        <g id="Buttons" transform="translate(-1009.000000, -836.000000)">
            <g id="Group-42" transform="translate(1009.000000, 836.000000)">
                <rect id="Rectangle-7" stroke="none" fill="none" fill-rule="nonzero" x="0.5" y="0.5" width="31" height="31" rx="3"></rect>
                <g id="Icon/-🤖Operation/🔸s-16px/--Cards" transform="translate(8.000000, 8.000000)">
                    <mask id="mask-2" fill="white">
                        <use xlink:href="#path-1"></use>
                    </mask>
                    <g id="Mask" fill-rule="nonzero"></g>
                    <path d="M14.8757009,5.32608696 C14.9443925,5.40434783 14.9836449,5.50869565 14.9771028,5.61304348 L14.9771028,13.5695652 C14.9771028,13.6804348 14.9378505,13.7815217 14.8691589,13.8597826 C14.7971963,13.9380435 14.6990654,13.9836957 14.5943925,13.9836957 L3.69205607,13.9836957 C3.59065421,13.9836957 3.48925234,13.9380435 3.41728972,13.8597826 C3.34859813,13.7815217 3.30934579,13.6771739 3.30934579,13.5695652 L3.30934579,10.8043478 L1.39906542,10.8043478 C1.29766355,10.8043478 1.19626168,10.7586957 1.12429907,10.6804348 C1.05560748,10.6021739 1.01635514,10.4978261 1.01635514,10.3902174 L1.01635514,2.43369565 C1.01635514,2.20543478 1.1864486,2.01956522 1.39906542,2.01956522 L12.3079439,2.01956522 C12.4093458,2.01956522 12.5107477,2.06521739 12.5827103,2.14347826 C12.6514019,2.22173913 12.6906542,2.32608696 12.6906542,2.43369565 L12.6906542,5.19891304 L14.6009346,5.19891304 C14.7023364,5.19891304 14.8037383,5.24456522 14.8757009,5.32608696 Z M14.2149533,6.03043478 L12.6873832,6.03043478 L12.6873832,10.3902174 C12.6873832,10.501087 12.6481308,10.6021739 12.5794393,10.6804348 C12.5074766,10.7586957 12.4093458,10.8043478 12.3046729,10.8043478 L4.08130841,10.8043478 L4.08130841,13.1554348 L14.2149533,13.1554348 L14.2149533,6.03043478 Z M11.9186916,2.85108696 L1.78504673,2.85108696 L1.78504673,9.97608696 L11.9186916,9.97608696 L11.9186916,2.85108696 Z M3.98317757,6.03043478 C3.77056075,6.03043478 3.59719626,5.84456522 3.60046729,5.61304348 C3.60046729,5.38478261 3.77056075,5.19891304 3.98317757,5.19891304 L9.72056075,5.19891304 C9.82196262,5.19891304 9.92336449,5.24456522 9.9953271,5.32608696 C10.0640187,5.40434783 10.103271,5.50869565 10.103271,5.61630435 C10.103271,5.72717391 10.0640187,5.82826087 9.9953271,5.90652174 C9.92336449,5.98478261 9.82523364,6.03043478 9.72056075,6.03043478 L3.98317757,6.03043478 Z M3.98317757,7.94130435 C3.77056075,7.94130435 3.59719626,7.75543478 3.60046729,7.52391304 C3.60046729,7.29565217 3.77056075,7.10978261 3.98317757,7.10978261 L9.72056075,7.10978261 C9.82196262,7.10978261 9.92336449,7.15543478 9.9953271,7.23695652 C10.0640187,7.31521739 10.103271,7.41956522 10.103271,7.52717391 C10.103271,7.63804348 10.0640187,7.73913043 9.9953271,7.8173913 C9.92336449,7.89565217 9.82523364,7.94130435 9.72056075,7.94130435 L3.98317757,7.94130435 Z" id="Combined-Shape" fill="#9B9B9B" fill-rule="evenodd" mask="url(#mask-2)"></path>
                </g>
            </g>
        </g>
    </g>
</svg>