<?xml version="1.0" encoding="UTF-8"?>
<svg width="16px" height="16px" viewBox="0 0 16 16" version="1.1" xmlns="http://www.w3.org/2000/svg" xmlns:xlink="http://www.w3.org/1999/xlink">
    <!-- Generator: Sketch 49.3 (51167) - http://www.bohemiancoding.com/sketch -->
    <title>shopping icon</title>
    <desc>Created with Sketch.</desc>
    <defs></defs>
    <g id="Page-1" stroke="none" stroke-width="1" fill="none" fill-rule="evenodd">
        <g id="icons" transform="translate(-160.000000, -832.000000)" fill="#9B9B9B">
            <g id="determined-face-2" transform="translate(160.000000, 832.000000)">
                <g id="Page-1">
                    <path d="M8,12.66688 C6.404368,12.66688 4.93632,11.861248 4.0712,10.51376 C3.9718256,10.3593856 4.0168256,10.152512 4.1718256,10.053136 C4.325576,9.953136 4.5330736,9.9987616 4.6324496,10.1537616 C5.3743216,11.3093936 6.6330896,12.0000016 7.9999696,12.0000016 C9.3668496,12.0000016 10.6255696,11.3093776 11.3674896,10.1531216 C11.466864,9.9987472 11.6731216,9.9524976 11.8281136,10.052496 C11.982488,10.1518704 12.0281136,10.358128 11.9287392,10.51312 C11.0637472,11.861248 9.5956192,12.66688 7.9999392,12.66688 L8,12.66688 Z" id="Fill-1"></path>
                    <path d="M6.66432,6.01312 C6.480576,6.01312 6.333072,5.850624 6.333072,5.666864 C6.333072,5.133744 7.111824,4.666864 7.999952,4.666864 C8.88808,4.666864 9.666832,5.134368 9.666832,5.666864 C9.666832,5.850608 9.5174576,5.999984 9.333088,5.999984 C9.155584,5.999984 9.010592,5.8612336 9.000592,5.68624 C8.9437168,5.5756144 8.553712,5.33312 7.999968,5.33312 C7.433712,5.33312 7.039968,5.584992 6.996224,5.69312 C6.996224,5.877488 6.8487248,6.01312 6.664352,6.01312 L6.66432,6.01312 Z" id="Fill-2"></path>
                    <path d="M8.0168,4.33312 L1.64864,4.01624 C1.52801456,4.0099904 1.42051216,3.9393648 1.36676816,3.831248 C1.31301776,3.7231232 1.32176816,3.595616 1.38989296,3.495616 C2.8836368,1.306816 5.3554928,-6.4e-05 7.9998128,-6.4e-05 C10.6441328,-6.4e-05 13.1161328,1.306816 14.6097328,3.495616 C14.6778576,3.5949904 14.686608,3.723744 14.6328576,3.831872 C14.5791072,3.9399968 14.4716096,4.010624 14.3509856,4.01624 L8.0168,4.33312 Z M2.3056,3.381248 L8.0168,3.66688 L13.69488,3.381248 C12.306752,1.671168 10.21984,0.666848 7.99984,0.666848 C5.7798384,0.666848 3.69296,1.671216 2.30544,3.381248 L2.3056,3.381248 Z" id="Fill-3"></path>
                    <path d="M8,16 C3.5888,16 0,12.4112 0,8 C0,7.423744 0.0675008,6.831872 0.2,6.24128 C0.2318752,6.0987808 0.3531248,5.993152 0.499376,5.981904 C0.6500016,5.971904 0.781248,6.0550288 0.835632,6.19128 C1.19064,7.087536 2.040624,7.666912 2.999952,7.666912 C5.021872,7.666912 6.666832,6.021952 6.666832,4.000032 C6.666832,3.816288 6.8162064,3.666912 6.999952,3.666912 L8.999952,3.666912 C9.183696,3.666912 9.333072,3.8162864 9.333072,4.000032 C9.333072,6.021952 10.977392,7.666912 12.999952,7.666912 C13.959328,7.666912 14.809392,7.087536 15.164272,6.19128 C15.2180224,6.0550304 15.346144,5.970656 15.500528,5.981904 C15.6467776,5.9931536 15.768032,6.0987792 15.799904,6.24128 C15.9324032,6.831904 15.999904,7.423776 15.999904,8 C15.999904,12.4112 12.411104,16 7.999904,16 L8,16 Z M0.70624016,7.26368 C0.67999056,7.511184 0.66686576,7.757424 0.66686576,7.999936 C0.66686576,12.043136 3.9567856,15.333056 7.9999856,15.333056 C12.0431856,15.333056 15.3331056,12.043136 15.3331056,7.999936 C15.3331056,7.75744 15.3199808,7.511184 15.2937312,7.26368 C14.7362272,7.931808 13.9062272,8.333056 12.9999712,8.333056 C10.7225312,8.333056 8.8498912,6.567456 8.6793312,4.333056 L7.3205792,4.333056 C7.1499552,6.567456 5.2773792,8.333056 2.9999392,8.333056 C2.0936832,8.333056 1.26361968,7.931808 0.70617968,7.26368 L0.70624016,7.26368 Z" id="Fill-4"></path>
                    <path d="M3,8.33312 C1.34624,8.33312 0,6.987488 0,5.33312 L0,4.666864 C0,4.118736 0.785632,3.333744 1.33312,3.333744 L8.01632,3.666864 C8.200064,3.6762384 8.341952,3.83312 8.3332,4.01624 C8.3238256,4.199984 8.161952,4.345616 7.983824,4.33312 L7.3232,4.2999952 C7.1688256,6.5499152 5.2888,8.3331152 3,8.3331152 L3,8.33312 Z M1.3168,4 C1.14368,4.0037504 0.67054384,4.477504 0.6668,4.66688 L0.6668,5.33376 C0.6668,6.62064 1.71368,7.66688 2.99992,7.66688 C4.93176,7.66688 6.51992,6.165008 6.65736,4.26688 L1.3168,4 Z" id="Fill-5"></path>
                    <path d="M13,8.33312 C10.7112,8.33312 8.8312,6.54992 8.67744,4.3 L8.016816,4.3331248 C7.82744,4.3443744 7.676192,4.2006256 7.66744,4.0162448 C7.6586896,3.8325008 7.7999392,3.6762448 7.98432,3.6668688 L14.6512,3.3337488 C15.215568,3.3331232 15.999952,4.1187408 15.999952,4.6668688 L15.999952,5.3337488 C15.999952,6.9875088 14.653696,8.3331088 12.999952,8.3331088 L13,8.33312 Z M9.34256,4.26688 C9.4800608,6.16496 11.06688,7.66688 13,7.66688 C14.28688,7.66688 15.33312,6.62 15.33312,5.33376 L15.33312,4.66688 C15.3293696,4.477504 14.855616,4.004384 14.66624,4 L9.34256,4.26688 Z" id="Fill-6"></path>
                </g>
            </g>
        </g>
    </g>
</svg>