<?xml version="1.0" encoding="UTF-8"?>
<svg width="20px" height="20px" viewBox="0 0 20 16" version="1.1" xmlns="http://www.w3.org/2000/svg" xmlns:xlink="http://www.w3.org/1999/xlink">
    <!-- Generator: Sketch 49.3 (51167) - http://www.bohemiancoding.com/sketch -->
    <title>create campaign icon</title>
    <desc>Created with Sketch.</desc>
    <defs></defs>
    <g id="Page-1" stroke="none" stroke-width="1" fill="none" fill-rule="evenodd">
        <g id="icons" transform="translate(-160.000000, -539.000000)" fill="#9B9B9B">
            <g id="create-campaign-icon" transform="translate(160.000000, 539.000000)">
                <g id="megaphone">
                    <g id="Group" transform="translate(0.000000, 0.026449)">
                        <g id="Shape">
                            <g>
                                <path d="M16.6528067,5.05960303 L16.6528067,5.05960303 C16.7318087,5.05960303 16.8066528,5.03067495 16.8648649,4.9728188 L19.6382536,2.38168977 C19.7629938,2.26597747 19.7671518,2.06761352 19.6507277,1.94363605 C19.5343035,1.81965859 19.3347193,1.81552601 19.2099792,1.93123831 L16.4365904,4.52236734 C16.3118503,4.63807964 16.3076923,4.83644359 16.4241164,4.96042105 C16.4864865,5.02654237 16.5696466,5.05960303 16.6528067,5.05960303 Z"></path>
                                <path d="M16.8690229,10.3534408 C16.7442827,10.2335959 16.5446985,10.2418611 16.4282744,10.3658386 C16.3076923,10.489816 16.3160083,10.68818 16.4407484,10.8038923 L19.2141372,13.3950213 C19.2723493,13.4487449 19.3513514,13.4776729 19.4261954,13.4776729 C19.5093555,13.4776729 19.5925156,13.4446123 19.6548857,13.3826236 C19.7754678,13.2586461 19.7671518,13.0602821 19.6424116,12.9445698 L16.8690229,10.3534408 Z"></path>
                                <path d="M19.6507277,7.35318614 L16.6528067,7.35318614 C16.4823285,7.35318614 16.3409563,7.49369393 16.3409563,7.6631298 C16.3409563,7.83256567 16.4823285,7.97307347 16.6528067,7.97307347 L19.6507277,7.97307347 C19.8212058,7.97307347 19.962578,7.83256567 19.962578,7.6631298 C19.962578,7.49369393 19.8212058,7.35318614 19.6507277,7.35318614 Z"></path>
                                <path d="M15.039501,0.0426482482 C14.9272349,-0.00694273808 14.7941788,0.0137201729 14.7027027,0.0963718166 L12.6278586,1.98909446 L0.224532225,5.62989937 C0.0914760915,5.66709261 0,5.79107007 0,5.92744528 L0,9.39468174 C0,9.53105695 0.0914760915,9.65503442 0.224532225,9.69222766 L3.97920998,10.7956271 C3.80873181,11.5766851 3.92931393,12.3784061 4.32432432,13.0685473 C4.74012474,13.8000144 5.41372141,14.3248523 6.22453222,14.5521443 C6.51559252,14.6306634 6.80665281,14.6719892 7.08939709,14.6719892 C8.3991684,14.6719892 9.60914761,13.8661357 10.0956341,12.5891678 L12.6278586,13.3330326 L14.7027027,15.2257552 C14.7609148,15.2794788 14.8357588,15.3084069 14.9147609,15.3084069 C14.956341,15.3084069 14.997921,15.3001417 15.039501,15.2836114 C15.1517672,15.2340204 15.2266112,15.1224407 15.2266112,14.9984632 L15.2266112,0.327796419 C15.2266112,0.203818954 15.1517672,0.0922392344 15.039501,0.0426482482 Z M6.3950104,13.9570525 C5.09355509,13.5933852 4.32016632,12.299887 4.58212058,10.9733281 L9.4968815,12.4155993 C9.00623701,13.6388436 7.67983368,14.3124545 6.3950104,13.9570525 Z M12.5738046,12.6718194 L0.627858628,9.16325714 L0.627858628,6.16300247 L12.5738046,2.65857277 L12.5738046,12.6718194 Z M14.6029106,14.2917916 L13.1975052,13.0065586 L13.1975052,2.31970103 L14.6029106,1.03446797 L14.6029106,14.2917916 Z"></path>
                            </g>
                        </g>
                    </g>
                </g>
            </g>
        </g>
    </g>
</svg>