<?xml version="1.0" encoding="UTF-8"?>
<svg width="16px" height="16px" viewBox="0 0 16 16" version="1.1" xmlns="http://www.w3.org/2000/svg" xmlns:xlink="http://www.w3.org/1999/xlink">
    <!-- Generator: Sketch 50.2 (55047) - http://www.bohemiancoding.com/sketch -->
    <title>Create campaign icon</title>
    <desc>Created with Sketch.</desc>
    <defs></defs>
    <g id="Create-campaign-icon" stroke="none" stroke-width="1" fill="none" fill-rule="evenodd">
        <g id="Icon-Circle-Cross">
            <rect id="16X16" x="0" y="0" width="16" height="16"></rect>
        </g>
        <g id="Group" transform="translate(0.000000, 2.000000)" fill="#26C580">
            <path d="M13.3222453,4.04768242 L13.3222453,4.04768242 C13.385447,4.04768242 13.4453222,4.02453996 13.4918919,3.97825504 L15.7106029,1.90535181 C15.810395,1.81278197 15.8137214,1.65409082 15.7205821,1.55490884 C15.6274428,1.45572687 15.4677755,1.45242081 15.3679834,1.54499065 L13.1492723,3.61789387 C13.0494802,3.71046371 13.0461538,3.86915487 13.1392931,3.96833684 C13.1891892,4.02123389 13.2557173,4.04768242 13.3222453,4.04768242 Z" id="Shape"></path>
            <path d="M13.4952183,8.28275265 C13.3954262,8.18687674 13.2357588,8.19348887 13.1426195,8.29267084 C13.0461538,8.39185282 13.0528067,8.55054397 13.1525988,8.64311381 L15.3713098,10.716017 C15.4178794,10.7589959 15.4810811,10.7821384 15.5409563,10.7821384 C15.6074844,10.7821384 15.6740125,10.7556898 15.7239085,10.7060988 C15.8203742,10.6069169 15.8137214,10.4482257 15.7139293,10.3556559 L13.4952183,8.28275265 Z" id="Shape"></path>
            <path d="M15.7205821,5.88254891 L13.3222453,5.88254891 C13.1858628,5.88254891 13.0727651,5.99495515 13.0727651,6.13050384 C13.0727651,6.26605254 13.1858628,6.37845877 13.3222453,6.37845877 L15.7205821,6.37845877 C15.8569647,6.37845877 15.9700624,6.26605254 15.9700624,6.13050384 C15.9700624,5.99495515 15.8569647,5.88254891 15.7205821,5.88254891 Z" id="Shape"></path>
            <path d="M12.0316008,0.0341185985 C11.9417879,-0.00555419046 11.835343,0.0109761383 11.7621622,0.0770974533 L10.1022869,1.59127557 L0.17962578,4.50391949 C0.0731808732,4.53367409 0,4.63285606 0,4.74195623 L0,7.51574539 C0,7.62484556 0.0731808732,7.72402754 0.17962578,7.75378213 L3.18336798,8.63650168 C3.04698545,9.26134811 3.14345114,9.90272486 3.45945946,10.4548378 C3.79209979,11.0400115 4.33097713,11.4598818 4.97962578,11.6417154 C5.21247401,11.7045307 5.44532225,11.7375914 5.67151767,11.7375914 C6.71933472,11.7375914 7.68731809,11.0929085 8.07650728,10.0713342 L10.1022869,10.6664261 L11.7621622,12.1806042 C11.8087318,12.223583 11.8686071,12.2467255 11.9318087,12.2467255 C11.9650728,12.2467255 11.9983368,12.2401134 12.0316008,12.2268891 C12.1214137,12.1872163 12.181289,12.0979525 12.181289,11.9987706 L12.181289,0.262237135 C12.181289,0.163055163 12.1214137,0.0737913876 12.0316008,0.0341185985 Z M5.11600832,11.165642 C4.07484407,10.8747082 3.45613306,9.83990962 3.66569647,8.77866251 L7.5975052,9.93247946 C7.2049896,10.9110749 6.14386694,11.4499636 5.11600832,11.165642 Z M10.0590437,10.1374555 L0.502286902,7.33060571 L0.502286902,4.93040198 L10.0590437,2.12685822 L10.0590437,10.1374555 Z M11.6823285,11.4334333 L10.5580042,10.4052469 L10.5580042,1.85576083 L11.6823285,0.827574379 L11.6823285,11.4334333 Z" id="Shape"></path>
        </g>
    </g>
</svg>