<?xml version="1.0" encoding="UTF-8"?>
<svg width="16px" height="16px" viewBox="0 0 16 16" version="1.1" xmlns="http://www.w3.org/2000/svg" xmlns:xlink="http://www.w3.org/1999/xlink">
    <!-- Generator: Sketch 50.2 (55047) - http://www.bohemiancoding.com/sketch -->
    <title>delete icon verde</title>
    <desc>Created with Sketch.</desc>
    <defs>
        <polygon id="path-1" points="16 7.99995 16 0 0 0 0 7.99995 0 15.9999 16 15.9999"></polygon>
    </defs>
    <g id="delete-icon-verde" stroke="none" stroke-width="1" fill="none" fill-rule="evenodd">
        <g id="Icon-Delete">
            <rect id="16X16" x="0" y="0" width="16" height="16"></rect>
            <g id="Shape-Delete">
                <g id="Group-3">
                    <mask id="mask-2" fill="white">
                        <use xlink:href="#path-1"></use>
                    </mask>
                    <g id="Clip-2"></g>
                    <path d="M13,14.4629 C13,14.7589 12.773,14.9999 12.494,14.9999 L3.506,14.9999 C3.227,14.9999 3,14.7589 3,14.4629 L3,2.9999 L13,2.9999 L13,14.4629 Z M4.809,0.9999 L11.191,0.9999 L11.691,1.9999 L4.309,1.9999 L4.809,0.9999 Z M12.809,1.9999 L11.947,0.2759 C11.86,0.1149 11.695,-0.0001 11.5,-0.0001 L4.5,-0.0001 C4.305,-0.0001 4.14,0.1149 4.057,0.2789 L3.191,1.9999 L0.5,1.9999 C0.224,1.9999 0,2.2239 0,2.4999 C0,2.7759 0.224,2.9999 0.5,2.9999 L2,2.9999 L2,14.4629 C2,15.3109 2.675,15.9999 3.506,15.9999 L12.494,15.9999 C13.324,15.9999 14,15.3109 14,14.4629 L14,2.9999 L15.5,2.9999 C15.776,2.9999 16,2.7759 16,2.4999 C16,2.2239 15.776,1.9999 15.5,1.9999 L12.809,1.9999 Z" id="Fill-1" fill="#26C580" mask="url(#mask-2)"></path>
                </g>
                <path d="M8,5 C7.724,5 7.5,5.224 7.5,5.5 L7.5,12.5 C7.5,12.776 7.724,13 8,13 C8.276,13 8.5,12.776 8.5,12.5 L8.5,5.5 C8.5,5.224 8.276,5 8,5" id="Fill-4" fill="#26C580"></path>
                <path d="M5.5,5 C5.224,5 5,5.224 5,5.5 L5,12.5 C5,12.776 5.224,13 5.5,13 C5.776,13 6,12.776 6,12.5 L6,5.5 C6,5.224 5.776,5 5.5,5" id="Fill-6" fill="#26C580"></path>
                <path d="M10.5,5 C10.224,5 10,5.224 10,5.5 L10,12.5 C10,12.776 10.224,13 10.5,13 C10.776,13 11,12.776 11,12.5 L11,5.5 C11,5.224 10.776,5 10.5,5" id="Fill-8" fill="#26C580"></path>
            </g>
        </g>
    </g>
</svg>