<?xml version="1.0" encoding="UTF-8"?>
<svg width="8px" height="16px" viewBox="0 0 8 16" version="1.1" xmlns="http://www.w3.org/2000/svg" xmlns:xlink="http://www.w3.org/1999/xlink">
    <!-- Generator: Sketch 49.3 (51167) - http://www.bohemiancoding.com/sketch -->
    <title>shopping icon</title>
    <desc>Created with Sketch.</desc>
    <defs></defs>
    <g id="Page-1" stroke="none" stroke-width="1" fill="none" fill-rule="evenodd">
        <g id="Iconografía-Copy-3" transform="translate(-132.000000, -219.000000)">
            <g id="shopping-icon" transform="translate(128.000000, 219.000000)">
                <g id="Group-33">
                    <path d="M11.9844325,0.77297618 C11.9657119,0.652067772 11.8877085,0.551165253 11.7800737,0.508643131 C11.1256423,0.253489054 10.2605819,0 9.33232092,0 C8.60456478,0 7.8331173,0.158431192 7.11540536,0.605363881 C6.754253,0.829672342 6.4695405,1.1131745 6.25348009,1.43253869 C5.92743256,1.91200123 5.75348596,2.46399899 5.65597921,3.02434322 C5.57719704,3.4771227 5.54755563,3.93908115 5.53117538,4.38684421 C5.34396962,4.39184782 5.13258186,4.39268033 4.9391459,4.39268033 C4.77066071,4.39268033 4.61621347,4.39184782 4.50389001,4.39018066 C4.44772828,4.38934602 4.40248739,4.38934602 4.37128643,4.38851137 C4.34008547,4.38767886 4.32292444,4.38767886 4.32292444,4.38767886 C4.23790208,4.38600957 4.15522003,4.42186733 4.09438365,4.48607317 C4.03432205,4.55027901 4,4.63866611 4,4.72955074 L4.01248038,6.98352205 C4.01404193,7.17280526 4.15678557,7.33791575 4.33151894,7.33791575 L4.55305074,7.33791575 C4.86350279,7.33791575 5.44305188,7.32373958 5.88845183,7.33291215 C5.95397284,8.88136204 5.96957432,11.2019556 5.96957432,13.0023149 C5.96957432,13.7611171 5.96645522,14.4231771 5.9641149,14.8993096 C5.96255535,15.1369596 5.96099381,15.325406 5.96021503,15.4571563 C5.95943426,15.5880698 5.95865548,15.6581139 5.95865548,15.6581139 C5.95787471,15.7490028 5.99063722,15.8357227 6.05147759,15.9007589 C6.11153919,15.9649648 6.19344246,16.0008204 6.27846083,15.9999857 L9.10062509,15.9849771 C9.18564746,15.9841424 9.26521041,15.9482889 9.32449323,15.8832484 C9.38455483,15.8190426 9.41653656,15.7331573 9.41575579,15.6414359 C9.41575579,15.6414359 9.40093508,13.7861308 9.38377405,11.7849868 C9.36895335,10.0639296 9.35257309,8.23784779 9.3432138,7.38719189 C9.51715841,7.38385544 9.71996165,7.38302293 9.91731147,7.38302293 C10.1481886,7.38302293 10.3720567,7.38469009 10.5389943,7.38635724 C10.6216764,7.38719189 10.6910993,7.3880244 10.7386805,7.38885905 C10.7870425,7.38969369 10.8135628,7.38969369 10.8135628,7.38969369 C10.8985851,7.39136085 10.9804884,7.35550523 11.040546,7.29213403 C11.1013884,7.2287607 11.1349297,7.14204289 11.1357085,7.05115399 L11.1396083,4.96321535 C11.1396083,4.87232645 11.1068478,4.75642165 11.0460054,4.69222221 C10.9859438,4.62801637 10.9056021,4.56297588 10.8205798,4.56297588 L10.7152773,4.56297588 C10.6474159,4.56297588 10.5514727,4.5938279 10.4368149,4.5938279 C10.0826915,4.5938279 9.54759257,4.60716943 9.12325952,4.59966402 C9.13105926,4.36786295 9.15056061,4.17107006 9.18254234,3.99679767 C9.21296253,3.82669211 9.25586509,3.68910999 9.30578663,3.57569632 C9.34322778,3.49064354 9.38534958,3.42393589 9.4298097,3.36723546 C9.49767104,3.28301732 9.57099379,3.22631476 9.66615822,3.18378837 C9.76054187,3.14209662 9.87910352,3.11708072 10.0312045,3.11708072 C10.3011002,3.11624607 10.6723767,3.20129886 11.137286,3.39392279 C11.1404051,3.39558994 11.1443049,3.39558994 11.1482068,3.3972571 C11.1521067,3.39892639 11.1552258,3.40059355 11.1591256,3.40226071 C11.1661466,3.40476251 11.1723868,3.40476251 11.1794058,3.40642967 C11.1903266,3.40893147 11.2004667,3.41143328 11.2113875,3.41310043 C11.2215276,3.41476973 11.2316676,3.41476973 11.2418077,3.41560224 C11.2527285,3.41560224 11.2628686,3.41643688 11.2730086,3.41560224 C11.2831487,3.41476973 11.2932888,3.41310043 11.3034288,3.41143328 C11.3135689,3.40976612 11.323709,3.40726432 11.333849,3.40476251 C11.3432103,3.40226071 11.3533504,3.39809175 11.3619289,3.39475743 C11.372069,3.39142098 11.3814302,3.38725202 11.3907895,3.38224841 C11.4001508,3.37724481 11.4079506,3.37224334 11.4165311,3.36640508 C11.4251116,3.36056896 11.4344729,3.35473285 11.4422726,3.34806208 C11.4500743,3.34222383 11.4570933,3.33472055 11.4648931,3.32721514 C11.4726948,3.31970973 11.4804945,3.31220645 11.4875135,3.3038664 C11.4945345,3.29552848 11.4999939,3.28719055 11.5062341,3.2788505 C11.5124743,3.26967793 11.5187145,3.26050536 11.5241759,3.25050028 C11.5296353,3.24132771 11.5343159,3.23048799 11.5382158,3.22048291 C11.5413349,3.21381214 11.5452348,3.20714138 11.5475751,3.20047061 C11.5491366,3.19630165 11.5499154,3.1929652 11.5506962,3.18796373 C11.551475,3.18462728 11.5538153,3.18129297 11.5545961,3.17712187 C11.6185575,2.95114839 11.7285407,2.5725905 11.8229343,2.17317714 C11.8697367,1.9730542 11.9134161,1.76710368 11.9461786,1.56864577 C11.9781603,1.37018999 12,1.18090891 12,1.00413899 C12,0.924924457 11.9953194,0.849044243 11.9843985,0.773170433 L11.9844325,0.77297618 Z M8.91817186,2.96433836 C8.75280777,3.18614928 8.64671852,3.45880745 8.58042272,3.76816015 C8.51334016,4.07834537 8.48526029,4.43024154 8.48526029,4.82713602 C8.48526029,4.86799526 8.48604106,4.90885236 8.48604106,4.9505441 C8.48916016,5.13148939 8.62410606,5.22905119 8.79337801,5.23487877 C9.24500816,5.2507221 9.98446592,5.20319211 10.4368948,5.20319211 L10.5047561,5.20319211 L10.5024158,6.65741878 C10.3401708,6.65575163 10.132677,6.67993288 9.91817411,6.67993288 C9.58042497,6.67993288 9.23019544,6.69577621 9.00632731,6.70745059 C8.8355018,6.71662315 8.70212543,6.8742197 8.70446176,7.05766039 C8.71304228,7.63717372 8.73254163,9.78851131 8.74970265,11.7888868 C8.75828317,12.7895015 8.76608291,13.7550867 8.7723231,14.4689332 C8.7754442,14.8149805 8.77778452,15.1026665 8.77934407,15.306952 L6.59677452,15.3194589 C6.59989362,14.8700095 6.60457426,14.0161516 6.60457426,12.9937635 C6.60457426,11.0609068 6.58741323,8.53107539 6.50785228,6.96766164 C6.49927177,6.79171995 6.36666819,6.65329252 6.20209286,6.64663242 C5.77230837,6.63078909 5.05779142,6.62745478 4.64593875,6.62745478 L4.63735823,5.07149093 C4.72706124,5.07232558 4.83080418,5.07315809 4.94000255,5.07315809 C5.2504546,5.07315809 5.60613556,5.06982378 5.85732076,5.05398044 C6.02190607,5.04397323 6.15217732,4.90055286 6.1560712,4.72460477 C6.17323222,4.01082229 6.21145215,3.28538464 6.38852583,2.66917677 C6.4766693,2.36065657 6.59835603,2.07965195 6.76683123,1.83282299 C6.93530643,1.58599402 7.14905048,1.37169705 7.43532053,1.1932621 C8.03671529,0.818866771 8.68803159,0.680456411 9.3323389,0.680456411 C10.0655664,0.679621765 10.7823998,0.863903504 11.3627476,1.07404219 C11.358067,1.17993978 11.3432482,1.31085967 11.319847,1.45260008 C11.2769465,1.71443559 11.2075236,2.0129443 11.1373219,2.28643498 C11.1053402,2.41151235 11.0725797,2.53074506 11.0421595,2.63997483 C10.667748,2.5107285 10.3338927,2.44068654 10.0304696,2.43985189 C9.77227543,2.43901725 9.53203303,2.4907162 9.32220283,2.60745565 C9.16543123,2.69416705 9.02813902,2.81674262 8.91817186,2.96433836 Z" id="Page-1" fill="#9B9B9B"></path>
                    <rect id="Rectangle-2" x="0" y="0" width="16" height="16"></rect>
                </g>
            </g>
        </g>
    </g>
</svg>