<?xml version="1.0" encoding="UTF-8"?>
<svg width="16px" height="16px" viewBox="0 0 16 16" version="1.1" xmlns="http://www.w3.org/2000/svg" xmlns:xlink="http://www.w3.org/1999/xlink">
    <!-- Generator: Sketch 50 (54983) - http://www.bohemiancoding.com/sketch -->
    <title>shopping icon</title>
    <desc>Created with Sketch.</desc>
    <defs></defs>
    <g id="Page-1" stroke="none" stroke-width="1" fill="none" fill-rule="evenodd">
        <g id="icons" transform="translate(-111.000000, -832.000000)" fill="#9B9B9B">
            <g id="happy-face" transform="translate(111.000000, 832.000000)">
                <g id="Page-1-Copy">
                    <path d="M7.98190726,0 C3.61401679,0.0101750785 0.0478147911,3.53495139 0,7.91661666 L0.000726710404,7.91661666 C-0.0450582776,12.3310268 3.50218414,15.9537938 7.91658705,15.9995617 C12.33099,16.0453468 15.9537511,12.4980997 15.9995193,8.08368963 C16.0474848,3.66927954 12.499551,0.0465125183 8.08514814,0.000744200293 C8.05099126,1.67445066e-05 8.01610693,1.67445066e-05 7.98194819,1.67445066e-05 L7.98190726,0 Z M8.08001875,0.55670089 C12.1941373,0.59957985 15.4885206,3.96364983 15.4442408,8.07796115 C15.4006363,12.1920864 12.0365718,15.4864741 7.92226715,15.4436828 C3.80814857,15.4008046 0.513764907,12.0367346 0.556556168,7.92242329 C0.600888665,3.83881023 3.91345274,0.564701043 7.98329147,0.555956689 C8.01533854,0.555973434 8.04731492,0.555973434 8.08001875,0.55670089 Z" id="Fill-1"></path>
                    <path d="M4.200442,10.4891106 C4.09190603,10.4847973 3.99138117,10.54374 3.94185254,10.6386201 C3.8923239,10.7335002 3.90324593,10.8485038 3.97026064,10.9326156 C4.91430704,12.1646291 6.31578472,12.9596885 7.88928862,12.9775376 L7.89001775,12.9775376 C9.46197389,12.9933516 10.8816891,12.2271195 11.8504439,11.0145008 C11.8963344,10.9569971 11.9174586,10.8836795 11.9094475,10.8110758 C11.9007054,10.7384777 11.8635571,10.6723476 11.8052826,10.6270641 C11.7470081,10.5817807 11.6727077,10.560934 11.5991308,10.5695605 C11.5255596,10.5789046 11.458543,10.6162829 11.4126525,10.6737865 C10.5356264,11.7706619 9.28045964,12.4413109 7.89511234,12.4276389 C6.50745271,12.4118249 5.26837899,11.7153112 4.41393541,10.6011755 L4.41466267,10.6011755 C4.36440118,10.5336083 4.28500245,10.4919186 4.20051099,10.4890425 L4.200442,10.4891106 Z" id="Fill-2"></path>
                    <path d="M4.81448931,4.97783094 C4.04188255,4.97101811 3.40103589,5.61986511 3.37799446,6.4292255 C3.37511336,6.50645179 3.40103589,6.5821624 3.45143948,6.63894051 C3.50184306,6.69571862 3.57168624,6.72903656 3.64513494,6.73130815 C3.71857996,6.73357974 3.78986461,6.70480885 3.84314377,6.65105436 C3.89642293,6.59729987 3.92738876,6.52385891 3.92882839,6.44663068 C3.94250947,5.94693912 4.32989672,5.55398514 4.80871605,5.55778404 L4.80943679,5.55778404 C5.28827455,5.56384097 5.66700191,5.9666314 5.6713337,6.46556706 C5.6713337,6.54279335 5.70013549,6.61699021 5.75269944,6.67150254 C5.80454265,6.72601488 5.8758273,6.75629951 5.94927048,6.75554167 C6.02271549,6.75478382 6.09255867,6.72298545 6.14440373,6.66771527 C6.19552621,6.61244509 6.22360911,6.53749233 6.22216948,6.46026797 C6.21568838,5.65090758 5.58853018,4.98766933 4.81520452,4.97784257 L4.81448378,4.97784257 L4.81448931,4.97783094 Z" id="Fill-3"></path>
                    <path d="M11.21376,4.97787215 C10.4415427,4.96876665 9.80101911,5.61974351 9.77798929,6.43005099 C9.77510964,6.50743993 9.80173948,6.5825525 9.85139729,6.63945019 C9.90177546,6.6963537 9.97158344,6.72897849 10.0449951,6.73125486 C10.1184068,6.73353124 10.1896518,6.7054592 10.2429041,6.65158955 C10.2961601,6.59847934 10.3271067,6.52488566 10.327827,6.44673534 C10.3415012,5.94599138 10.7286932,5.55220979 11.2072711,5.55753169 L11.2079897,5.55829113 L11.2087101,5.55829113 C11.6873064,5.56284193 12.0665614,5.96572707 12.0716096,6.46722853 C12.0723281,6.54461747 12.1018357,6.61821115 12.1543732,6.67208274 C12.2061903,6.72670989 12.2767186,6.75629886 12.3501266,6.75554136 C12.4235346,6.75478193 12.4933426,6.72291658 12.544443,6.66753194 C12.5955397,6.61214536 12.6236084,6.53779223 12.6221695,6.46040523 C12.6128139,5.65009775 11.986694,4.98546265 11.2137582,4.97788769 L11.2130378,4.97788769 L11.21376,4.97787215 Z" id="Fill-4"></path>
                </g>
            </g>
        </g>
    </g>
</svg>