<?xml version="1.0" encoding="UTF-8"?>
<svg width="16px" height="16px" viewBox="0 0 16 16" version="1.1" xmlns="http://www.w3.org/2000/svg" xmlns:xlink="http://www.w3.org/1999/xlink">
    <!-- Generator: Sketch 49.3 (51167) - http://www.bohemiancoding.com/sketch -->
    <title>help center icon</title>
    <desc>Created with Sketch.</desc>
    <defs></defs>
    <g id="Page-1" stroke="none" stroke-width="1" fill="none" fill-rule="evenodd">
        <g id="icons" transform="translate(-112.000000, -667.000000)" fill="#9B9B9B">
            <g id="help-center-icon" transform="translate(112.000000, 667.000000)">
                <g id="Page-1">
                    <path d="M8,0.143964045 C12.4183636,0.143964045 16,3.6853573 16,8.0540764 C16,12.4227955 12.4183636,15.9641888 8,15.9641888 C3.58163636,15.9641888 0,12.4044584 0,8.0540764 C0,3.70369438 3.58163636,0.143964045 8,0.143964045 Z M8,0.863065169 C3.97608081,0.863065169 0.727272727,4.07536979 0.727272727,8.0540764 C0.727272727,12.032783 3.97608081,15.2450876 8,15.2450876 C12.0239192,15.2450876 15.2727273,12.032783 15.2727273,8.0540764 C15.2727273,4.07473059 12.0239192,0.863065169 8,0.863065169 Z" id="Fill-1"></path>
                    <path d="M9.18181818,10.9846292 L6.90909091,10.9846292 L6.90909091,10.6791551 C7,10.6433402 7.07244364,10.6075254 7.16334545,10.5710094 C7.25425455,10.5351946 7.34516364,10.5169366 7.45454545,10.4811218 L7.45454545,7.47905438 L6.90909091,7.40742472 L6.90909091,7.10195056 C7,7.06613573 7.09090909,7.0303209 7.21803636,7.01206292 C7.34516727,6.97624809 7.47229091,6.95799011 7.61789091,6.92217528 C7.76348727,6.9039173 7.89061818,6.86810247 8.01774545,6.85054562 C8.14487636,6.83228764 8.272,6.81473079 8.36290909,6.81473079 L8.63563636,6.81473079 L8.63563636,10.481787 C8.74501091,10.5176018 8.83592727,10.5358598 8.92683636,10.5716746 C9.01774545,10.6074894 9.09018909,10.6433043 9.18109091,10.6798202 L9.18181818,10.9846292 Z M7.32745455,5.57303371 C7.32745455,5.37499326 7.39989818,5.23174831 7.52774545,5.12359551 C7.65487636,5.01544989 7.81894545,4.9620782 8.03698182,4.9620782 C8.23727273,4.9620782 8.41909091,5.01615101 8.54621818,5.12359551 C8.67334909,5.23174112 8.74650909,5.37499326 8.74650909,5.57303371 C8.74650909,5.75280899 8.67406545,5.89677303 8.54621818,6.02247191 C8.41908727,6.13061753 8.25501818,6.18398921 8.03698182,6.18398921 C7.83669091,6.18398921 7.65487273,6.1299164 7.52774545,6.02247191 C7.38214909,5.91432629 7.32745455,5.75280899 7.32745455,5.57303371 Z" id="Fill-2"></path>
                </g>
            </g>
        </g>
    </g>
</svg>