<?xml version="1.0" encoding="UTF-8"?>
<svg width="16px" height="16px" viewBox="0 0 16 16" version="1.1" xmlns="http://www.w3.org/2000/svg" xmlns:xlink="http://www.w3.org/1999/xlink">
    <!-- Generator: Sketch 50.2 (55047) - http://www.bohemiancoding.com/sketch -->
    <title>help icon on</title>
    <desc>Created with Sketch.</desc>
    <defs></defs>
    <g id="help-icon-on" stroke="none" stroke-width="1" fill="none" fill-rule="evenodd">
        <g id="Group-38" transform="translate(0.000000, -1.000000)" fill="#22B3B3">
            <g id="Page-1" transform="translate(0.000000, 1.000000)">
                <path d="M8,0.143964045 C12.4183636,0.143964045 16,3.6853573 16,8.0540764 C16,12.4227955 12.4183636,15.9641888 8,15.9641888 C3.58163636,15.9641888 0,12.4044584 0,8.0540764 C0,3.70369438 3.58163636,0.143964045 8,0.143964045 Z M8,0.863065169 C3.97608081,0.863065169 0.727272727,4.07536979 0.727272727,8.0540764 C0.727272727,12.032783 3.97608081,15.2450876 8,15.2450876 C12.0239192,15.2450876 15.2727273,12.032783 15.2727273,8.0540764 C15.2727273,4.07473059 12.0239192,0.863065169 8,0.863065169 Z" id="Fill-1"></path>
            </g>
            <text id="?" font-family="SourceSansPro-Regular, Source Sans Pro" font-size="14" font-weight="normal">
                <tspan x="5" y="14">?</tspan>
            </text>
        </g>
    </g>
</svg>