<?xml version="1.0" encoding="UTF-8"?>
<svg width="16px" height="16px" viewBox="0 0 16 16" version="1.1" xmlns="http://www.w3.org/2000/svg" xmlns:xlink="http://www.w3.org/1999/xlink">
    <!-- Generator: Sketch 49.3 (51167) - http://www.bohemiancoding.com/sketch -->
    <title>Icon-Circle-Checking</title>
    <desc>Created with Sketch.</desc>
    <defs>
        <polygon id="path-1" points="0 0.0980839765 0 3.0605 1.37688588 3.0605 1.37688588 0.0980839765 6.77626358e-21 0.0980839765"></polygon>
        <polygon id="path-3" points="3.08407053 0 0.13563137 0 0.13563137 1.4349 3.08407053 1.4349 3.08407053 0"></polygon>
        <polygon id="path-5" points="0.309888295 2 3.27971427 2 3.27971427 0.678144582 0.309888295 0.678144582 0.309888295 2"></polygon>
    </defs>
    <g id="Page-1" stroke="none" stroke-width="1" fill="none" fill-rule="evenodd">
        <g id="icons" transform="translate(-208.000000, -540.000000)">
            <g id="Icon-Circle-Checking" transform="translate(208.000000, 540.000000)">
                <rect id="16X16" x="0" y="0" width="16" height="16"></rect>
                <g id="Shape-Circle-Checking">
                    <path d="M1.1404,9.4472 C1.0834,9.1772 0.8224,9.0092 0.5474,9.0612 C0.2774,9.1182 0.1044,9.3832 0.1614,9.6542 C0.3084,10.3522 0.5494,11.0282 0.8764,11.6622 C0.9654,11.8342 1.1404,11.9332 1.3214,11.9332 C1.3984,11.9332 1.4774,11.9152 1.5504,11.8772 C1.7964,11.7502 1.8924,11.4482 1.7654,11.2022 C1.4794,10.6472 1.2684,10.0572 1.1404,9.4472" id="Fill-1" fill="#424242"></path>
                    <g id="Group-5" transform="translate(0.000000, 5.000000)">
                        <mask id="mask-2" fill="white">
                            <use xlink:href="#path-1"></use>
                        </mask>
                        <g id="Clip-4"></g>
                        <path d="M0.5007,3.0605 C0.7637,3.0605 0.9847,2.8545 0.9997,2.5875 C1.0347,1.9625 1.1527,1.3465 1.3507,0.7575 C1.4387,0.4955 1.2977,0.2115 1.0357,0.1235 C0.7747,0.0375 0.4897,0.1765 0.4017,0.4385 C0.1757,1.1125 0.0407,1.8165 0.0007,2.5315 C-0.0153,2.8075 0.1967,3.0445 0.4727,3.0595 C0.4817,3.0605 0.4917,3.0605 0.5007,3.0605" id="Fill-3" fill="#424242" mask="url(#mask-2)"></path>
                    </g>
                    <path d="M4.2629,13.925 C3.7369,13.593 3.2559,13.191 2.8329,12.73 C2.6449,12.527 2.3289,12.514 2.1259,12.7 C1.9219,12.887 1.9089,13.204 2.0959,13.407 C2.5789,13.935 3.1279,14.394 3.7289,14.772 C3.8119,14.825 3.9049,14.849 3.9959,14.849 C4.1619,14.849 4.3249,14.766 4.4189,14.616 C4.5669,14.382 4.4969,14.072 4.2629,13.925" id="Fill-6" fill="#424242"></path>
                    <path d="M13.4169,3.5494 C13.5159,3.6704 13.6589,3.7334 13.8039,3.7334 C13.9149,3.7334 14.0279,3.6964 14.1209,3.6204 C14.3349,3.4454 14.3659,3.1294 14.1909,2.9154 C13.7399,2.3634 13.2179,1.8734 12.6379,1.4594 C12.4139,1.3004 12.1019,1.3504 11.9399,1.5774 C11.7799,1.8024 11.8329,2.1154 12.0579,2.2754 C12.5649,2.6374 13.0219,3.0664 13.4169,3.5494" id="Fill-8" fill="#424242"></path>
                    <path d="M1.7566,4.3076 C1.9176,4.3076 2.0756,4.2296 2.1726,4.0856 C2.5196,3.5676 2.9346,3.0986 3.4066,2.6896 C3.6146,2.5076 3.6376,2.1916 3.4566,1.9826 C3.2756,1.7736 2.9596,1.7506 2.7506,1.9326 C2.2126,2.3996 1.7386,2.9356 1.3416,3.5276 C1.1876,3.7576 1.2486,4.0686 1.4776,4.2226 C1.5636,4.2806 1.6606,4.3076 1.7566,4.3076" id="Fill-10" fill="#424242"></path>
                    <path d="M14.9191,6.9232 C14.9561,7.1712 15.1691,7.3492 15.4131,7.3492 C15.4381,7.3492 15.4631,7.3472 15.4891,7.3432 C15.7611,7.3022 15.9501,7.0472 15.9081,6.7732 C15.8021,6.0692 15.6001,5.3812 15.3101,4.7282 C15.1981,4.4752 14.9011,4.3622 14.6481,4.4742 C14.3961,4.5872 14.2831,4.8832 14.3951,5.1362 C14.6491,5.7072 14.8261,6.3082 14.9191,6.9232" id="Fill-12" fill="#424242"></path>
                    <path d="M14.7149,11.3765 C14.4769,11.2365 14.1709,11.3145 14.0289,11.5525 C13.7129,12.0875 13.3249,12.5805 12.8769,13.0185 C12.6779,13.2105 12.6739,13.5275 12.8669,13.7265 C12.9649,13.8275 13.0959,13.8785 13.2259,13.8785 C13.3519,13.8785 13.4779,13.8315 13.5739,13.7365 C14.0869,13.2375 14.5289,12.6745 14.8909,12.0635 C15.0319,11.8245 14.9519,11.5175 14.7149,11.3765" id="Fill-14" fill="#424242"></path>
                    <path d="M11.3802,14.1295 C10.8352,14.4315 10.2512,14.6585 9.6452,14.8055 C9.3772,14.8715 9.2122,15.1425 9.2772,15.4115 C9.3332,15.6395 9.5382,15.7935 9.7642,15.7935 C9.8022,15.7935 9.8422,15.7885 9.8822,15.7795 C10.5742,15.6115 11.2412,15.3515 11.8652,15.0065 C12.1062,14.8725 12.1942,14.5675 12.0602,14.3255 C11.9262,14.0825 11.6222,13.9975 11.3802,14.1295" id="Fill-16" fill="#424242"></path>
                    <path d="M4.7462,1.7141 C4.8192,1.7141 4.8932,1.6981 4.9622,1.6651 C5.5242,1.3941 6.1202,1.2001 6.7322,1.0901 C7.0042,1.0401 7.1842,0.7801 7.1362,0.5081 C7.0862,0.2361 6.8242,0.0561 6.5542,0.1041 C5.8532,0.2311 5.1722,0.4521 4.5292,0.7621 C4.2792,0.8811 4.1752,1.1811 4.2952,1.4301 C4.3812,1.6091 4.5592,1.7141 4.7462,1.7141" id="Fill-18" fill="#424242"></path>
                    <path d="M15.4996,7.4877 C15.2226,7.4877 14.9996,7.7117 14.9996,7.9887 C14.9996,8.6147 14.9166,9.2367 14.7536,9.8367 C14.6816,10.1037 14.8386,10.3787 15.1056,10.4507 C15.1496,10.4627 15.1936,10.4687 15.2366,10.4687 C15.4576,10.4687 15.6586,10.3217 15.7196,10.0987 C15.9056,9.4137 15.9996,8.7037 15.9996,7.9887 C15.9996,7.7117 15.7766,7.4877 15.4996,7.4877" id="Fill-20" fill="#424242"></path>
                    <g id="Group-24" transform="translate(8.000000, 0.000000)">
                        <mask id="mask-4" fill="white">
                            <use xlink:href="#path-3"></use>
                        </mask>
                        <g id="Clip-23"></g>
                        <path d="M0.5934,1.0009 C1.2144,1.0539 1.8264,1.1899 2.4114,1.4039 C2.4684,1.4249 2.5264,1.4349 2.5834,1.4349 C2.7884,1.4349 2.9794,1.3089 3.0534,1.1069 C3.1484,0.8469 3.0154,0.5589 2.7554,0.4639 C2.0874,0.2179 1.3884,0.0629 0.6784,0.0029 C0.3924,-0.0281 0.1604,0.1839 0.1374,0.4589 C0.1144,0.7349 0.3184,0.9779 0.5934,1.0009" id="Fill-22" fill="#424242" mask="url(#mask-4)"></path>
                    </g>
                    <g id="Group-27" transform="translate(5.000000, 14.000000)">
                        <mask id="mask-6" fill="white">
                            <use xlink:href="#path-5"></use>
                        </mask>
                        <g id="Clip-26"></g>
                        <path d="M2.7935,0.9982 C2.1685,0.9802 1.5495,0.8802 0.9555,0.7002 C0.6905,0.6192 0.4115,0.7682 0.3315,1.0342 C0.2515,1.2982 0.4005,1.5782 0.6645,1.6582 C1.3445,1.8652 2.0505,1.9792 2.7655,2.0002 L2.7795,2.0002 C3.0495,2.0002 3.2715,1.7852 3.2795,1.5142 C3.2875,1.2372 3.0705,1.0062 2.7935,0.9982" id="Fill-25" fill="#424242" mask="url(#mask-6)"></path>
                    </g>
                    <path d="M12,5 C11.862,5 11.737,5.056 11.646,5.147 L6.969,9.824 L4.32,7.616 L4.316,7.621 C4.229,7.549 4.122,7.5 4,7.5 C3.724,7.5 3.5,7.724 3.5,8 C3.5,8.154 3.574,8.287 3.684,8.379 L3.68,8.384 L6.68,10.884 L6.684,10.879 C6.771,10.951 6.878,11 7,11 C7.138,11 7.263,10.944 7.354,10.853 L12.353,5.854 C12.444,5.763 12.5,5.638 12.5,5.5 C12.5,5.224 12.276,5 12,5" id="Fill-28" fill="#424242"></path>
                </g>
            </g>
        </g>
    </g>
</svg>