<?xml version="1.0" encoding="UTF-8"?>
<svg width="16px" height="16px" viewBox="0 0 16 16" version="1.1" xmlns="http://www.w3.org/2000/svg" xmlns:xlink="http://www.w3.org/1999/xlink">
    <!-- Generator: Sketch 49.3 (51167) - http://www.bohemiancoding.com/sketch -->
    <title>like icon</title>
    <desc>Created with Sketch.</desc>
    <defs></defs>
    <g id="Page-1" stroke="none" stroke-width="1" fill="none" fill-rule="evenodd">
        <g id="icons" transform="translate(-63.000000, -832.000000)" fill="#9B9B9B">
            <g id="good-job-icon" transform="translate(63.000000, 832.000000)">
                <g id="Page-1">
                    <path d="M0.153725418,7.92079208 C0.153725418,3.55326733 3.67215686,0 7.99686275,0 C12.3215686,0 15.84,3.55326733 15.84,7.92079208 C15.84,9.03589703 15.613898,10.1156436 15.171498,11.1268119 C15.0973553,11.2932752 14.9049569,11.3675248 14.7401255,11.2945109 C14.5752941,11.221497 14.5017725,11.0265663 14.5740706,10.8594851 C14.9815529,9.93249901 15.1874353,8.94423762 15.1874353,7.92071287 C15.1874353,5.24373828 13.7448203,2.90027906 11.6038225,1.64136759 C10.5431558,1.0176932 9.31108592,0.66019802 7.99810196,0.66019802 C4.03480784,0.66019802 0.808768314,3.91754455 0.808768314,7.92071287 C0.808768314,11.9232475 4.03480784,15.1812279 7.99810196,15.1812279 C8.54283922,15.1812279 9.08694902,15.1193475 9.6139451,14.996816 C9.79347451,14.9553554 9.96627451,15.0673602 10.0073255,15.2443408 C10.0483796,15.4231764 9.93869804,15.5989229 9.76222745,15.6409982 C9.18440784,15.7721855 8.5918902,15.8408715 7.99752157,15.8408715 C3.67215686,15.8415842 0.153725418,12.2883168 0.153725418,7.92079208 Z" id="Fill-1"></path>
                    <path d="M7.99686275,13.8613861 C4.75294118,13.8613861 2.1145098,11.196198 2.1145098,7.92079208 C2.1145098,7.73886733 2.26156863,7.5909703 2.44109804,7.5909703 C2.62062745,7.5909703 2.76768627,7.73886574 2.76768627,7.92079208 C2.76768627,10.8323168 5.1132549,13.2011089 7.99623529,13.2011089 C8.39697255,13.2011089 8.79648627,13.1546978 9.18312157,13.0643517 C9.30444549,13.0358859 9.42147451,13.0037085 9.53912157,12.9678162 C9.71192157,12.9121236 9.89389804,13.0129901 9.94782745,13.1868737 C9.99991059,13.3620024 9.90309647,13.5451628 9.72969412,13.5996261 C9.59979294,13.6404673 9.46682353,13.6763596 9.33140392,13.7079176 C8.89574902,13.8087842 8.44660392,13.8607636 7.99623529,13.8607636 L7.99686275,13.8613861 Z" id="Fill-2"></path>
                    <path d="M12.7101176,11.2209109 C12.650069,11.2209109 12.5900204,11.20544 12.5348706,11.1707865 C12.3835231,11.0742511 12.3357333,10.8700499 12.4331545,10.7165766 C12.5710227,10.4944301 12.6917271,10.2592776 12.7971231,10.014842 C13.0808251,9.35332911 13.2248251,8.64912317 13.2248251,7.92010931 C13.2248251,7.73818455 13.3718839,7.59028752 13.5514133,7.59028752 C13.7309427,7.59028752 13.8780016,7.73818297 13.8780016,7.92010931 C13.8780016,8.73880238 13.7156173,9.53151525 13.3969976,10.2771786 C13.2793506,10.5506994 13.1414839,10.8136855 12.9870682,11.0655509 C12.9245678,11.1664174 12.8185663,11.2208729 12.7101114,11.2208729 L12.7101176,11.2209109 Z" id="Fill-3"></path>
                    <path d="M6.36266667,5.94059406 C6.18313725,5.94059406 6.03607843,5.79269861 6.03607843,5.61077228 C6.03607843,5.06498218 5.59612549,4.62067327 5.05568627,4.62067327 C4.51524706,4.62067327 4.07529412,5.06498218 4.07529412,5.61077228 C4.07529412,5.79269703 3.92823529,5.94059406 3.74870588,5.94059406 C3.56917647,5.94059406 3.42211765,5.79269861 3.42211765,5.61077228 C3.42211765,4.70111683 4.15496471,3.96039604 5.05631373,3.96039604 C5.95766275,3.96039604 6.6905098,4.70111683 6.6905098,5.61077228 C6.6905098,5.79269703 6.54345098,5.94059406 6.36392157,5.94059406 L6.36266667,5.94059406 Z" id="Fill-4"></path>
                    <path d="M12.244549,5.94059406 C12.0650196,5.94059406 11.9179608,5.79269861 11.9179608,5.61077228 C11.9179608,5.06498218 11.4786196,4.62067327 10.9375686,4.62067327 C10.3977412,4.62067327 9.95717647,5.06498218 9.95717647,5.61077228 C9.95717647,5.79269703 9.81011765,5.94059406 9.63058824,5.94059406 C9.45105882,5.94059406 9.304,5.79269861 9.304,5.61077228 C9.304,4.70111683 10.0368471,3.96039604 10.9381961,3.96039604 C11.8395451,3.96039604 12.5723922,4.70111683 12.5723922,5.61077228 C12.5723922,5.79269703 12.4259467,5.94059406 12.2458039,5.94059406 L12.244549,5.94059406 Z" id="Fill-5"></path>
                    <path d="M14.0428235,15.8415842 L10.1775686,15.8415842 C9.67940392,15.8415842 9.30318431,15.5488792 9.30318431,15.1608871 L9.30318431,11.7858376 C9.30318431,11.6787834 9.35526745,11.5785347 9.44227765,11.5166574 C9.75600314,11.2932594 9.88773647,10.9479762 10.0838149,10.4238416 C10.2088157,10.0884436 10.3662933,9.67569109 10.6101678,9.21406733 L10.6101678,8.15095446 C10.6101678,8.06617663 10.6432565,7.98449109 10.7008533,7.92323168 C11.1732769,7.42447525 12.0243827,7.51358416 12.4919122,8.12991683 C12.7425318,8.46222574 13.0942337,9.20107723 12.8227984,10.5623921 L14.4447592,10.5623921 C14.8638808,10.5623921 15.8467137,10.9497663 15.8467137,11.7010059 C15.8467137,12.0240317 15.795862,12.2734099 15.6972094,12.4423446 C15.7989255,12.7876436 15.7725773,13.2573149 15.4790761,13.5989069 C15.4894933,13.894701 15.4521145,14.3984157 15.0372878,14.7257662 C15.0170667,14.9974177 14.8969694,15.2845464 14.7094761,15.5023682 C14.5201427,15.7208078 14.2836251,15.8420909 14.0434212,15.8420909 L14.0428235,15.8415842 Z M9.96988235,15.1540911 C9.99806902,15.1540911 10.0715984,15.1819374 10.1776,15.1819374 L14.0428549,15.1819374 C14.077782,15.1819374 14.1421192,15.151615 14.2168784,15.0662194 C14.3333004,14.9313188 14.4031529,14.7314392 14.3841569,14.5909719 C14.3663875,14.4529774 14.4337898,14.3174511 14.5569569,14.2531026 C14.7420078,14.1559493 14.8584314,13.9876293 14.8173804,13.4925798 C14.8081898,13.3842883 14.8547576,13.278465 14.9374776,13.209158 C15.1813522,13.0086669 15.0955639,12.6361362 15.0355169,12.5457917 C14.9754682,12.4548261 14.9656643,12.3403422 15.0036549,12.2400966 C15.0318416,12.1707897 15.0814729,12.112621 15.1451984,12.0748689 C15.1641929,12.0235073 15.1936047,11.9022273 15.1936047,11.6986313 C15.1936047,11.4696729 14.6672518,11.2196768 14.4454478,11.2196768 L12.4093694,11.2196768 C12.3076533,11.2196768 12.2114557,11.1714091 12.1507969,11.0903446 C12.0882965,11.0086622 12.0680769,10.9022257 12.0944235,10.8032158 C12.4737176,9.3960396 12.136091,8.7438099 11.9730996,8.52788911 C11.7727388,8.26426931 11.4749349,8.17330693 11.2647702,8.3020198 L11.2647702,9.2945901 C11.2647702,9.35028277 11.251291,9.40473822 11.2237161,9.45362376 C10.9773945,9.90659802 10.8285004,10.3044911 10.6949161,10.6547327 C10.5018965,11.1640079 10.3333945,11.6126574 9.95595137,11.9437149 L9.95595137,15.1584474 C9.95901647,15.1553533 9.9633051,15.1528781 9.97127059,15.1528781 L9.96988235,15.1540911 Z" id="Fill-6"></path>
                </g>
            </g>
        </g>
    </g>
</svg>