<?xml version="1.0" encoding="UTF-8"?>
<svg width="13px" height="16px" viewBox="0 0 13 16" version="1.1" xmlns="http://www.w3.org/2000/svg" xmlns:xlink="http://www.w3.org/1999/xlink">
    <!-- Generator: Sketch 50.2 (55047) - http://www.bohemiancoding.com/sketch -->
    <title>logout icon</title>
    <desc>Created with Sketch.</desc>
    <defs></defs>
    <g id="Page-1" stroke="none" stroke-width="1" fill="none" fill-rule="evenodd">
        <g id="User-select" transform="translate(-1114.000000, -105.000000)" fill="#9B9B9B">
            <g id="Group-13" transform="translate(1080.000000, 57.000000)">
                <g id="Group-34">
                    <g id="logout" transform="translate(32.000000, 48.000000)">
                        <path d="M3.09108934,5.33211457e-05 C2.49297235,5.33211457e-05 2,0.493025668 2,1.09114266 L2,14.9116076 C2,15.5097246 2.49297235,16.0026969 3.09108934,16.0026969 L8.91023246,16.0026969 C9.00755035,16.0041175 9.10131857,15.9664691 9.17093007,15.898276 C9.23983418,15.8293719 9.27890245,15.7363184 9.27890245,15.6389968 C9.27890245,15.5416753 9.23983418,15.4486199 9.17093007,15.3797176 C9.10131675,15.3115245 9.00755035,15.2738765 8.91023246,15.2752967 L3.09108934,15.2752967 C2.88296404,15.2752967 2.72739289,15.119731 2.72739289,14.9116003 L2.72739289,1.09113538 C2.72739289,0.883010092 2.88295859,0.727438937 3.09108934,0.727438937 L8.91023246,0.727438937 C9.00755035,0.728859172 9.10131857,0.691211135 9.17093007,0.623018051 C9.23983418,0.554113941 9.27890245,0.461060387 9.27890245,0.363738855 C9.27890245,0.266417324 9.23983418,0.173361951 9.17093007,0.10445966 C9.10131675,0.0362665762 9.00755035,-0.00138146133 8.91023246,3.87732878e-05 L3.09108934,5.33211457e-05 Z M10.6888899,3.63138048 C10.547532,3.64487725 10.4267739,3.74006389 10.3806026,3.87431152 C10.3337203,4.00927745 10.3699463,4.15844937 10.472947,4.25648374 L13.8542328,7.63776959 L5.63687535,7.63776959 C5.62550983,7.63705857 5.61414432,7.63705857 5.6027788,7.63776959 C5.50617194,7.64203211 5.41525692,7.68465188 5.35060987,7.75639646 C5.28525726,7.82743001 5.25187174,7.92190744 5.25613427,8.01851249 C5.26039679,8.11511754 5.30301656,8.20603438 5.37476114,8.27068142 C5.44579469,8.33603403 5.54027211,8.36941955 5.63687716,8.36515703 L13.8542346,8.36515703 L10.4729488,11.7464429 C10.3926792,11.8110845 10.3436656,11.9069803 10.3379829,12.0099773 C10.3323001,12.112978 10.3706592,12.2138474 10.443824,12.2870049 C10.5169888,12.3601624 10.6178582,12.3985288 10.7208516,12.392846 C10.8238522,12.3871633 10.9197572,12.3381497 10.984386,12.2578801 L14.9850469,8.2572192 C15.1249846,8.1158613 15.1249846,7.88712169 14.9850469,7.74577107 L10.984386,3.74511017 C10.9161929,3.67336559 10.8217173,3.63216606 10.7229792,3.63145504 C10.7116137,3.63074401 10.7002482,3.63074401 10.6888826,3.63145504 L10.6888899,3.63138048 Z" id="Fill-1"></path>
                    </g>
                </g>
            </g>
        </g>
    </g>
</svg>