<?xml version="1.0" encoding="UTF-8"?>
<svg width="16px" height="16px" viewBox="0 0 16 16" version="1.1" xmlns="http://www.w3.org/2000/svg" xmlns:xlink="http://www.w3.org/1999/xlink">
    <!-- Generator: Sketch 50.2 (55047) - http://www.bohemiancoding.com/sketch -->
    <title>manage users icon on</title>
    <desc>Created with Sketch.</desc>
    <defs></defs>
    <g id="manage-users-icon-on" stroke="none" stroke-width="1" fill="none" fill-rule="evenodd">
        <g id="mana" fill="#22B3B3">
            <path d="M15.8434639,8.02216667 C15.8692371,12.3808333 12.3511753,15.9486663 8.01171134,15.9681663 C3.66894845,15.987698 0.14449534,12.446 0.128330557,8.045 C0.112222351,3.66666667 3.61731959,0.108833333 7.96668041,0.0893333333 C12.3063093,0.0698016667 15.8178969,3.60816667 15.8436305,8.02233333 L15.8434639,8.02216667 Z M7.98268041,0.798833333 C4.03942268,0.802088333 0.833815093,4.03783333 0.830680907,8.02533333 C0.827459299,12.0161667 4.04272165,15.265 7.9891134,15.2583332 C11.9421031,15.2518228 15.1475464,12.0063333 15.1411134,8.01866667 C15.1346705,4.031 11.9259381,0.795333333 7.98268041,0.798666667 L7.98268041,0.798833333 Z" id="Fill-1"></path>
            <path d="M10.8498309,11.86 L5.11851546,11.86 C5.28603711,10.7044 5.70807423,9.705 6.69390515,9.028 C7.25769897,8.64063333 7.88268866,8.52018333 8.54957526,8.68946667 C9.10370309,8.83269667 9.55150515,9.14845 9.91877938,9.58465 C10.4664577,10.2356833 10.7467381,11.0039167 10.8498309,11.86 Z" id="Fill-2"></path>
            <path d="M9.85121649,6.11783333 C9.84799505,7.14648333 9.00392577,7.99616667 7.99554639,7.99283333 C6.95816907,7.98957833 6.11414433,7.13996667 6.12371134,6.09833333 C6.13015423,5.05341667 6.97100206,4.22 8.01484536,4.22333333 C9.02000825,4.22658833 9.85435052,5.08596667 9.85121649,6.11783333 Z" id="Fill-3"></path>
        </g>
    </g>
</svg>