<?xml version="1.0" encoding="UTF-8"?>
<svg width="44px" height="28px" viewBox="0 0 44 28" version="1.1" xmlns="http://www.w3.org/2000/svg" xmlns:xlink="http://www.w3.org/1999/xlink">
    <!-- Generator: Sketch 49.3 (51167) - http://www.bohemiancoding.com/sketch -->
    <title>mastercard icon</title>
    <desc>Created with Sketch.</desc>
    <defs>
        <rect id="path-1" x="0" y="0" width="40" height="24" rx="5"></rect>
        <filter x="-10.0%" y="-8.3%" width="120.0%" height="133.3%" filterUnits="objectBoundingBox" id="filter-2">
            <feOffset dx="0" dy="2" in="SourceAlpha" result="shadowOffsetOuter1"></feOffset>
            <feGaussianBlur stdDeviation="1" in="shadowOffsetOuter1" result="shadowBlurOuter1"></feGaussianBlur>
            <feColorMatrix values="0 0 0 0 0.955915179   0 0 0 0 0.955915179   0 0 0 0 0.955915179  0 0 0 0.5 0" type="matrix" in="shadowBlurOuter1"></feColorMatrix>
        </filter>
    </defs>
    <g id="Page-1" stroke="none" stroke-width="1" fill="none" fill-rule="evenodd">
        <g id="Iconografía-Copy-3" transform="translate(-116.000000, -137.000000)">
            <g id="mastercard-icon" transform="translate(118.000000, 137.000000)">
                <g id="Group-10">
                    <g id="Group-40-Copy">
                        <g id="Rectangle-7-Copy-4">
                            <use fill="black" fill-opacity="1" filter="url(#filter-2)" xlink:href="#path-1"></use>
                            <use fill="#FFFFFF" fill-rule="evenodd" xlink:href="#path-1"></use>
                        </g>
                    </g>
                    <g id="card" transform="translate(9.000000, 3.000000)">
                        <g id="g3115">
                            <g id="g3110">
                                <path d="M22.3355588,6.99761732 C22.3355588,10.8614575 19.2441045,13.9937194 15.4306017,13.9937194 C11.6170988,13.9937194 8.52564353,10.8614575 8.52564353,6.99761732 C8.52564353,3.13377652 11.6170988,0.00151486407 15.4306017,0.00151486407 C19.2441045,0.00151486407 22.3355588,3.13377652 22.3355588,6.99761732 Z" id="path2997" fill="#F79F1A"></path>
                                <path d="M13.817246,6.99761732 C13.817246,10.8614575 10.7257917,13.9937194 6.91228885,13.9937194 C3.09878597,13.9937194 0.00733072329,10.8614575 0.00733072329,6.99761732 C0.00733072329,3.13377652 3.09878597,0.00151486407 6.91228885,0.00151486407 C10.7257917,0.00151486407 13.817246,3.13377652 13.817246,6.99761732 Z" id="path2995" fill="#EA001B"></path>
                                <path d="M11.1714592,1.49023438 C9.56035797,2.77099317 8.52618026,4.76121479 8.52618026,6.99696181 C8.52618026,9.23270882 9.56035797,11.2244494 11.1714592,12.5052083 C12.7825605,11.2244494 13.8167382,9.23270882 13.8167382,6.99696181 C13.8167382,4.76121479 12.7825605,2.77099317 11.1714592,1.49023438 Z" id="path2999" fill="#FF5F01"></path>
                            </g>
                            <g id="g3043" transform="translate(21.752540, 10.440929)" fill="#F79F1A" fill-rule="nonzero">
                                <g id="text3045">
                                    <path d="M0.570098283,0.430893018 L0.570098283,0.0191283121 L0.505630407,0.0191283121 L0.431471279,0.302304377 L0.357312152,0.0191283121 L0.292844276,0.0191283121 L0.292844276,0.430893018 L0.338351012,0.430893018 L0.338351012,0.120312811 L0.407875196,0.388030138 L0.455067369,0.388030138 L0.524591547,0.119610142 L0.524591547,0.430893018 L0.570098283,0.430893018 Z M0.161801729,0.430893018 L0.161801729,0.0893953241 L0.244388029,0.0893953241 L0.244388029,0.0198309811 L0.0341300524,0.0198309811 L0.0341300524,0.0893953241 L0.116716351,0.0893953241 L0.116716351,0.430893018 L0.161801729,0.430893018 Z" id="path3057"></path>
                                </g>
                            </g>
                        </g>
                        <g id="g3093" transform="translate(1.000000, 15.000000)" fill="#000000" fill-rule="nonzero">
                            <g id="g3081">
                                <path d="M0.420077904,2.93593651 L0.0441123088,2.93593651 L0.0441123088,0.870287009 L0.412706019,0.870287009 L0.412706019,1.12198363 C0.412706019,1.12198363 0.736451529,0.814366917 0.928737233,0.818212072 C1.30261069,0.825688972 1.5258589,1.20009657 1.5258589,1.20009657 C1.5258589,1.20009657 1.70695761,0.818212072 2.11560918,0.818212072 C2.71991451,0.818212072 2.80856521,1.46915205 2.80856521,1.46915205 L2.80856521,2.92725735 L2.44734329,2.92725735 L2.44734329,1.64273571 C2.44734329,1.64273571 2.44863934,1.25217206 2.05663402,1.25217206 C1.65126086,1.25217206 1.61432142,1.64273571 1.61432142,1.64273571 L1.61432142,2.92725735 L1.23835582,2.92725735 L1.23835582,1.63405656 C1.23835582,1.63405656 1.20223829,1.22613404 0.862390366,1.22613404 C0.421009496,1.22613404 0.412706019,1.64273571 0.412706019,1.64273571 L0.420077904,2.93593651 Z" id="path3006"></path>
                                <path d="M11.8536096,0.817930242 C11.6613238,0.814085631 11.3376086,1.12168442 11.3376086,1.12168442 L11.3376086,0.870535714 L10.9686247,0.870535714 L10.9686247,2.93572473 L11.3448153,2.93572473 L11.3376086,1.64264829 C11.3376086,1.64264829 11.3459269,1.22689536 11.7873078,1.22689536 C11.8692804,1.22689536 11.9329439,1.25027201 11.9833305,1.28628864 L11.9833305,1.2845944 L12.1058448,0.882417084 C12.0319142,0.845782498 11.9478389,0.819814536 11.8536096,0.817930242 Z" id="path3008"></path>
                                <path d="M17.1497152,0.817930242 C16.9574294,0.814085631 16.6337142,1.12168442 16.6337142,1.12168442 L16.6337142,0.870535714 L16.2647303,0.870535714 L16.2647303,2.93572473 L16.6409209,2.93572473 L16.6337142,1.64264829 C16.6337142,1.64264829 16.6420325,1.22689536 17.0834134,1.22689536 C17.165386,1.22689536 17.2290496,1.25027201 17.2794362,1.28628864 L17.2794362,1.2845944 L17.4019504,0.882417084 C17.3280198,0.845785213 17.2439445,0.819817251 17.1497152,0.817932957 L17.1497152,0.817930242 Z" id="path3013"></path>
                                <path d="M4.02423128,0.809445489 C3.46157318,0.809445489 3.16381143,1.40483734 3.16230782,1.90228175 C3.1607627,2.41215597 3.50128324,3.00020886 4.04008606,3.00020886 C4.35442073,3.00020886 4.61264816,2.72699979 4.61264816,2.72699979 L4.61196553,2.93742168 L4.98203569,2.93742168 L4.98203569,0.869722264 L4.6106621,0.869722264 L4.6106621,1.13016917 C4.6106621,1.13016917 4.36816123,0.809445489 4.02423313,0.809445489 L4.02423128,0.809445489 Z M4.09629846,1.23028926 C4.39859779,1.23028926 4.64400902,1.53987389 4.64400902,1.9209482 C4.64400902,2.30202251 4.39859779,2.60991019 4.09629846,2.60991019 C3.79399913,2.60991019 3.55002924,2.30202251 3.55002924,1.9209482 C3.55002924,1.53987389 3.79399913,1.23028926 4.09629846,1.23028926 Z" id="path3015"></path>
                                <path d="M14.816655,0.809445489 C14.2539969,0.809445489 13.9562352,1.40483734 13.9547316,1.90228175 C13.9531865,2.41215597 14.293707,3.00020886 14.8325098,3.00020886 C15.1468445,3.00020886 15.4050719,2.72699979 15.4050719,2.72699979 L15.4043893,2.93742168 L15.7744594,2.93742168 L15.7744594,0.869722264 L15.4030859,0.869722264 L15.4030859,1.13016917 C15.4030859,1.13016917 15.160585,0.809445489 14.8166569,0.809445489 L14.816655,0.809445489 Z M14.8887222,1.23028926 C15.1910216,1.23028926 15.4364328,1.53987389 15.4364328,1.9209482 C15.4364328,2.30202251 15.1910216,2.60991019 14.8887222,2.60991019 C14.5864229,2.60991019 14.342453,2.30202251 14.342453,1.9209482 C14.342453,1.53987389 14.5864229,1.23028926 14.8887222,1.23028926 Z" id="path3020"></path>
                                <path d="M18.3698986,0.809445489 C17.8072405,0.809445489 17.5094787,1.40483734 17.5079751,1.90228175 C17.50643,2.41215597 17.8469505,3.00020886 18.3857534,3.00020886 C18.700088,3.00020886 18.9583155,2.72699979 18.9583155,2.72699979 L18.9576328,2.93742168 L19.327703,2.93742168 L19.327703,0.0534851713 L18.9563294,0.0534851713 L18.9563294,1.13016917 C18.9563294,1.13016917 18.7138285,0.809445489 18.3699004,0.809445489 L18.3698986,0.809445489 Z M18.4419658,1.23028926 C18.7442651,1.23028926 18.9896763,1.53987389 18.9896763,1.9209482 C18.9896763,2.30202251 18.7442651,2.60991019 18.4419658,2.60991019 C18.1396664,2.60991019 17.8956966,2.30202251 17.8956966,1.9209482 C17.8956966,1.53987389 18.1396664,1.23028926 18.4419658,1.23028926 Z" id="path3022"></path>
                                <path d="M6.11116488,3.00536976 C5.72783898,3.00536976 5.37397737,2.72763567 5.37397737,2.72763567 L5.53615873,2.43254273 C5.53615873,2.43254273 5.87098261,2.6148061 6.11116488,2.6148061 C6.26721742,2.6148061 6.52821223,2.55547799 6.5313615,2.37178864 C6.53469158,2.1776477 6.09273505,2.12009148 6.09273505,2.12009148 C6.09273505,2.12009148 5.43295253,2.1094949 5.43295253,1.46915205 C5.43295253,1.06643551 5.76246582,0.809532916 6.18488372,0.809532916 C6.42896108,0.809532916 6.88521158,1.06122953 6.88521158,1.06122953 L6.70091471,1.39971825 C6.70091471,1.39971825 6.34863973,1.23402038 6.16276775,1.22613404 C6.00581396,1.21947494 5.81628997,1.3079515 5.81628997,1.46915205 C5.81628997,1.90711792 6.91469894,1.43502732 6.91469894,2.31971316 C6.91469894,2.90011429 6.46735247,3.00536976 6.11116488,3.00536976 Z" id="path3024"></path>
                                <path d="M7.52525485,0.271512114 L7.52525485,0.872232665 L7.19806985,0.872232665 L7.19806985,1.30665205 L7.52525485,1.30665205 L7.52525485,2.34518588 C7.52525485,2.34518588 7.49629791,3.04772348 8.13782587,3.04772348 C8.31519415,3.04772348 8.66247493,2.89330096 8.66247493,2.89330096 L8.51401654,2.44191207 C8.51401654,2.44191207 8.37591184,2.5806086 8.21998245,2.57597118 C7.92350338,2.56715735 7.93171374,2.34348893 7.93171374,2.34348893 L7.93171374,1.30665205 L8.54284342,1.30665205 L8.54284342,0.872232665 L7.93171374,0.872232665 L7.93171374,0.271512114 L7.52525485,0.271512114 Z" id="path3026"></path>
                                <path d="M9.75213068,0.834899749 C9.14881332,0.834899749 8.84737279,1.41995948 8.8498496,1.92773601 C8.85239559,2.44992765 9.12434553,3.03754177 9.78816427,3.03754177 C10.0722861,3.03754177 10.4713611,2.7439693 10.4713611,2.7439693 L10.2998412,2.3927005 C10.2998412,2.3927005 10.0275177,2.6200919 9.78816427,2.6200919 C9.30894866,2.6200919 9.27792864,2.06858292 9.27792864,2.06858292 L10.5607244,2.06858292 C10.5607244,2.06858292 10.656426,0.834899749 9.75213068,0.834899749 Z M9.69735963,1.24047097 C9.7115858,1.23952068 9.72683683,1.24047097 9.74204128,1.24047097 C10.193507,1.24047097 10.1902994,1.74276838 10.1902994,1.74276838 L9.27792864,1.74276838 C9.27792864,1.74276838 9.25634585,1.26998868 9.69735963,1.24047097 Z" id="path3034"></path>
                                <path d="M13.5678348,2.38738429 L13.7398542,2.79243421 C13.7398542,2.79243421 13.4672134,3.00109616 13.1612445,3.00109616 C12.5277885,3.00109616 12.1760435,2.43980514 12.1760435,1.90868889 C12.1760435,1.07396942 12.7358069,0.828555597 13.11433,0.828555597 C13.4579099,0.828555597 13.7554922,1.06176604 13.7554922,1.06176604 L13.5626225,1.46681596 C13.5626225,1.46681596 13.4456924,1.25201675 13.1039044,1.25201675 C12.7626869,1.25201675 12.5826343,1.59837932 12.5826343,1.92710013 C12.5826343,2.2954769 12.792208,2.60832022 13.1091172,2.60832022 C13.3577266,2.60832022 13.5678348,2.38738429 13.5678348,2.38738429 Z" id="path3037"></path>
                            </g>
                            <g id="g3064" transform="translate(19.901735, 2.646925)">
                                <g id="text3066">
                                    <path d="M0.217523761,0.00555463487 C0.16093859,0.00705532463 0.114325391,0.0274163068 0.0776840129,0.0666376554 C0.0410424742,0.105860351 0.0220795134,0.154943737 0.0207950717,0.213887968 C0.0220795134,0.272386429 0.0410424783,0.321342158 0.0776840266,0.360755288 C0.114325411,0.40016918 0.16093861,0.420657827 0.217523761,0.422221302 C0.272814217,0.420657827 0.318839112,0.400169173 0.355598589,0.360755273 C0.392357349,0.321342129 0.411437979,0.272386407 0.412840526,0.213887968 C0.411467391,0.154943737 0.392445592,0.105860344 0.355775069,0.0666376406 C0.319103822,0.0274162846 0.273020102,0.00705530243 0.217523761,0.00555463487 Z M0.217523761,0.37626542 C0.174410736,0.375116893 0.138857628,0.359287656 0.110864314,0.328777657 C0.0828707748,0.298268479 0.0683789235,0.259971958 0.0673887124,0.213887968 C0.068378944,0.167602858 0.0828708021,0.129327591 0.110864328,0.0990620565 C0.138857628,0.0687978021 0.174410736,0.0531175126 0.217523761,0.0520211362 C0.259734265,0.0531175348 0.294738283,0.0687978243 0.322535923,0.0990620713 C0.350332915,0.129327591 0.364746338,0.167602858 0.365776248,0.213887968 C0.364746338,0.259971973 0.350332915,0.298268501 0.322535936,0.328777657 C0.294738303,0.359287634 0.259734285,0.375116871 0.217523761,0.37626542 Z M0.22881919,0.11635937 L0.146456697,0.11635937 L0.146456697,0.309884699 L0.18457877,0.309884699 L0.18457877,0.237376529 L0.201992553,0.237376529 L0.256116476,0.309884699 L0.301768828,0.309884699 L0.24340912,0.236865909 C0.261636443,0.234387767 0.275657653,0.227983721 0.285472796,0.217653772 C0.295287359,0.207324858 0.300248721,0.194155117 0.300356895,0.178144503 C0.300229125,0.159039332 0.294012719,0.144018573 0.281707666,0.133082183 C0.269402047,0.122147007 0.251772571,0.116572738 0.22881919,0.11635937 Z M0.244227395,0.152613474 C0.25816378,0.152629432 0.269093991,0.155686 0.277018067,0.161783053 C0.284941482,0.167881789 0.288976828,0.176930368 0.289124218,0.188928779 C0.288976419,0.201276726 0.284941509,0.210537116 0.277018085,0.216709947 C0.269094019,0.222884368 0.25816378,0.225971105 0.244227395,0.225970368 L0.184578764,0.225970368 L0.184578764,0.152613411 L0.244227395,0.152613474 Z" id="path3078"></path>
                                </g>
                            </g>
                        </g>
                    </g>
                </g>
            </g>
        </g>
    </g>
</svg>