<?xml version="1.0" encoding="UTF-8"?>
<svg width="16px" height="16px" viewBox="0 0 16 16" version="1.1" xmlns="http://www.w3.org/2000/svg" xmlns:xlink="http://www.w3.org/1999/xlink">
    <!-- Generator: Sketch 50.2 (55047) - http://www.bohemiancoding.com/sketch -->
    <title>new shopping icon copy</title>
    <desc>Created with Sketch.</desc>
    <defs></defs>
    <g id="new-shopping-icon-copy" stroke="none" stroke-width="1" fill="none" fill-rule="evenodd">
        <g id="Group-33-Copy" transform="translate(0.000000, 2.000000)" fill="#22B3B3">
            <path d="M4.10090873,2.04281037e-14 C4.08883968,0.000625459776 4.07677217,0.00124931991 4.06530711,0.00312409959 L1.93171281,0.00312409959 C1.66379318,0.00312409959 1.43087735,0.129345402 1.27459605,0.308687594 C1.1177123,0.488023388 1.02598566,0.712964957 0.97289296,0.944177121 L0.0074304179,5.14387557 C0.000189451147,5.17199407 -0.00162067469,5.20073802 0.00139635618,5.22948198 C0.000792826424,5.2369811 0.000792826424,5.24447862 0.000792826424,5.25197614 C0.000792826424,5.97493405 0.366463578,6.64353616 0.963845421,7.00662276 C0.964449414,7.00724821 0.965655855,7.00724821 0.966258304,7.00724821 L0.966258304,13.750056 C0.966258304,13.8881499 1.07426958,14 1.20762386,14 L12.7931707,14 C12.9259225,14 13.0345362,13.8881499 13.0345362,13.750056 L13.0345362,7.00724821 L13.0351402,7.00662276 C13.6325219,6.64358415 14,5.97498204 14,5.25197614 C13.999396,5.24572794 13.999396,5.23885428 13.9987936,5.23260608 L13.9987936,5.2307313 L13.9987936,5.22635788 C14.0012064,5.19886484 13.999396,5.17074475 13.9933623,5.14387717 L13.0279,0.944178721 C12.9741956,0.712982553 12.8824767,0.488024988 12.7261969,0.308689194 C12.5699172,0.1293534 12.3363974,0.00312569924 12.0690802,0.00312569924 L9.93548587,0.00312569924 C9.92100393,0.000625459776 9.906522,1.59964139e-06 9.89204007,1.59964139e-06 C9.88057501,0.000625459776 9.86910995,0.00125091955 9.8576449,0.00312569924 L7.03911307,0.00312569924 C7.02463114,0.000625459776 7.0107532,1.59964139e-06 6.99627126,1.59964139e-06 C6.98420376,1.59964139e-06 6.97213471,0.00125091955 6.95946321,0.00312569924 L4.14154928,0.00312569924 C4.12827379,0.00125091955 4.11439585,1.59964139e-06 4.10112035,1.59964139e-06 L4.10090873,2.04281037e-14 Z M1.93163094,0.503007229 L3.83660378,0.503007229 L3.39731074,5.00199858 L0.535989169,5.00199858 L1.44231924,1.06032228 C1.48154172,0.887864946 1.55033052,0.737898567 1.63239944,0.643535723 C1.71446836,0.549172879 1.79773292,0.502941643 1.93169273,0.502941643 L1.93163094,0.503007229 Z M4.32242438,0.503007229 L6.75894211,0.503007229 L6.75894211,5.00199858 L3.88433624,5.00199858 L4.32242438,0.503007229 Z M7.24167323,0.503007229 L9.67772753,0.503007229 L10.1164027,5.00199858 L7.24179681,5.00199858 L7.24167323,0.503007229 Z M10.1633937,0.503007229 L12.0689844,0.503007229 C12.2023387,0.503007229 12.2843983,0.549246462 12.3664703,0.643601308 C12.4491386,0.737954555 12.5185314,0.887914535 12.5577554,1.06038787 L13.464085,5.00206417 L10.6027639,5.00206417 L10.1633937,0.503007229 Z M0.546154019,5.50188651 L3.31525418,5.50188651 C3.24163807,5.94365947 3.02862775,6.34795283 2.65330238,6.5760137 C2.20557506,6.84782476 1.65646648,6.84782476 1.20812127,6.5760137 C0.833398343,6.34793683 0.619791754,5.94428333 0.546154019,5.50188651 Z M3.92527184,5.50188651 L6.694372,5.50188651 C6.62075589,5.94365947 6.40774557,6.34795283 6.03242019,6.5760137 C5.58469288,6.84782476 5.0355843,6.84782476 4.58723909,6.5760137 C4.21251616,6.34793683 3.99890957,5.94428333 3.92527184,5.50188651 Z M7.30438965,5.50188651 L10.0734898,5.50188651 C9.9998737,5.94365947 9.78686338,6.34795283 9.41153801,6.5760137 C8.96381069,6.84782476 8.41470212,6.84782476 7.9663569,6.5760137 C7.59163398,6.34793683 7.37802739,5.94428333 7.30438965,5.50188651 Z M10.6835075,5.50188651 L13.4526076,5.50188651 C13.3789915,5.94365947 13.1659812,6.34795283 12.7906558,6.5760137 C12.3429285,6.84782476 11.7938199,6.84782476 11.3454747,6.5760137 C10.9707518,6.34793683 10.7571452,5.94428333 10.6835075,5.50188651 Z M3.61987682,6.22860358 C3.7864152,6.54603642 4.03321824,6.81847134 4.3427686,7.00655717 C4.94015029,7.36959578 5.67932362,7.36959578 6.27678255,7.00655717 C6.58693536,6.81847134 6.83193105,6.54603642 6.99907188,6.22860358 C7.16561025,6.54603642 7.41241329,6.81847134 7.72196365,7.00655717 C8.31934534,7.36959578 9.05851868,7.36959578 9.6559776,7.00655717 C9.96613041,6.81847134 10.2111261,6.54603642 10.3782669,6.22860358 C10.5448053,6.54603642 10.7916083,6.81847134 11.1011587,7.00655717 C11.5452713,7.27649665 12.0672234,7.34460938 12.5517619,7.2133908 L12.5517619,13.5001412 L1.44894617,13.5001412 L1.44894617,7.2133908 C1.93288218,7.34461098 2.45423179,7.27587599 2.89774197,7.00655717 C3.20789478,6.81847134 3.45289047,6.54603642 3.6200313,6.22860358 L3.61987682,6.22860358 Z M10.1808492,9.50098993 C10.1030082,9.49849129 10.0251704,9.50349017 9.94793338,9.51348793 C9.63958791,9.5559776 9.34452721,9.69970218 9.11281627,9.93964839 C8.64999685,10.4182931 8.55586042,11.163742 8.88291268,11.7504424 C9.20996494,12.3371909 9.87974858,12.6239906 10.5121495,12.4484139 C11.1439171,12.2734452 11.5862224,11.6785865 11.5862224,11.0006105 C11.5862224,10.8625167 11.4776087,10.7506666 11.3448568,10.7506666 L10.138029,10.7506666 C10.0728611,10.7500411 10.0107085,10.775661 9.96484828,10.8225257 C9.91898805,10.8693903 9.8930426,10.9337503 9.8930426,11.0006121 C9.8930426,11.0674755 9.91898959,11.1318323 9.96484828,11.1787002 C10.010707,11.2255681 10.0728596,11.2518086 10.138029,11.2505593 L11.0214347,11.2505593 C10.9309222,11.5848523 10.7239488,11.8729158 10.3878443,11.9660325 C9.96424583,12.0835069 9.52073565,11.8935495 9.30170703,11.5005033 C9.08206051,11.1074714 9.14422083,10.613822 9.45437055,10.2926476 C9.76392091,9.97209551 10.24123,9.90774194 10.6207725,10.1345583 C10.736024,10.2026678 10.8832547,10.1614275 10.9496321,10.0420798 C11.016008,9.92273218 10.9767855,9.77026876 10.8621365,9.70090831 C10.6491324,9.57406155 10.4150117,9.50783 10.1808755,9.50095314 L10.1808492,9.50098993 Z" id="Page-1"></path>
        </g>
        <g id="Group-2" transform="translate(9.000000, 4.000000)">
            <g id="Icon-Circle-Cross-Copy">
                <rect id="16X16" x="0" y="0" width="6.58823529" height="6.58823529"></rect>
                <g id="Shape-Circle-Cross" transform="translate(0.411765, 0.411765)">
                    <path d="M3.29411765,6.58823529 C1.47764706,6.58823529 0,5.11011765 0,3.29411765 C0,1.47764706 1.47764706,0 3.29411765,0 C5.11011765,0 6.58823529,1.47764706 6.58823529,3.29411765 C6.58823529,5.11011765 5.11011765,6.58823529 3.29411765,6.58823529" id="Fill-1" stroke="#F1F1F1" stroke-width="0.2" fill="#F7F7F7"></path>
                    <path d="M4.65407249,2.18389602 C4.69154308,2.14642543 4.7146019,2.09495484 4.7146019,2.03813131 C4.7146019,1.92448425 4.6223666,1.83224896 4.50871955,1.83224896 C4.45148425,1.83224896 4.40001366,1.85530778 4.36295484,1.89277837 L3.27342543,2.98230778 L2.18348425,1.89277837 C2.14642543,1.85571955 2.09495484,1.83224896 2.03813131,1.83224896 C1.92407249,1.83224896 1.83224896,1.92448425 1.83224896,2.03813131 C1.83224896,2.09495484 1.85530778,2.14642543 1.8923666,2.18389602 L2.98230778,3.27342543 L1.8923666,4.3633666 C1.85530778,4.40042543 1.83224896,4.45189602 1.83224896,4.50871955 C1.83224896,4.6223666 1.92407249,4.7146019 2.03813131,4.7146019 C2.09495484,4.7146019 2.14642543,4.69154308 2.18348425,4.65448425 L3.27342543,3.56454308 L4.36295484,4.65448425 C4.40042543,4.69154308 4.45189602,4.7146019 4.50871955,4.7146019 C4.6223666,4.7146019 4.7146019,4.6223666 4.7146019,4.50871955 C4.7146019,4.45189602 4.69154308,4.40042543 4.65407249,4.3633666 L3.56454308,3.27342543 L4.65407249,2.18389602 Z" id="Fill-3" fill="#22B3B3" opacity="0.98999995" transform="translate(3.273425, 3.273425) rotate(-315.000000) translate(-3.273425, -3.273425) "></path>
                </g>
            </g>
        </g>
    </g>
</svg>