<?xml version="1.0" encoding="UTF-8"?>
<svg width="23px" height="23px" viewBox="0 0 23 23" version="1.1" xmlns="http://www.w3.org/2000/svg" xmlns:xlink="http://www.w3.org/1999/xlink">
    <!-- Generator: Sketch 49.3 (51167) - http://www.bohemiancoding.com/sketch -->
    <title>not sure icon on copy</title>
    <desc>Created with Sketch.</desc>
    <defs></defs>
    <g id="Page-1" stroke="none" stroke-width="1" fill="none" fill-rule="evenodd">
        <g id="not-sure-icon-on" fill="#FFFFFF">
            <g id="Page-1">
                <path d="M11.5,23 C5.1589,23 0,17.8411 0,11.5 C0,5.1589 5.1589,0 11.5,0 C17.8411,0 23,5.1589 23,11.5 C23,17.8411 17.8411,23 11.5,23 Z M11.5,0.95864 C5.6879,0.95864 0.95863977,5.6879 0.95863977,11.5 C0.95863977,17.3121 5.6879,22.0413602 11.5,22.0413602 C17.3121,22.0413602 22.04136,17.3121 22.04136,11.5 C22.04136,5.6879 17.3121,0.95864 11.5,0.95864 Z" id="Fill-1"></path>
                <path d="M7.59433962,9.11320755 C6.99628755,9.11320755 6.50943396,8.62635396 6.50943396,8.02830189 C6.50943396,7.43024981 6.99628755,6.94339623 7.59433962,6.94339623 C8.1923917,6.94339623 8.67924528,7.43024981 8.67924528,8.02830189 C8.67924528,8.62635396 8.1923917,9.11320755 7.59433962,9.11320755 Z M7.59433962,7.66622113 C7.39499472,7.66622113 7.23293585,7.82827826 7.23293585,8.02830189 C7.23293585,8.22764679 7.39499298,8.38970566 7.59433962,8.38970566 C7.79368626,8.38970566 7.9557434,8.22764853 7.9557434,8.02830189 C7.9557434,7.82828 7.79368626,7.66622113 7.59433962,7.66622113 Z" id="Fill-2"></path>
                <path d="M15.4056604,9.11320755 C14.8076083,9.11320755 14.3207547,8.62635396 14.3207547,8.02830189 C14.3207547,7.43024981 14.8076083,6.94339623 15.4056604,6.94339623 C16.0037125,6.94339623 16.490566,7.43024981 16.490566,8.02830189 C16.490566,8.62635396 16.0037125,9.11320755 15.4056604,9.11320755 Z M15.4056604,7.66622113 C15.2063155,7.66622113 15.0442566,7.82827826 15.0442566,8.02830189 C15.0442566,8.22764679 15.2063137,8.38970566 15.4056604,8.38970566 C15.605007,8.38970566 15.7670642,8.22764853 15.7670642,8.02830189 C15.7670642,7.82828 15.605007,7.66622113 15.4056604,7.66622113 Z" id="Fill-3"></path>
                <path d="M6.99716974,16.4905556 C6.7655692,16.4905556 6.55959686,16.3685071 6.51748469,16.1935752 C6.46896781,15.9976192 6.64472812,15.8091272 6.91020353,15.7731785 L17.6507992,14.3268984 C17.9144396,14.2902831 18.1698311,14.4211479 18.2183644,14.6177861 C18.2668812,14.8137421 18.0911209,15.0022341 17.8256455,15.0381828 L7.08504989,16.4844629 C7.05484021,16.4892086 7.02554683,16.490566 6.99716974,16.490566 L6.99716974,16.4905556 Z" id="Fill-4"></path>
            </g>
        </g>
    </g>
</svg>