<?xml version="1.0" encoding="UTF-8"?>
<svg width="13px" height="16px" viewBox="0 0 13 16" version="1.1" xmlns="http://www.w3.org/2000/svg" xmlns:xlink="http://www.w3.org/1999/xlink">
    <!-- Generator: Sketch 49.3 (51167) - http://www.bohemiancoding.com/sketch -->
    <title>onboarding icon</title>
    <desc>Created with Sketch.</desc>
    <defs></defs>
    <g id="Page-1" stroke="none" stroke-width="1" fill="none" fill-rule="evenodd">
        <g id="icons" transform="translate(-65.000000, -667.000000)">
            <g id="onboarding-icon" transform="translate(63.000000, 666.000000)">
                <g id="Group-39">
                    <rect id="Rectangle-24" fill="#D8D8D8" opacity="0" x="0" y="0" width="16" height="16"></rect>
                    <g id="Page-1" transform="translate(2.000000, 1.000000)" fill="#9B9B9B">
                        <path d="M11.6286733,10.4931485 C11.2184079,10.1280475 10.7468673,9.80565545 10.2140673,9.53956436 C9.94550495,9.40466376 9.86629703,9.27223762 9.89538218,9.03893861 C10.0723644,7.6453703 10.0816475,6.25367129 9.70168713,4.8718099 C9.23201584,3.1607604 8.18807129,1.65406733 6.47206337,0.254780198 C6.31055842,0.12730297 6.016,0.109354455 5.77714059,0.303047921 C5.00486337,0.928663762 4.34520396,1.61059644 3.80929901,2.35374099 C2.85818614,3.6742796 2.39531089,5.08641426 2.27711683,6.5628499 C2.20100277,7.5090202 2.26659644,8.45275089 2.38417109,9.3958004 C2.39035881,9.44406812 2.35941861,9.51275564 2.31053307,9.54493465 C1.86066376,9.83702178 1.38603406,10.1092911 0.952861782,10.4137505 C0.424402376,10.7844119 0.157693465,11.2460515 0.143451881,11.7819406 C0.132313663,12.1866455 0.193576238,12.5851564 0.319198416,12.9781069 C0.628600396,13.9490218 1.15397069,14.8635718 1.74679446,15.7597301 C1.7907295,15.8265625 1.86003644,15.8946307 1.94234297,15.9354767 C2.20162218,16.0641895 2.4862796,15.995502 2.64593109,15.770249 C3.05806574,15.1879439 3.46647762,14.6050211 3.87241822,14.021497 C3.9237798,13.9472396 3.98256634,13.918156 4.1032301,13.918156 C4.63541228,13.9200127 5.16821228,13.9175366 5.70037861,13.918156 L5.70037861,15.5153041 C5.70037861,15.7826308 5.91696475,15.9998347 6.18490931,15.9998347 C6.45223604,15.9998347 6.66944,15.7832486 6.66944,15.5153041 L6.67129663,13.9175224 C7.22204515,13.916903 7.77277782,13.9187596 8.3229402,13.9175224 C8.44360871,13.916903 8.49992238,13.9478448 8.55128079,14.0221022 C8.92319366,14.5561372 9.29881347,15.0889372 9.68061149,15.6192501 C9.73568634,15.6959835 9.81241822,15.7789015 9.91018772,15.8228461 C10.1843263,15.9472279 10.4634075,15.8692572 10.6094511,15.6266798 C10.931859,15.089555 11.2660055,14.5561372 11.5494273,14.0084626 C11.8854432,13.3580863 12.1422511,12.6903952 12.191756,11.9911952 C12.2295034,11.4484943 12.1236863,10.9342606 11.6286352,10.4930566 L11.6286733,10.4931485 Z M3.13980198,13.5786139 C2.84400792,14.0099327 2.5408,14.438764 2.21962772,14.8985343 C1.69487525,14.0000158 1.20972673,13.1244356 1.09338614,12.1720396 C1.05068832,11.8267406 1.04635564,11.4783525 1.31553267,11.1646099 C1.53150099,10.9115089 2.13422574,10.4752475 2.51851089,10.2982653 C2.5655398,10.5259881 2.61195089,10.7487683 2.65774416,10.970297 C2.82482535,11.7908436 2.99190653,12.6106931 3.15650059,13.4312871 C3.16516436,13.4789354 3.16825822,13.5371042 3.13979248,13.5785648 L3.13980198,13.5786139 Z M8.59215842,11.398495 C8.4820103,11.9962614 8.37495446,12.5940436 8.26604356,13.1917624 C8.2629497,13.2084705 8.2573798,13.2251786 8.25057267,13.2480745 C7.72520238,13.2486923 7.19797861,13.2486923 6.67135683,13.2486923 L6.67135683,9.89597941 C6.67135683,9.62865267 6.45477069,9.41144871 6.18682614,9.41144871 C5.91949941,9.41144871 5.70229545,9.62803485 5.70229545,9.89597941 L5.70229545,13.2505933 C5.15959446,13.2512127 4.61627564,13.2512127 4.06871129,13.2518321 C3.96846416,12.7635945 3.86017267,12.2920539 3.77600634,11.818042 C3.59035881,10.7666836 3.37377267,9.71713109 3.24878257,8.66208158 C3.07365386,7.18002218 3.16400475,5.70477465 3.7518796,4.26239842 C4.19371723,3.17699644 4.89049347,2.18572515 5.85770139,1.29273505 C5.94557307,1.2116705 6.03034297,1.12999446 6.11759842,1.04829941 C6.12440554,1.0421101 6.13678099,1.03901624 6.16710337,1.02540356 C6.32180594,1.16649188 6.48517069,1.3057204 6.63306772,1.4529996 C7.43319446,2.24693228 8.04890931,3.10828673 8.45231525,4.04642535 C8.86939248,5.01795802 9.05008158,6.01490059 9.07607762,7.02907881 C9.11382495,8.49689663 8.85887366,9.94804911 8.59216475,11.3985046 L8.59215842,11.398495 Z M11.2567129,11.9690455 C11.2109212,12.6200396 10.9454574,13.2363723 10.644705,13.8453228 C10.4943335,14.1497822 10.3179723,14.4480472 10.1329426,14.7859165 C9.80312079,14.3149941 9.49804356,13.8830733 9.19792475,13.4492832 C9.17626614,13.418343 9.17502891,13.3750257 9.18183604,13.339135 C9.3860499,12.3156261 9.59210139,11.2927192 9.79878653,10.2698281 C9.80435485,10.2413624 9.81735129,10.213516 9.83282059,10.1683438 C10.304979,10.4486606 10.7554661,10.7240349 11.0611612,11.0965655 C11.2833077,11.3663636 11.2783651,11.6689695 11.2567097,11.9690883 L11.2567129,11.9690455 Z" id="Fill-1"></path>
                        <path d="M6.19374257,4.5569901 C5.81131089,4.5569901 5.43879604,4.70364832 5.14485545,4.96974257 C4.8595802,5.22778614 4.68632079,5.61145347 4.66775446,6.02171881 C4.6491897,6.43817822 4.79275406,6.84288317 5.06008713,7.13248317 C5.36392871,7.46106931 5.76614653,7.64239208 6.19065347,7.64239208 C6.57493861,7.64239208 6.94932277,7.49078337 7.24573465,7.21541386 C7.84969505,6.65291089 7.88497426,5.66528317 7.32184871,5.05826535 C7.02234772,4.73462178 6.6213497,4.55702178 6.19375366,4.55702178 L6.19374257,4.5569901 Z M5.72963168,5.5904 C5.85710733,5.47406416 6.02108515,5.41032871 6.1900198,5.41032871 C6.38184554,5.41032871 6.56006337,5.48891723 6.69311683,5.63185743 C6.94311287,5.89980198 6.92579802,6.3416396 6.6553695,6.59721188 C6.52418218,6.72097426 6.35957545,6.78903762 6.19002297,6.78903762 C6.00809822,6.78903762 5.83420515,6.71106693 5.70116752,6.5699802 C5.57864238,6.4400301 5.51304871,6.2556198 5.51986059,6.06441188 C5.52728554,5.87814653 5.6033996,5.70550495 5.72963485,5.5904 L5.72963168,5.5904 Z" id="Fill-2"></path>
                    </g>
                </g>
            </g>
        </g>
    </g>
</svg>