<?xml version="1.0" encoding="UTF-8"?>
<svg width="16px" height="16px" viewBox="0 0 16 16" version="1.1" xmlns="http://www.w3.org/2000/svg" xmlns:xlink="http://www.w3.org/1999/xlink">
    <!-- Generator: Sketch 50.2 (55047) - http://www.bohemiancoding.com/sketch -->
    <title>payments icon on</title>
    <desc>Created with Sketch.</desc>
    <defs></defs>
    <g id="payments-icon-on" stroke="none" stroke-width="1" fill="none" fill-rule="evenodd">
        <g id="Page-1" fill="#22B3B3">
            <path d="M3.50561616,12.9408696 L2.37430303,12.9408696 C2.1508202,12.9408696 1.97026263,13.1351652 1.97026263,13.3756522 C1.97026263,13.6154609 2.1508202,13.8104348 2.37430303,13.8104348 L3.50561616,13.8104348 C3.72846869,13.8104348 3.90965657,13.6154609 3.90965657,13.3756522 C3.90965657,13.1351652 3.72846869,12.9408696 3.50561616,12.9408696 Z" id="Fill-1"></path>
            <path d="M6.23870707,12.9408696 L5.10739394,12.9408696 C4.88391111,12.9408696 4.70335354,13.1351652 4.70335354,13.3756522 C4.70335354,13.6154609 4.88391111,13.8104348 5.10739394,13.8104348 L6.23870707,13.8104348 C6.4615596,13.8104348 6.64274747,13.6154609 6.64274747,13.3756522 C6.64274747,13.1351652 6.4615596,12.9408696 6.23870707,12.9408696 Z" id="Fill-2"></path>
            <path d="M8.97292929,12.9408696 L7.84161616,12.9408696 C7.61876364,12.9408696 7.43757576,13.1351652 7.43757576,13.3756522 C7.43757576,13.6154609 7.61876364,13.8104348 7.84161616,13.8104348 L8.97292929,13.8104348 C9.19641212,13.8104348 9.3769697,13.6154609 9.3769697,13.3756522 C9.3769697,13.1351652 9.19641212,12.9408696 8.97292929,12.9408696 Z" id="Fill-3"></path>
            <path d="M3.77519192,8.54417391 L2.80549495,8.54417391 C2.3446303,8.54553217 1.97089293,8.94702609 1.97026263,9.44363478 L1.97026263,10.0346609 C1.97089455,10.5312696 2.3446303,10.9327652 2.80549495,10.9341217 L3.77519192,10.9341217 C4.23668687,10.9327635 4.60979394,10.5312696 4.61105455,10.0346609 L4.61105455,9.44363478 C4.60979232,8.94702609 4.23668687,8.54553043 3.77519192,8.54417391 Z M3.80297051,10.0346609 C3.80297051,10.0509652 3.79034343,10.064553 3.77519192,10.064553 L2.80549495,10.064553 C2.79034343,10.064553 2.77834828,10.050967 2.77834828,10.0346609 L2.77834828,9.44363478 C2.77834828,9.42733043 2.79034343,9.41374261 2.80549495,9.41374261 L3.77519192,9.41374261 C3.79034343,9.41374261 3.80297051,9.42733043 3.80297051,9.44363478 L3.80297051,10.0346609 Z" id="Fill-4"></path>
            <path d="M15.0156761,3.91918367 L7.20638319,0.131183673 C6.86799127,-0.0318598052 6.48352259,-0.0434076313 6.13693673,0.0992549774 C5.79098117,0.241917586 5.51193471,0.526559325 5.36104986,0.891376717 L3.10795895,6.28268106 L1.41729293,6.28268106 C0.636993939,6.28336106 0.00378165657,6.96271585 0,7.80238541 L0,14.3921245 C0.000631272727,15.2338287 0.63510303,15.9165765 1.41729293,15.9172548 L9.93624178,15.9172548 C10.7184317,15.9165755 11.3529044,15.2338287 11.3535347,14.3921245 L11.3535347,12.7066637 C12.0523953,13.0402289 12.8705771,12.7059837 13.1882014,11.9573419 L15.7153933,5.90499411 C16.0316761,5.14887237 15.7185497,4.25962019 15.0159024,3.91925498 L15.0156761,3.91918367 Z M6.87491006,0.931357586 L14.6842014,4.71187933 C14.9796519,4.85522193 15.1115953,5.22887063 14.9783913,5.54680106 L14.6873529,6.24245324 L5.80848582,1.94158367 L6.0995242,1.2459315 L6.09889228,1.2459315 C6.23336178,0.929357586 6.57995895,0.788731499 6.87477915,0.931392369 L6.87491006,0.931357586 Z M10.5453747,14.3918793 C10.5447428,14.753288 10.2720171,15.0467666 9.93616259,15.0474449 L1.41721261,15.0474449 C1.08135806,15.0467656 0.808630788,14.753288 0.808000485,14.3918793 L0.808000485,7.80214019 C0.808631758,7.4407315 1.08135806,7.14725324 1.41721261,7.14657498 L9.93616259,7.14657498 C10.2720171,7.14725498 10.5447444,7.4407315 10.5453747,7.80214019 L10.5453747,14.3918793 Z M12.4443646,11.5936185 C12.3111573,11.9115489 11.9639282,12.0535315 11.6684777,11.9101924 L11.3452454,11.7553019 L11.3452454,7.80225846 C11.3446135,6.96055411 10.7101424,6.27780628 9.92795248,6.27712802 L3.99486158,6.27712802 L5.47718885,2.73973672 L14.3560575,7.03521498 L12.4443646,11.5936185 Z" id="Fill-5"></path>
        </g>
    </g>
</svg>