<?xml version="1.0" encoding="UTF-8"?>
<svg width="72px" height="72px" viewBox="0 0 72 72" version="1.1" xmlns="http://www.w3.org/2000/svg" xmlns:xlink="http://www.w3.org/1999/xlink">
    <!-- Generator: Sketch 50 (54983) - http://www.bohemiancoding.com/sketch -->
    <title>sad face</title>
    <desc>Created with Sketch.</desc>
    <defs></defs>
    <g id="sad-face" stroke="none" stroke-width="1" fill="none" fill-rule="evenodd">
        <g id="Page-1" fill="#9B9B9B">
            <path d="M36.0033488,0 C16.1330233,0 0,16.1229767 0,35.9966512 C0,55.8669767 16.1330233,72 36.0033488,72 C55.8770233,72 72,55.8669767 72,35.9966512 C72,16.1229767 55.8770233,0 36.0033488,0 Z M36.0033488,1.68747907 C54.9619535,1.68747907 70.312186,17.0352 70.312186,35.9963163 C70.312186,54.9549209 54.9644651,70.3118495 36.0033488,70.3118495 C17.0447442,70.3118495 1.68781647,54.9540837 1.68781647,35.9963163 C1.68781647,17.0377116 17.0455814,1.68747907 36.0033488,1.68747907 Z" id="Fill-1"></path>
            <path d="M21.7933953,21.676186 C18.7454512,21.676186 16.2566791,24.1649581 16.2566791,27.2129023 C16.2566791,30.2510512 18.7454512,32.7398233 21.7933953,32.7398233 C24.8413395,32.7398233 27.3203163,30.2510512 27.3203163,27.2129023 C27.3203163,24.1682233 24.8414233,21.676186 21.7933953,21.676186 Z M21.7933953,23.3636651 C23.9289488,23.3636651 25.6327535,25.0740837 25.6327535,27.2129023 C25.6327535,29.3386605 23.9288651,31.0522605 21.7933953,31.0522605 C19.6579256,31.0522605 17.9441581,29.3385767 17.9441581,27.2129023 C17.9441581,25.0773488 19.6578419,23.3636651 21.7933953,23.3636651 Z" id="Fill-2"></path>
            <path d="M50.2133023,22.176186 C47.4415005,22.176186 45.176586,24.4411005 45.176586,27.2129023 C45.176586,29.9762908 47.4428846,32.2398233 50.2133023,32.2398233 C52.9815902,32.2398233 55.2402233,29.9784267 55.2402233,27.2129023 C55.2402233,24.4410252 52.9818551,22.176186 50.2133023,22.176186 Z M50.2133023,22.8636651 C52.6245613,22.8636651 54.5526605,24.7975011 54.5526605,27.2129023 C54.5526605,29.6179703 52.6217532,31.5522605 50.2133023,31.5522605 C47.8033296,31.5522605 45.8640651,29.6164399 45.8640651,27.2129023 C45.8640651,24.8012065 47.8016065,22.8636651 50.2133023,22.8636651 Z" id="Fill-3" stroke="#979797"></path>
            <path d="M36.0033488,44.9899535 C29.3612651,44.9899535 23.6645581,48.8097209 21.6435349,54.231907 C21.5061823,54.7453507 21.6664326,55.0560391 22.1373544,55.3274791 C22.5657712,55.4419423 23.1119498,55.2522558 23.2263963,54.820574 C24.9727312,50.1341274 30.005866,46.677374 36.0038847,46.677374 C42.0017358,46.677374 47.0282567,50.1308623 48.781373,54.820574 C49.0626251,55.3340177 49.4681442,55.4386688 49.87368,55.3307526 C50.3478837,55.2032121 50.501587,54.7486326 50.3642344,54.2319153 C48.3365972,48.8129107 42.6495181,44.9933107 36.0077693,44.9933107 L36.0033488,44.9899535 Z" id="Fill-4"></path>
        </g>
    </g>
</svg>