<?xml version="1.0" encoding="UTF-8"?>
<svg width="16px" height="16px" viewBox="0 0 16 16" version="1.1" xmlns="http://www.w3.org/2000/svg" xmlns:xlink="http://www.w3.org/1999/xlink">
    <!-- Generator: Sketch 49.3 (51167) - http://www.bohemiancoding.com/sketch -->
    <title>settings icon</title>
    <desc>Created with Sketch.</desc>
    <defs></defs>
    <g id="Page-1" stroke="none" stroke-width="1" fill="none" fill-rule="evenodd">
        <g id="icons" transform="translate(-208.000000, -305.000000)">
            <g id="settings-icon" transform="translate(208.000000, 305.000000)">
                <g id="Page-1">
                    <path d="M15.1744,6.22064 L13.678144,6.22064 C13.448144,6.2181408 13.241888,6.0775152 13.155024,5.864384 C13.0681488,5.65064 13.1168992,5.406256 13.280024,5.243136 L14.3394,4.18376 C14.660024,3.861888 14.660024,3.341264 14.3394,3.019392 L12.988776,1.668768 C12.663144,1.356896 12.1494,1.356896 11.823784,1.668768 L10.756904,2.720016 C10.592536,2.88376 10.34628,2.932512 10.131912,2.8437664 C9.918168,2.754392 9.778792,2.5456384 9.779416,2.3137664 L9.779416,0.8256384 C9.779416,0.3718944 9.413784,0.0037664 8.96004,6.4e-06 L7.04004,6.4e-06 C6.583784,6.4e-06 6.214408,0.3693824 6.214408,0.8256384 L6.214408,2.3218944 C6.209408,2.5493984 6.0700336,2.7518944 5.8594,2.8387744 C5.648776,2.925024 5.406904,2.8781488 5.243144,2.720024 L4.183768,1.660648 C3.858776,1.348776 3.345016,1.348776 3.0194,1.660648 L1.668776,3.011272 C1.34815152,3.333144 1.34815152,3.853768 1.668776,4.176264 L2.720024,5.243144 C2.883768,5.407512 2.93252,5.653768 2.8437744,5.868136 C2.7544,6.08188 2.5456464,6.221256 2.3137744,6.220632 L0.82564592,6.220632 C0.37190192,6.220632 0.0037739376,6.586264 1.39427184e-05,7.040008 L1.39427184e-05,8.960008 C1.39427184e-05,9.416264 0.36938992,9.78564 0.82564592,9.78564 L2.3219024,9.78564 C2.5550224,9.7812656 2.7668944,9.9218896 2.8525264,10.139384 C2.943152,10.352504 2.8900272,10.599384 2.7200272,10.756888 L1.6606512,11.816264 C1.34002672,12.138136 1.34002672,12.65876 1.6606512,12.980632 L3.0112752,14.331256 C3.3369072,14.6431282 3.8506512,14.6431282 4.1762672,14.331256 L5.2431472,13.280008 C5.4075152,13.116264 5.6537712,13.067512 5.8681392,13.1562576 C6.0818832,13.245632 6.2212592,13.4543856 6.2206352,13.6862576 L6.2206352,15.1825136 C6.2250096,15.6325136 6.5893872,15.9962576 7.0400112,16.0000176 L8.9600112,16.0000176 C9.1787632,16.0000176 9.3887632,15.9131424 9.5437552,15.7581456 C9.6987472,15.6031488 9.7856272,15.3931536 9.7856272,15.1744016 L9.7856272,13.6781456 C9.7812512,13.4450256 9.9218768,13.2331536 10.1393712,13.1475216 C10.3531152,13.051272 10.6043632,13.101272 10.7650032,13.271896 L11.8243792,14.331272 L11.8237536,14.331272 C12.1493856,14.643144 12.6631296,14.643144 12.9887456,14.331272 L14.3393696,12.980648 C14.6599936,12.658776 14.6599936,12.138152 14.3393696,11.81628 L13.2799936,10.756904 C13.1162496,10.592536 13.0674976,10.34628 13.1562432,10.131912 C13.2456176,9.918168 13.4543712,9.778792 13.6862432,9.779416 L15.1824992,9.779416 C15.6324992,9.7750416 15.9962432,9.410664 16,8.96004 L16,7.04004 C15.9975024,6.586296 15.6281312,6.22004 15.1743712,6.220664 L15.1744,6.22064 Z M15.406272,8.95184 C15.406896,9.0137152 15.3825216,9.0730896 15.3387728,9.116208 C15.295648,9.1599584 15.236272,9.1843328 15.1744048,9.1837088 L13.6781488,9.1837088 C13.2062768,9.1843344 12.7806448,9.4687008 12.6000208,9.9049568 C12.4193968,10.3412128 12.5187712,10.8437088 12.8525168,11.1774528 L13.9200208,12.2349568 C14.0106464,12.3255824 14.0106464,12.4724608 13.9200208,12.5630848 L12.5693968,13.9105888 C12.4787712,14.0005888 12.3325168,14.0005888 12.2418928,13.9105888 L11.1825168,12.8512128 C10.8481488,12.5174688 10.3462608,12.4174688 9.9100208,12.5980928 C9.4737648,12.7787168 9.1887728,13.2043488 9.1887728,13.6768448 L9.1887728,15.173101 L9.1887728,15.172476 C9.1893968,15.2343512 9.1650224,15.2937256 9.121272,15.337468 C9.0775216,15.3805928 9.0187728,15.4049688 8.956904,15.4049688 L7.040104,15.4049688 C6.9782288,15.4049688 6.9194784,15.3805944 6.875736,15.337468 C6.8319856,15.2937176 6.8076112,15.2343432 6.8082352,15.172476 L6.8082352,13.6749728 C6.8138592,13.2012288 6.5269872,12.7724752 6.0863632,12.5968448 C5.6507312,12.4131008 5.1469872,12.5130944 4.8144912,12.8493408 L3.7551152,13.9087168 C3.6644896,13.9993424 3.5176112,13.9993424 3.4276112,13.9087168 L2.0894832,12.5599648 C1.9994832,12.4693392 1.9994832,12.3224608 2.0894832,12.2318368 L3.1488592,11.1724608 C3.4838672,10.8393408 3.5838672,10.3374528 3.4032272,9.9005888 C3.2219792,9.4643328 2.7957232,9.1805888 2.3232272,9.1824608 L0.82759456,9.1824608 C0.76571936,9.1830848 0.70634496,9.1587104 0.66260256,9.11496 C0.61947776,9.0712096 0.59510176,9.0118352 0.59510176,8.950592 L0.59510176,7.040032 C0.59510176,6.9781568 0.61947616,6.9194064 0.66260256,6.875664 C0.70635296,6.8319136 0.76572736,6.8075392 0.82759456,6.8081632 L2.3238512,6.8081632 L2.3232256,6.8081632 C2.7957216,6.8075376 3.2213536,6.5231712 3.4019776,6.0869152 C3.5826016,5.6506592 3.4826032,5.1481632 3.1488576,4.8144176 L2.0894816,3.7550432 C1.9994816,3.6644176 1.9994816,3.5175376 2.0894816,3.4275376 L3.4401056,2.0800352 C3.5307312,1.9894096 3.6776096,1.9894096 3.7682336,2.0800352 L4.8276096,3.1394112 C5.1613536,3.4731552 5.6632416,3.5725312 6.1001056,3.3919072 C6.5363616,3.2112832 6.8207296,2.7856512 6.8207296,2.3137792 L6.8207296,0.8194112 C6.8207296,0.757536 6.84448,0.6981616 6.8882304,0.6544192 C6.9319808,0.6112944 6.9913552,0.5869184 7.0525984,0.587544 L8.9601184,0.587544 C9.0219936,0.5869184 9.080744,0.6112944 9.1244864,0.6544192 C9.1682368,0.6981696 9.1926112,0.757544 9.1919872,0.8194112 L9.1919872,2.3156672 L9.1919872,2.3150416 C9.1926112,2.7875376 9.4769792,3.2131696 9.9132352,3.3937936 C10.3494912,3.5744176 10.8519872,3.4744192 11.1857312,3.1406736 L12.2451072,2.0800496 C12.3357328,1.989424 12.4826112,1.989424 12.5726112,2.0800496 L13.9201152,3.4306736 C14.0107408,3.5212992 14.0107408,3.6675536 13.9201152,3.7581776 L12.8607392,4.8175536 C12.5269952,5.1519216 12.4276192,5.6538096 12.6082432,6.0900496 C12.7888672,6.5263056 13.2144992,6.8112976 13.6863712,6.8112976 L15.1838752,6.8112976 C15.2451248,6.810672 15.3038752,6.8344224 15.3476192,6.8775472 C15.390744,6.920672 15.415744,6.9787968 15.4163696,7.0400432 L15.4163696,8.9518832 L15.406272,8.95184 Z" id="Fill-1" fill="#9B9B9B"></path>
                    <path d="M8,5.33248 C7.29312,5.3331056 6.615632,5.614352 6.11632,6.114352 C5.61632,6.614352 5.335696,7.291856 5.33632,7.998672 C5.33632,8.705552 5.616944,9.383664 6.116944,9.882992 C6.61632,10.382992 7.294448,10.663616 8.001264,10.663616 C8.708144,10.6642416 9.385632,10.383616 9.885584,9.883616 C10.385584,9.38424 10.666832,8.706736 10.667456,7.999936 C10.667456,7.292432 10.386208,6.614304 9.886208,6.113696 C9.385584,5.613696 8.707456,5.332448 7.999968,5.332448 L8,5.33248 Z M8,10.08 C7.158752,10.08 6.4,9.57312 6.07808,8.796256 C5.756208,8.018752 5.9343296,7.124416 6.529328,6.529376 C7.1243264,5.934336 8.018704,5.756256 8.796208,6.078128 C9.573088,6.4 10.079952,7.158752 10.079952,8.000048 C10.079952,9.1488 9.148704,10.080048 7.999952,10.080048 L8,10.08 Z" id="Fill-2" fill="#A7A7A7"></path>
                </g>
            </g>
        </g>
    </g>
</svg>