<?xml version="1.0" encoding="UTF-8"?>
<svg width="16px" height="16px" viewBox="0 0 16 16" version="1.1" xmlns="http://www.w3.org/2000/svg" xmlns:xlink="http://www.w3.org/1999/xlink">
    <!-- Generator: sketchtool 50 (54983) - http://www.bohemiancoding.com/sketch -->
    <title>A2BA6301-7233-478F-A324-B82C52CCBD5E</title>
    <desc>Created with sketchtool.</desc>
    <defs></defs>
    <g id="Page-1" stroke="none" stroke-width="1" fill="none" fill-rule="evenodd">
        <g id="icons" transform="translate(-64.000000, -353.000000)">
            <g id="shopping-icon" transform="translate(64.000000, 353.000000)">
                <g id="Group-33">
                    <path d="M4.68675283,2.13162821e-14 C4.67295963,0.000714811172 4.65916819,0.00142779418 4.64606527,0.00357039954 L2.20767179,0.00357039954 C1.90147792,0.00357039954 1.6352884,0.147823316 1.4566812,0.352785822 C1.27738548,0.557741015 1.17255504,0.814817094 1.11187767,1.07905957 L0.00849190617,5.87871494 C0.000216515596,5.91085036 -0.00185219964,5.9437006 0.00159583563,5.97655083 C0.000906087342,5.98512126 0.000906087342,5.99368985 0.000906087342,6.00225844 C0.000906087342,6.82849606 0.418815518,7.59261275 1.10153762,8.00756886 C1.1022279,8.00828367 1.10360669,8.00828367 1.1042952,8.00828367 L1.1042952,15.7143498 C1.1042952,15.8721713 1.22773667,16 1.38014156,16 L14.6207665,16 C14.7724828,16 14.8966128,15.8721713 14.8966128,15.7143498 L14.8966128,8.00828367 L14.8973031,8.00756886 C15.580025,7.5926676 16,6.82855091 16,6.00225844 C15.9993097,5.99511764 15.9993097,5.98726203 15.9986212,5.98012123 L15.9986212,5.97797863 L15.9986212,5.97298043 C16.0013788,5.94155982 15.9993097,5.90942257 15.992414,5.87871677 L14.8890286,1.07906139 C14.8276521,0.814837204 14.7228305,0.557742843 14.5442251,0.35278765 C14.3656196,0.147832457 14.0987398,0.0035722277 13.7932345,0.0035722277 L11.354841,0.0035722277 C11.3382902,0.000714811172 11.3217394,1.82816158e-06 11.3051886,1.82816158e-06 C11.2920857,0.000714811172 11.2789828,0.00142962234 11.2658799,0.0035722277 L8.04470065,0.0035722277 C8.02814987,0.000714811172 8.01228937,1.82816158e-06 7.99573859,1.82816158e-06 C7.98194715,1.82816158e-06 7.96815395,0.00142962234 7.95367224,0.0035722277 L4.73319918,0.0035722277 C4.71802719,0.00142962234 4.70216668,1.82816158e-06 4.68699469,1.82816158e-06 L4.68675283,2.13162821e-14 Z M2.20757822,0.574865404 L4.38469004,0.574865404 L3.88264085,5.71656981 L0.61255905,5.71656981 L1.64836484,1.21179689 C1.69319053,1.0147028 1.7718063,0.843312648 1.86559936,0.735469398 C1.95939242,0.627626147 2.0545519,0.57479045 2.20764884,0.57479045 L2.20757822,0.574865404 Z M4.93991358,0.574865404 L7.72450527,0.574865404 L7.72450527,5.71656981 L4.43924141,5.71656981 L4.93991358,0.574865404 Z M8.27619797,0.574865404 L11.06026,0.574865404 L11.5616031,5.71656981 L8.27633921,5.71656981 L8.27619797,0.574865404 Z M11.615307,0.574865404 L13.793125,0.574865404 C13.9455299,0.574865404 14.0393124,0.627710242 14.133109,0.735544352 C14.227587,0.843376634 14.306893,1.01475947 14.3517205,1.21187185 L15.3875258,5.71664476 L12.1174445,5.71664476 L11.615307,0.574865404 Z M0.624176022,6.2878703 L3.78886192,6.2878703 C3.70472922,6.79275367 3.46128886,7.25480323 3.03234557,7.51544422 C2.52065721,7.82608544 1.89310455,7.82608544 1.38071002,7.51544422 C0.952455249,7.25478495 0.708333434,6.79346666 0.624176022,6.2878703 Z M4.48602496,6.2878703 L7.65071085,6.2878703 C7.56657816,6.79275367 7.32313779,7.25480323 6.89419451,7.51544422 C6.38250614,7.82608544 5.75495348,7.82608544 5.24255895,7.51544422 C4.81430418,7.25478495 4.57018237,6.79346666 4.48602496,6.2878703 Z M8.34787389,6.2878703 L11.5125598,6.2878703 C11.4284271,6.79275367 11.1849867,7.25480323 10.7560434,7.51544422 C10.2443551,7.82608544 9.61680242,7.82608544 9.10440789,7.51544422 C8.67615312,7.25478495 8.4320313,6.79346666 8.34787389,6.2878703 Z M12.2097228,6.2878703 L15.3744087,6.2878703 C15.290276,6.79275367 15.0468357,7.25480323 14.6178924,7.51544422 C14.106204,7.82608544 13.4786514,7.82608544 12.9662568,7.51544422 C12.538002,7.25478495 12.2938802,6.79346666 12.2097228,6.2878703 Z M4.13700208,7.11840409 C4.32733165,7.48118448 4.60939227,7.79253867 4.96316411,8.00749391 C5.64588604,8.42239518 6.49065557,8.42239518 7.17346577,8.00749391 C7.52792612,7.79253867 7.80792121,7.48118448 7.99893929,7.11840409 C8.18926886,7.48118448 8.47132948,7.79253867 8.82510132,8.00749391 C9.50782325,8.42239518 10.3525928,8.42239518 11.035403,8.00749391 C11.3898633,7.79253867 11.6698584,7.48118448 11.8608765,7.11840409 C12.0512061,7.48118448 12.3332667,7.79253867 12.6870385,8.00749391 C13.1945958,8.31599617 13.7911124,8.39383929 14.3448707,8.2438752 L14.3448707,15.4287328 L1.65593848,15.4287328 L1.65593848,8.2438752 C2.20900821,8.39384112 2.80483633,8.31528685 3.3117051,8.00749391 C3.66616546,7.79253867 3.94616054,7.48118448 4.13717862,7.11840409 L4.13700208,7.11840409 Z M11.6352562,10.8582742 C11.5462951,10.8554186 11.4573376,10.8611316 11.3690667,10.8725576 C11.0166719,10.9211173 10.6794597,11.0853739 10.4146472,11.3595982 C9.88571068,11.9066207 9.77812619,12.7585622 10.1519002,13.429077 C10.5256742,14.0996467 11.2911412,14.4274178 12.0138852,14.2267588 C12.7359053,14.0267945 13.241397,13.346956 13.241397,12.5721263 C13.241397,12.4143048 13.117267,12.2864761 12.9655507,12.2864761 L11.5863189,12.2864761 C11.5118413,12.2857613 11.4408097,12.3150411 11.388398,12.3686007 C11.3359863,12.4221604 11.3063344,12.4957146 11.3063344,12.5721281 C11.3063344,12.6485435 11.3359881,12.7220941 11.388398,12.7756574 C11.440808,12.8292207 11.5118395,12.8592098 11.5863189,12.857782 L12.5959254,12.857782 C12.4924825,13.2398312 12.2559414,13.5690466 11.8718221,13.6754657 C11.3877095,13.8097222 10.8808407,13.592628 10.6305223,13.1434323 C10.3794977,12.694253 10.4505381,12.1300823 10.8049949,11.7630259 C11.1587668,11.3966806 11.7042628,11.3231336 12.1380257,11.5823523 C12.2697417,11.6601918 12.4380053,11.61306 12.5138653,11.4766627 C12.5897235,11.3402653 12.5448978,11.1660214 12.4138703,11.0867524 C12.170437,10.9417846 11.9028705,10.8660914 11.6352863,10.8582322 L11.6352562,10.8582742 Z" id="Page-1" fill="#9B9B9B"></path>
                    <rect id="Rectangle-2" x="0" y="0" width="16" height="16"></rect>
                </g>
            </g>
        </g>
    </g>
</svg>