<?xml version="1.0" encoding="UTF-8"?>
<svg width="16px" height="16px" viewBox="0 0 16 16" version="1.1" xmlns="http://www.w3.org/2000/svg" xmlns:xlink="http://www.w3.org/1999/xlink">
    <!-- Generator: Sketch 49.3 (51167) - http://www.bohemiancoding.com/sketch -->
    <title>star icon</title>
    <desc>Created with Sketch.</desc>
    <defs>
        <polygon id="path-1" points="16 7.99995 16 0 0 0 0 7.99995 0 15.9999 16 15.9999"></polygon>
    </defs>
    <g id="Page-1" stroke="none" stroke-width="1" fill="none" fill-rule="evenodd">
        <g id="icons" transform="translate(-160.000000, -718.000000)">
            <g id="star-icon" transform="translate(160.000000, 718.000000)">
                <g id="Icon-Star">
                    <rect id="16X16" x="0" y="0" width="16" height="16"></rect>
                    <g id="Shape-Star">
                        <mask id="mask-2" fill="white">
                            <use xlink:href="#path-1"></use>
                        </mask>
                        <g id="Clip-2"></g>
                        <path d="M11.624,9.6709 L11.628,9.6739 C11.551,9.7619 11.5,9.8739 11.5,9.9999 C11.5,10.0309 11.512,10.0579 11.518,10.0879 L11.508,10.0899 L12.329,14.6049 L8.224,12.5529 L8.221,12.5569 C8.154,12.5239 8.081,12.4999 8,12.4999 C7.919,12.4999 7.846,12.5239 7.779,12.5569 L7.776,12.5529 L3.671,14.6059 L4.492,10.0899 L4.482,10.0879 C4.488,10.0589 4.5,10.0309 4.5,9.9999 C4.5,9.8739 4.449,9.7619 4.372,9.6749 L4.376,9.6709 L1.515,6.4009 L5.55,5.9979 L5.549,5.9899 C5.722,5.9719 5.868,5.8699 5.943,5.7209 L5.947,5.7239 L8,1.6179 L10.053,5.7239 L10.057,5.7209 C10.132,5.8699 10.278,5.9719 10.451,5.9899 L10.45,5.9979 L14.485,6.4009 L11.624,9.6709 Z M15.872,6.3259 C15.949,6.2379 16,6.1259 16,5.9999 C16,5.7409 15.801,5.5359 15.549,5.5099 L15.55,5.5029 L10.824,5.0299 L8.447,0.2759 L8.443,0.2789 C8.36,0.1149 8.195,-0.0001 8,-0.0001 C7.804,-0.0001 7.64,0.1149 7.557,0.2789 L7.553,0.2759 L5.176,5.0299 L0.45,5.5029 L0.451,5.5099 C0.199,5.5359 0,5.7409 0,5.9999 C0,6.1259 0.051,6.2379 0.128,6.3259 L0.124,6.3289 L3.465,10.1479 L2.508,15.4099 L2.518,15.4119 C2.512,15.4419 2.5,15.4689 2.5,15.4999 C2.5,15.7759 2.724,15.9999 3,15.9999 C3.081,15.9999 3.154,15.9769 3.221,15.9429 L3.224,15.9469 L8,13.5589 L12.776,15.9469 L12.779,15.9429 C12.846,15.9769 12.919,15.9999 13,15.9999 C13.276,15.9999 13.5,15.7759 13.5,15.4999 C13.5,15.4689 13.488,15.4419 13.482,15.4119 L13.492,15.4099 L12.535,10.1469 L15.876,6.3289 L15.872,6.3259 Z" id="Fill-1" fill="#9B9B9B" mask="url(#mask-2)"></path>
                    </g>
                </g>
            </g>
        </g>
    </g>
</svg>