<?xml version="1.0" encoding="UTF-8"?>
<svg width="16px" height="16px" viewBox="0 0 16 16" version="1.1" xmlns="http://www.w3.org/2000/svg" xmlns:xlink="http://www.w3.org/1999/xlink">
    <!-- Generator: Sketch 49.3 (51167) - http://www.bohemiancoding.com/sketch -->
    <title>warning icon</title>
    <desc>Created with Sketch.</desc>
    <defs></defs>
    <g id="Page-1" stroke="none" stroke-width="1" fill="none" fill-rule="evenodd">
        <g id="Iconografía-Copy-3" transform="translate(-46.000000, -257.000000)">
            <g id="warning-icon" transform="translate(46.000000, 257.000000)">
                <g id="Icon-Circle-Info">
                    <rect id="16X16" x="0" y="0" width="16" height="16"></rect>
                    <g id="Shape-Circle-Info">
                        <path d="M8,15 C4.14,15 1,11.859 1,8 C1,4.14 4.14,1 8,1 C11.859,1 15,4.14 15,8 C15,11.859 11.859,15 8,15" id="Path" fill="#C55757"></path>
                        <path d="M8,0 C3.589,0 0,3.589 0,8 C0,12.411 3.589,16 8,16 C12.411,16 16,12.411 16,8 C16,3.589 12.411,0 8,0" id="Path" fill="#C55757"></path>
                        <path d="M8.3536,11.1495 C8.1586,10.9545 7.8416,10.9545 7.6466,11.1495 C7.5486,11.2475 7.4996,11.3755 7.4996,11.5025 L7.4996,12.5005 C7.4996,12.6275 7.5486,12.7555 7.6466,12.8535 C7.8416,13.0485 8.1586,13.0485 8.3536,12.8535 C8.4516,12.7555 8.4996,12.6275 8.4996,12.5005 L8.4996,11.5025 C8.4996,11.3755 8.4516,11.2475 8.3536,11.1495" id="Fill-1" fill="#FFFFFF"></path>
                        <path d="M8.3536,3.1464 C8.1586,2.9514 7.8416,2.9514 7.6466,3.1464 C7.5486,3.2444 7.4996,3.3724 7.4996,3.5004 L7.4996,9.5004 C7.4996,9.6284 7.5486,9.7554 7.6466,9.8534 C7.8416,10.0484 8.1586,10.0484 8.3536,9.8534 C8.4516,9.7554 8.4996,9.6284 8.4996,9.5004 L8.4996,3.5004 C8.4996,3.3724 8.4516,3.2444 8.3536,3.1464" id="Fill-3" fill="#FFFFFF"></path>
                    </g>
                </g>
            </g>
        </g>
    </g>
</svg>