<?xml version="1.0" encoding="utf-8"?>
<!-- Generator: Adobe Illustrator 19.0.0, SVG Export Plug-In . SVG Version: 6.00 Build 0)  -->
<svg version="1.1" id="Capa_1" xmlns="http://www.w3.org/2000/svg" xmlns:xlink="http://www.w3.org/1999/xlink" x="0px" y="0px"
	 viewBox="0 366.4 595.3 109.5" style="enable-background:new 0 366.4 595.3 109.5;" xml:space="preserve">
<style type="text/css">
	.st0{display:none;}
	.st1{fill:#007B8A;}
	.st2{fill:#003E52;}
</style>
<g id="Capa_1_1_">
</g>
<g id="Capa_2" class="st0">
</g>
<g id="XMLID_80_">
	<circle id="XMLID_95_" class="st1" cx="4.1" cy="448.9" r="4.2"/>
	<path id="XMLID_94_" class="st2" d="M594.6,371.4c-0.5,0.9-1.3,1.6-2.3,2.1l-0.2,0.1l-0.2-0.1c0,0-3.9-1.6-6.7-1.7
		c-3-0.2-5.4,0.5-6.9,1.9s-2.9,4.2-4.1,8.1l-22.8,78.8c-1.5,5.2-3.7,9.1-6.5,11.5c-2.8,2.5-6.4,3.7-10.8,3.7c-1.8,0-3.4-0.2-4.7-0.5
		s-2.4-0.8-3.3-1.2l-1.8-0.8v-0.2c-0.1-0.7,0.1-1.4,0.6-2.3s1.3-1.6,2.3-2.1l0.2-0.1l0.2,0.1c0,0,3.9,1.6,6.7,1.7
		c3,0.2,5.4-0.5,6.9-1.9s2.9-4.2,4.1-8.1l2.5-8.7l0,0c1.5-5.1,1.2-10.6-0.7-15.5l-16.2-41.8l-5.7-1c-0.5-0.9-0.8-1.7-0.8-2.4
		c0-0.5,0.1-1.1,0.4-1.8h18.6l0.3,1c0.3,1.3,0.5,2.1,0.5,2.6c0,1.2-0.7,1.8-2,1.8h-4.4l15.3,39.4l15.2-52.3
		c1.5-5.2,3.7-9.1,6.5-11.5c2.8-2.5,6.4-3.7,10.8-3.7c1.8,0,3.4,0.2,4.7,0.5s2.4,0.8,3.3,1.2l1.8,0.8v0.2
		C595.2,369.8,595,370.6,594.6,371.4z"/>
	<path id="XMLID_92_" class="st2" d="M224.3,433.3v-38.7h-9.5c-0.3-0.7-0.4-1.3-0.4-1.8c0-0.8,0.3-1.7,0.8-2.5l9.2-1.1l2-22.5
		c0.7-0.2,1.5-0.3,2.4-0.3c0.6,0,1.4,0.1,2.4,0.3v22.5h17.3c1.3,0,2,0.6,2,1.8c0,0.5-0.2,1.4-0.5,2.6l-0.3,1.1h-18.6v36.1
		c0,3.9,0.2,7.1,0.7,9.5s1.4,4.1,2.9,5.2s3.7,1.6,6.8,1.6c1.5,0,3.2-0.1,5.1-0.4c1.9-0.3,3.7-0.6,5.6-1.1c0.8,1.3,1.2,2.9,1.4,4.8
		c-1.8,0.8-3.9,1.5-6.4,2s-5,0.8-7.5,0.8c-4.9,0-8.7-1.4-11.3-4.3C225.6,446,224.3,440.8,224.3,433.3z"/>
	<path id="XMLID_89_" class="st2" d="M380.5,453.1c-5.9,0-10.9-1.3-15.2-4c-4.3-2.7-7.7-6.4-10.1-11.2c-2.4-4.8-3.6-10.4-3.6-16.8
		s1.2-12,3.6-16.8s5.8-8.5,10.1-11.2c4.3-2.7,9.4-4,15.2-4c5.9,0,10.9,1.3,15.2,4c4.3,2.7,7.7,6.4,10.1,11.2
		c2.4,4.8,3.6,10.4,3.6,16.8s-1.2,12-3.6,16.8s-5.8,8.5-10.1,11.2C391.4,451.7,386.3,453.1,380.5,453.1z M380.5,447.7
		c4.3,0,8.2-1.1,11.5-3.3c3.3-2.2,5.9-5.3,7.6-9.3c1.8-4,2.7-8.6,2.7-13.9c0-5.2-0.9-9.9-2.7-13.9c-1.8-4-4.3-7.1-7.6-9.3
		c-3.3-2.2-7.1-3.3-11.5-3.3c-4.3,0-8.2,1.1-11.5,3.3c-3.3,2.2-5.9,5.3-7.6,9.3c-1.8,4-2.7,8.7-2.7,13.9c0,5.2,0.9,9.9,2.7,13.9
		c1.8,4,4.3,7.1,7.6,9.3C372.2,446.6,376,447.7,380.5,447.7z"/>
	<path id="XMLID_86_" class="st2" d="M494,404.2c-2.1-4.7-5.1-8.4-8.8-11.1c-3.8-2.7-8.1-4-13-4s-9.4,1.4-13.5,4.2
		c-4.1,2.8-7.2,6.5-9.4,11.2l0.9-12.6c-0.9-1.1-2.1-2-3.5-2.8l-9,2.4c-0.5,0.8-0.8,1.6-0.8,2.4c0,0.6,0.1,1.2,0.4,1.8h6.2v75.1
		l-5.8,1c-0.5,0.9-0.8,1.7-0.8,2.4c0,0.5,0.1,1.1,0.4,1.8h18.6l0.3-1c0.3-1.3,0.5-2.1,0.5-2.6c0-1.2-0.7-1.8-2-1.8h-4.4v-23.8
		c5.3,4.3,11.2,6.4,17.7,6.4c5.9,0,11.1-1.4,15.6-4.1c4.4-2.7,7.9-6.5,10.3-11.4s3.6-10.6,3.6-17.2
		C497.2,414.3,496.1,408.9,494,404.2z M484,440.3c-4,4.8-9.4,7.3-16.3,7.3c-6.2,0-12.1-2.4-17.7-7.1v-21.3c0-4.4,1-8.5,2.9-12.2
		c2-3.7,4.6-6.7,7.8-9c3.3-2.3,6.8-3.4,10.7-3.4c3.7,0,6.9,1.1,9.7,3.3c2.8,2.2,4.9,5.3,6.5,9.2c1.6,3.9,2.4,8.4,2.4,13.5
		C490,428.9,488,435.5,484,440.3z"/>
	<path id="XMLID_84_" class="st2" d="M186.3,453.1h-18.6c-0.3-0.7-0.4-1.3-0.4-1.8c0-0.7,0.3-1.5,0.8-2.4l5.7-1.3v-35.4
		c0-11.8-5-17.7-14.9-17.7c-3.9,0-7.5,1.1-10.8,3.4s-6,5.4-8,9.2c-2,3.8-3,8-3,12.5v28h4.5c1.3,0,2,0.6,2,1.8c0,0.5-0.2,1.4-0.5,2.6
		l-0.3,1h-18.6c-0.3-0.7-0.4-1.3-0.4-1.8c0-0.7,0.3-1.5,0.8-2.4l5.7-1.3v-52h-6.1c-0.3-0.6-0.4-1.2-0.4-1.8c0-0.8,0.3-1.5,0.8-2.4
		l9-2.4c1.4,0.8,2.6,2.3,3.5,2.8l-0.9,12.5c2.3-4.5,5.6-8.4,9.7-11.2c4.1-2.8,8.8-4.1,14.2-4.1c6.7,0,11.8,2,15.3,6
		s5.3,9.7,5.3,17.2v35.4h4.5c1.3,0,2,0.6,2,1.8c0,0.5-0.2,1.4-0.5,2.6L186.3,453.1z"/>
	<path id="XMLID_83_" class="st2" d="M324,392.9c-0.6-1.3-2.1-3.4-2.1-3.4l0,0c0,0-0.3,0-0.4-0.1c-1.4-0.2-2.9-0.3-4.4-0.3
		c-5.4,0-10.1,1.4-14.2,4.1c-4.1,2.8-7.3,6.7-9.7,11.2l0.9-12.5c-0.9-0.5-2.1-2-3.5-2.8l-9,2.4c-0.5,0.8-0.8,1.6-0.8,2.4
		c0,0.6,0.1,1.2,0.4,1.8h6.1v52l-5.7,1.3c-0.5,0.9-0.8,1.7-0.8,2.4c0,0.5,0.1,1.1,0.4,1.8h18.6l0.3-1c0.3-1.3,0.5-2.1,0.5-2.6
		c0-1.2-0.7-1.8-2-1.8h-4.5v-28c0-4.5,1-8.7,3-12.5s4.7-6.9,8-9.2c3.3-2.3,6.9-3.4,10.8-3.4c0.7,0,1.4,0,2,0.1l2.5,11
		c0.7,0.4,1.4,0.7,2.1,0.7c0.6,0,1.2-0.1,1.7-0.3L324,392.9z"/>
	<path id="XMLID_81_" class="st2" d="M93.3,453.1H36.8c-1-1.2-1.8-2.5-2.4-3.9l30.8-40l-30.8-39c0.6-1.5,1.4-2.8,2.4-3.9h56.4
		c1.2,0.9,2.2,2,3,3.3l0.3,13.8c-0.5,0.3-1.2,0.5-2,0.5c-0.9,0-1.8-0.3-2.5-0.9l-3.4-10.9h-45l28.1,34.6c0.3,0.8,0.4,1.5,0.4,2.3
		s-0.1,1.5-0.4,2.3l-28.1,36.1h45l3.4-10.9c0.8-0.6,1.6-0.9,2.5-0.9c0.8,0,1.5,0.2,2,0.5l-0.3,13.8
		C95.4,451.1,94.4,452.2,93.3,453.1z"/>
</g>
</svg>
