<?xml version="1.0" encoding="UTF-8"?>
<svg width="17px" height="17px" viewBox="0 0 17 17" version="1.1" xmlns="http://www.w3.org/2000/svg" xmlns:xlink="http://www.w3.org/1999/xlink">
    <!-- Generator: Sketch 49.3 (51167) - http://www.bohemiancoding.com/sketch -->
    <title>add user icon</title>
    <desc>Created with Sketch.</desc>
    <defs></defs>
    <g id="Page-1" stroke="none" stroke-width="1" fill="none" fill-rule="evenodd" stroke-linecap="round" stroke-linejoin="round">
        <g id="icons" transform="translate(-111.000000, -540.000000)" stroke="#9B9B9B">
            <g id="add-user-icon" transform="translate(112.000000, 541.000000)">
                <path d="M12.1935484,11.0967742 L9.09677419,11.0967742 L12.1935484,11.0967742 Z M10.6451613,9.5483871 L10.6451613,12.6451613 L10.6451613,9.5483871 Z M10.516129,6.70967742 C8.16464516,6.70967742 6.25806452,8.616 6.25806452,10.9677419 C6.25806452,13.3192258 8.16464516,15.2258065 10.516129,15.2258065 C12.8676129,15.2258065 14.7741935,13.3192258 14.7741935,10.9677419 C14.7741935,8.616 12.8676129,6.70967742 10.516129,6.70967742 Z M7.82967742,7.45548387 C5.38967742,5.98167742 2.21703226,6.76516129 0.743225806,9.20516129 C0.257548387,10.0095484 0.000516129032,10.9310968 0,11.8709677 L6.38842773,11.8836434 C6.38842773,11.8836434 5.93066406,10.8979256 6.51831055,9.47116778 C6.79808453,8.79189932 7.82967742,7.45548387 7.82967742,7.45548387 Z M8.58064516,3.22580645 C8.58064516,5.00722581 7.13625806,6.4516129 5.35483871,6.4516129 C3.57341935,6.4516129 2.12903226,5.00722581 2.12903226,3.22580645 C2.12903226,1.4443871 3.57341935,0 5.35483871,0 C7.13625806,0 8.58064516,1.4443871 8.58064516,3.22580645 Z" id="Page-1"></path>
            </g>
        </g>
    </g>
</svg>