<?xml version="1.0" encoding="UTF-8"?>
<svg width="30px" height="40px" viewBox="0 0 30 40" version="1.1" xmlns="http://www.w3.org/2000/svg" xmlns:xlink="http://www.w3.org/1999/xlink">
    <!-- Generator: Sketch 51.2 (57519) - http://www.bohemiancoding.com/sketch -->
    <title>book icon </title>
    <desc>Created with Sketch.</desc>
    <defs></defs>
    <g id="Page-1" stroke="none" stroke-width="1" fill="none" fill-rule="evenodd">
        <g id="onboarding-MVP_4-Copy-7" transform="translate(-589.000000, -697.000000)" fill="#9B9B9B">
            <g id="Group-39" transform="translate(528.000000, 678.000000)">
                <path d="M65.0641459,55.5469 L66.1735174,55.5469 L66.1735174,58.2968858 C66.1735174,58.5399422 66.3054633,58.7639053 66.5155288,58.8819491 C66.7273321,59.0017395 66.9877484,58.9965307 67.194325,58.8697963 L69.789777,57.2916719 L72.4251843,58.8993072 C72.5328237,58.9670135 72.6543474,59 72.7758756,59 C72.8887239,59 73.0033054,58.9722224 73.1039982,58.9149294 C73.3158015,58.7951389 73.4477474,58.5711802 73.4477474,58.3281327 L73.4477474,55.5469044 L86.5761176,55.5469044 C88.8174382,55.5469044 90.6403168,53.7239814 90.6403168,51.4827052 L90.6403168,40.2707686 L90.6420546,23.0641992 C90.6420546,20.8228786 88.8191316,19 86.5778553,19 L65.0641992,19 C62.8228786,19 61,20.822923 61,23.0641992 L61,51.4822607 C61,53.7235814 62.822923,55.54646 65.0641992,55.54646 L65.0641459,55.5469 Z M72.1041061,57.1302257 L70.1405616,55.93232 C69.9252829,55.8003741 69.6562088,55.8003741 69.4409212,55.93232 L67.517332,57.1024481 L67.5190698,52.3766957 L72.1039328,52.3766957 L72.1041061,57.1302257 Z M89.2986755,51.4827007 C89.2986755,52.9826923 88.0781935,54.2031742 86.578202,54.2031742 L73.448054,54.2031742 L73.448054,52.3750512 L86.8159784,52.376789 C87.7638842,52.376789 88.6284571,52.0295688 89.2986755,51.4566609 L89.2986755,51.4827007 Z M66.7885806,20.3442146 L86.5782465,20.3442146 C88.078238,20.3442146 89.29872,21.5646966 89.29872,23.0646881 L89.29872,44.8943424 C89.29872,46.2623791 88.1858818,47.3769506 86.8161118,47.3769506 L66.7885806,47.3769506 L66.7885806,20.3442146 Z M62.3441613,23.0646881 C62.3441613,21.5646966 63.5646433,20.3442146 65.0646348,20.3442146 L65.4431038,20.3442146 L65.4431038,47.3769506 L64.8267961,47.3769506 C63.8788904,47.3769506 63.0143175,47.7241709 62.3441613,48.2970788 L62.3441613,23.0646881 Z M62.3441613,51.2018623 C62.3441613,49.8338256 63.4569994,48.7192541 64.8267695,48.7192541 L86.8177562,48.7192541 C87.765662,48.7192541 88.6302348,48.3720339 89.3003644,47.799126 L89.3003644,48.5491218 C89.3003644,49.9171585 88.1875262,51.03173 86.8177562,51.03173 L64.8267695,51.03173 C64.4552427,51.03173 64.1549066,51.3320749 64.1549066,51.7035928 C64.1549066,52.0751196 64.4552516,52.3754557 64.8267695,52.3754557 L66.1757396,52.3754557 L66.1757396,54.2035742 L65.0663681,54.2035742 C63.5663766,54.2035742 62.3458946,52.9830967 62.3458946,51.4831052 L62.3441613,51.2018623 Z" id="book-icon-"></path>
            </g>
        </g>
    </g>
</svg>