<?xml version="1.0" encoding="UTF-8"?>
<svg width="16px" height="16px" viewBox="0 0 16 16" version="1.1" xmlns="http://www.w3.org/2000/svg" xmlns:xlink="http://www.w3.org/1999/xlink">
    <!-- Generator: Sketch 49.3 (51167) - http://www.bohemiancoding.com/sketch -->
    <title>calendar icon</title>
    <desc>Created with Sketch.</desc>
    <defs></defs>
    <g id="Page-1" stroke="none" stroke-width="1" fill="none" fill-rule="evenodd">
        <g id="icons" transform="translate(-64.000000, -449.000000)" fill="#9B9B9B">
            <g id="calendar-icon" transform="translate(64.000000, 449.000000)">
                <g id="Page-1">
                    <path d="M14.392,1.27557895 L14.392,0.671136842 C14.392,0.365221053 14.1214629,0.116863158 13.7902171,0.116863158 L13.292,0.116863158 C12.9598629,0.116863158 12.6902171,0.366042105 12.6902171,0.671136842 L12.6902171,1.26324211 L8.81067429,1.26406526 L8.81067429,0.67196 C8.81067429,0.366044211 8.54013714,0.117686316 8.20889143,0.117686316 L7.71067429,0.117686316 C7.37853714,0.117686316 7.10889143,0.366865263 7.10889143,0.67196 L7.10889143,1.26406526 L3.22934857,1.26406526 L3.22934857,0.67196 C3.22934857,0.366044211 2.95881143,0.117686316 2.62756571,0.117686316 L2.12934857,0.117686316 C1.79721143,0.117686316 1.52756571,0.366865263 1.52756571,0.67196 L1.52756571,1.28709684 C0.690948571,1.41209684 0.0632914286,2.07410737 0.0632914286,2.87591789 L0.0632914286,14.2723389 C0.0632914286,15.1613284 0.848114286,15.8841705 1.81328,15.8841705 L14.1865371,15.8841705 C15.1517257,15.8841705 15.9365257,15.1613074 15.9365257,14.2723389 L15.935632,2.87507368 C15.9365257,2.05105263 15.2597463,1.37014737 14.3918834,1.27555789 L14.392,1.27557895 Z M13.14736,0.671957895 C13.14736,0.597945263 13.2125394,0.538734737 13.2920023,0.538734737 L13.7902194,0.538734737 C13.870576,0.538734737 13.9348617,0.598768421 13.9348617,0.671957895 L13.9348617,2.27722105 C13.9348617,2.35123368 13.8696823,2.41044421 13.7902194,2.41044421 L13.2920023,2.41044421 C13.2116457,2.41044421 13.14736,2.35041053 13.14736,2.27722105 L13.14736,0.671957895 Z M7.56610286,0.671957895 C7.56610286,0.597945263 7.63128229,0.538734737 7.71074514,0.538734737 L8.20896229,0.538734737 C8.28931886,0.538734737 8.35360457,0.598768421 8.35360457,0.671957895 L8.35360457,2.27722105 C8.35360457,2.35123368 8.28842514,2.41044421 8.20896229,2.41044421 L7.71074514,2.41044421 C7.63038857,2.41044421 7.56610286,2.35041053 7.56610286,2.27722105 L7.56610286,0.671957895 Z M1.98484571,0.671957895 C1.98484571,0.597945263 2.05002514,0.538734737 2.129488,0.538734737 L2.62770514,0.538734737 C2.70806171,0.538734737 2.77234743,0.598768421 2.77234743,0.671957895 L2.77234743,2.27722105 C2.77234743,2.35123368 2.707168,2.41044421 2.62770514,2.41044421 L2.129488,2.41044421 C2.04913143,2.41044421 1.98484571,2.35041053 1.98484571,2.27722105 L1.98484571,0.671957895 Z M1.52770286,1.71471579 L1.52770286,2.2764 C1.52770286,2.58231579 1.79824,2.83067368 2.12948571,2.83067368 L2.62770286,2.83067368 C2.95984,2.83067368 3.22948571,2.58149474 3.22948571,2.2764 L3.22948571,1.68429474 L7.10902857,1.68429474 L7.10902857,2.2764 C7.10902857,2.58231579 7.37956571,2.83067368 7.71081143,2.83067368 L8.20902857,2.83067368 C8.54116571,2.83067368 8.81081143,2.58149474 8.81081143,2.2764 L8.81081143,1.68429474 L12.6903543,1.68429474 L12.6903543,2.2764 C12.6903543,2.58231579 12.9608914,2.83067368 13.2921371,2.83067368 L13.7903543,2.83067368 C14.1224914,2.83067368 14.3921371,2.58149474 14.3921371,2.2764 L14.3921371,1.70073684 C15.0073143,1.79201895 15.4796343,2.28296842 15.4796343,2.87507368 L15.4796343,4.9236 L0.520777143,4.92442316 L0.520777143,2.87589684 C0.520777143,2.30682316 0.947565714,1.83478105 1.52790857,1.71471789 L1.52770286,1.71471579 Z M14.1866743,15.4622947 L1.81341714,15.4622947 C1.10091429,15.4622947 0.520571429,14.9285684 0.520571429,14.2715158 L0.521462857,5.34562105 L15.479408,5.34562105 L15.479408,14.2715158 C15.479408,14.9277684 14.8990423,15.4622947 14.1865623,15.4622947 L14.1866743,15.4622947 Z" id="Fill-1"></path>
                    <path d="M1.81348571,14.2524211 L14.1867429,14.2524211 L14.1867429,6.63557895 L1.81348571,6.63557895 L1.81348571,14.2524211 Z M2.27062857,11.8543158 L4.792,11.8543158 L4.792,13.8321053 L2.27062857,13.8312821 L2.27062857,11.8543158 Z M10.7501714,11.4332632 L8.2288,11.4332632 L8.2288,9.45547368 L10.7501714,9.45547368 L10.7501714,11.4332632 Z M11.2073143,9.45547368 L13.7286857,9.45547368 L13.7286857,11.4332632 L11.2073143,11.4332632 L11.2073143,9.45547368 Z M8.2288,11.8544211 L10.7501714,11.8544211 L10.7501714,13.8322105 L8.2288,13.8313874 L8.2288,11.8544211 Z M7.77165714,13.8313895 L5.25028571,13.8313895 L5.25028571,11.8536 L7.77165714,11.8544211 L7.77165714,13.8313895 Z M8.2288,9.03454737 L8.2288,7.05675789 L10.7501714,7.05675789 L10.7501714,9.03454737 L8.2288,9.03454737 Z M7.77165714,9.03454737 L5.25028571,9.03454737 L5.25028571,7.05675789 L7.77165714,7.05675789 L7.77165714,9.03454737 Z M7.77165714,9.4556 L7.77165714,11.4333895 L5.25028571,11.4333895 L5.25028571,9.4556 L7.77165714,9.4556 Z M4.79314286,11.4333895 L2.27085714,11.4333895 L2.27085714,9.4556 L4.79222857,9.4556 L4.79314286,11.4333895 Z M11.2073143,13.8314947 L11.2073143,11.8537053 L13.7286857,11.8537053 L13.7286857,13.8314947 L11.2073143,13.8314947 Z M13.7296,9.03465263 L11.2073143,9.03465263 L11.2073143,7.05686316 L13.7286857,7.05686316 L13.7296,9.03465263 Z M4.79291429,7.05686316 L4.79291429,9.03465263 L2.27062857,9.03465263 L2.27062857,7.05686316 L4.79291429,7.05686316 Z" id="Fill-2"></path>
                    <path d="M4.28845714,8.06168421 C4.28845714,8.99753684 2.76434286,8.99753684 2.76434286,8.06168421 C2.76434286,7.12583158 4.28845714,7.12583158 4.28845714,8.06168421" id="Fill-3"></path>
                    <path d="M7.25988571,8.06168421 C7.25988571,8.99753684 5.73577143,8.99753684 5.73577143,8.06168421 C5.73577143,7.12583158 7.25988571,7.12583158 7.25988571,8.06168421" id="Fill-4"></path>
                    <path d="M4.28845714,10.444 C4.28845714,11.3798526 2.76434286,11.3798526 2.76434286,10.444 C2.76434286,9.50814737 4.28845714,9.50814737 4.28845714,10.444" id="Fill-5"></path>
                    <path d="M7.25988571,10.444 C7.25988571,11.3798526 5.73577143,11.3798526 5.73577143,10.444 C5.73577143,9.50814737 7.25988571,9.50814737 7.25988571,10.444" id="Fill-6"></path>
                    <path d="M10.2553143,8.06168421 C10.2553143,8.99753684 8.7312,8.99753684 8.7312,8.06168421 C8.7312,7.12583158 10.2553143,7.12583158 10.2553143,8.06168421" id="Fill-7"></path>
                    <path d="M13.2267429,8.06168421 C13.2267429,8.99753684 11.7026286,8.99753684 11.7026286,8.06168421 C11.7026286,7.12583158 13.2267429,7.12583158 13.2267429,8.06168421" id="Fill-8"></path>
                </g>
            </g>
        </g>
    </g>
</svg>