<?xml version="1.0" encoding="UTF-8"?>
<svg width="32px" height="32px" viewBox="0 0 32 32" version="1.1" xmlns="http://www.w3.org/2000/svg" xmlns:xlink="http://www.w3.org/1999/xlink">
    <!-- Generator: Sketch 52.4 (67378) - http://www.bohemiancoding.com/sketch -->
    <title>Group 45</title>
    <desc>Created with Sketch.</desc>
    <g id="Page-1" stroke="none" stroke-width="1" fill="none" fill-rule="evenodd">
        <g id="Buttons" transform="translate(-1048.000000, -872.000000)">
            <g id="Group-45" transform="translate(1048.000000, 872.000000)">
                <g id="Group-42-Copy-2" fill="none" fill-rule="nonzero" stroke="none">
                    <rect id="Rectangle-7" x="0.5" y="0.5" width="10" height="10" rx="3"></rect>
                </g>
                <g id="Group-Copy-3" transform="translate(8.000000, 8.000000)">
                    <g id="Group-7" transform="translate(1.000000, 2.000000)" fill="#9B9B9B">
                        <path d="M4.81249871,11.8971077 C4.57118098,11.8971077 4.375,11.7530351 4.375,11.5758112 L4.375,3.859758 C4.375,3.68253568 4.57117888,3.53846154 4.81249871,3.53846154 C5.05381645,3.53846154 5.24999743,3.68253414 5.24999743,3.859758 L5.24999743,11.5758112 C5.25081905,11.7530335 5.05463807,11.8971077 4.81249871,11.8971077 Z" id="Fill-5"></path>
                        <path d="M0.437498714,11.8971077 C0.19618098,11.8971077 0,11.7092813 0,11.4782358 L0,1.41887191 C0,1.18782844 0.196178878,1 0.437498714,1 C0.678816449,1 0.874997429,1.18782643 0.874997429,1.41887191 L0.874997429,11.4782358 C0.875819052,11.7092793 0.679638072,11.8971077 0.437498714,11.8971077 Z" id="Fill-5-Copy"></path>
                        <path d="M6.94679876,13.4468 C6.71343655,13.4468 6.52372308,13.207325 6.52372308,12.9127465 L6.52372308,0.0872535263 C6.52372308,-0.207322396 6.71343452,-0.4468 6.94679876,-0.4468 C7.18016096,-0.4468 7.36987444,-0.207324961 7.36987444,0.0872535263 L7.36987444,12.9127465 C7.37066897,13.2073224 7.1809555,13.4468 6.94679876,13.4468 Z" id="Fill-5" transform="translate(6.946800, 6.500000) rotate(-270.000000) translate(-6.946800, -6.500000) "></path>
                        <path d="M6.94679876,15.9852615 C6.71343655,15.9852615 6.52372308,15.7457865 6.52372308,15.451208 L6.52372308,2.62571506 C6.52372308,2.33113914 6.71343452,2.09166154 6.94679876,2.09166154 C7.18016096,2.09166154 7.36987444,2.33113658 7.36987444,2.62571506 L7.36987444,15.451208 C7.37066897,15.7457839 7.1809555,15.9852615 6.94679876,15.9852615 Z" id="Fill-5-Copy-2" transform="translate(6.946800, 9.038462) rotate(-270.000000) translate(-6.946800, -9.038462) "></path>
                        <path d="M6.94679876,18.5237231 C6.71343655,18.5237231 6.52372308,18.284248 6.52372308,17.9896696 L6.52372308,5.1641766 C6.52372308,4.86960068 6.71343452,4.63012308 6.94679876,4.63012308 C7.18016096,4.63012308 7.36987444,4.86959812 7.36987444,5.1641766 L7.36987444,17.9896696 C7.37066897,18.2842455 7.1809555,18.5237231 6.94679876,18.5237231 Z" id="Fill-5-Copy-3" transform="translate(6.946800, 11.576923) rotate(-270.000000) translate(-6.946800, -11.576923) "></path>
                        <path d="M6.94679876,8.36987692 C6.71343655,8.36987692 6.52372308,8.13040188 6.52372308,7.8358234 L6.52372308,-4.98966955 C6.52372308,-5.28424547 6.71343452,-5.52372308 6.94679876,-5.52372308 C7.18016096,-5.52372308 7.36987444,-5.28424804 7.36987444,-4.98966955 L7.36987444,7.8358234 C7.37066897,8.13039932 7.1809555,8.36987692 6.94679876,8.36987692 Z" id="Fill-5-Copy-4" transform="translate(6.946800, 1.423077) rotate(-270.000000) translate(-6.946800, -1.423077) "></path>
                        <path d="M6.94679876,10.9083385 C6.71343655,10.9083385 6.52372308,10.6688634 6.52372308,10.3742849 L6.52372308,-2.45120801 C6.52372308,-2.74578393 6.71343452,-2.98526154 6.94679876,-2.98526154 C7.18016096,-2.98526154 7.36987444,-2.7457865 7.36987444,-2.45120801 L7.36987444,10.3742849 C7.37066897,10.6688609 7.1809555,10.9083385 6.94679876,10.9083385 Z" id="Fill-5-Copy-5" transform="translate(6.946800, 3.961538) rotate(-270.000000) translate(-6.946800, -3.961538) "></path>
                        <path d="M9.18709062,11.6408615 C8.94599798,11.6408615 8.75,11.4956229 8.75,11.3169647 L8.75,3.86235841 C8.75,3.68370175 8.94599589,3.53846154 9.18709062,3.53846154 C9.42900202,3.53846154 9.625,3.68370019 9.625,3.86235841 L9.625,11.3169647 C9.625,11.4956213 9.42900411,11.6408615 9.18709062,11.6408615 Z" id="Fill-6"></path>
                        <path d="M13.4556906,11.6408615 C13.214598,11.6408615 13.0186,11.45012 13.0186,11.2154886 L13.0186,1.42537295 C13.0186,1.1907436 13.2145959,1 13.4556906,1 C13.697602,1 13.8936,1.19074156 13.8936,1.42537295 L13.8936,11.2154886 C13.8936,11.4501179 13.6976041,11.6408615 13.4556906,11.6408615 Z" id="Fill-6-Copy"></path>
                    </g>
                    <rect id="Rectangle" fill-rule="nonzero" x="0" y="0" width="16" height="16"></rect>
                </g>
            </g>
        </g>
    </g>
</svg>