<?xml version="1.0" encoding="UTF-8"?>
<svg width="16px" height="16px" viewBox="0 0 16 16" version="1.1" xmlns="http://www.w3.org/2000/svg" xmlns:xlink="http://www.w3.org/1999/xlink">
    <!-- Generator: Sketch 50 (54983) - http://www.bohemiancoding.com/sketch -->
    <title>check on informative icon</title>
    <desc>Created with Sketch.</desc>
    <defs></defs>
    <g id="check-on-informative-icon" stroke="none" stroke-width="1" fill="none" fill-rule="evenodd">
        <g id="Icon-Circle-Check-Copy">
            <rect id="16X16" x="0" y="0" width="16" height="16"></rect>
            <g id="Shape-Circle-Check" transform="translate(1.000000, 1.000000)">
                <path d="M7,14 C3.14,14 0,10.859 0,7 C0,3.14 3.14,0 7,0 C10.859,0 14,3.14 14,7 C14,10.859 10.859,14 7,14" id="Fill-1" stroke="#22B3B3" fill="#22B3B3"></path>
                <path d="M11,4 C10.862,4 10.737,4.056 10.646,4.147 L5.969,8.824 L3.32,6.616 L3.316,6.621 C3.229,6.549 3.122,6.5 3,6.5 C2.724,6.5 2.5,6.724 2.5,7 C2.5,7.154 2.574,7.287 2.684,7.379 L2.68,7.384 L5.68,9.884 L5.684,9.879 C5.771,9.951 5.878,10 6,10 C6.138,10 6.263,9.944 6.354,9.853 L11.353,4.854 C11.444,4.763 11.5,4.638 11.5,4.5 C11.5,4.224 11.276,4 11,4" id="Fill-3" fill="#FFFFFF"></path>
            </g>
        </g>
    </g>
</svg>