<?xml version="1.0" encoding="UTF-8"?>
<svg width="16px" height="16px" viewBox="0 0 16 16" version="1.1" xmlns="http://www.w3.org/2000/svg" xmlns:xlink="http://www.w3.org/1999/xlink">
    <!-- Generator: Sketch 49.3 (51167) - http://www.bohemiancoding.com/sketch -->
    <title>contact us icon</title>
    <desc>Created with Sketch.</desc>
    <defs></defs>
    <g id="Page-1" stroke="none" stroke-width="1" fill="none" fill-rule="evenodd">
        <g id="icons" transform="translate(-161.000000, -666.000000)" fill="#A7A7A7">
            <g id="contact-us-icon" transform="translate(161.000000, 666.000000)">
                <g id="Page-1">
                    <path d="M13.1103673,0.125090909 L2.93877551,0.125090909 C1.38775576,0.125090909 0.114122939,1.74603636 0.114122939,3.7201039 L0.114122939,9.01880519 C0.114122939,11.0131325 1.38772294,12.633974 2.93877551,12.633974 L3.29782857,12.633974 L3.10204082,14.7945974 C3.0695151,15.1890701 3.23278041,15.5632623 3.51020408,15.7296623 C3.60841796,15.7921621 3.72257959,15.8124551 3.82014694,15.8124551 C4.01593469,15.8124551 4.19578776,15.7296623 4.34246531,15.542159 L6.64483265,12.6118732 L13.1104653,12.6118732 C14.6614857,12.6118732 15.93512,10.9909278 15.93512,9.01686026 L15.93512,3.71899013 C15.93512,1.74496416 14.677471,0.124808312 13.1104653,0.124808312 L13.1103673,0.125090909 Z M13.1103673,11.6153766 L6.31820408,11.6153766 L3.91836735,14.6705455 L4.19578776,11.6162078 L2.93877551,11.6153953 C1.81250612,11.6153953 0.897959347,10.4514265 0.897959347,9.01799273 L0.897959347,3.71929143 C0.897959347,2.28585974 1.81250612,1.12188883 2.93877551,1.12188883 L13.1103673,1.12188883 C14.2366367,1.12188883 15.1511837,2.28585974 15.1511837,3.71929143 L15.1511837,9.01799273 C15.1511837,10.4522369 14.2366367,11.6153953 13.1103673,11.6153953 L13.1103673,11.6153766 Z" id="Fill-1"></path>
                </g>
            </g>
        </g>
    </g>
</svg>