<?xml version="1.0" encoding="UTF-8"?>
<svg width="16px" height="16px" viewBox="0 0 16 16" version="1.1" xmlns="http://www.w3.org/2000/svg" xmlns:xlink="http://www.w3.org/1999/xlink">
    <!-- Generator: Sketch 49.3 (51167) - http://www.bohemiancoding.com/sketch -->
    <title>edit settings icon</title>
    <desc>Created with Sketch.</desc>
    <defs></defs>
    <g id="Page-1" stroke="none" stroke-width="1" fill="none" fill-rule="evenodd">
        <g id="icons" transform="translate(-64.000000, -497.000000)">
            <g id="edit-settings-icon" transform="translate(64.000000, 497.000000)">
                <g id="Icon-Setting">
                    <rect id="16X16" x="0" y="0" width="16" height="16"></rect>
                    <g id="Shape-Setting" fill="#9B9B9B">
                        <path d="M4,4 L6,4 L6,1 L4,1 L4,4 Z M0.5,3 L3,3 L3,4.5 C3,4.776 3.224,5 3.5,5 L6.5,5 C6.776,5 7,4.776 7,4.5 L7,3 L15.5,3 C15.776,3 16,2.776 16,2.5 C16,2.224 15.776,2 15.5,2 L7,2 L7,0.5 C7,0.224 6.776,0 6.5,0 L3.5,0 C3.224,0 3,0.224 3,0.5 L3,2 L0.5,2 C0.224,2 0,2.224 0,2.5 C0,2.776 0.224,3 0.5,3 L0.5,3 Z" id="Fill-1"></path>
                        <path d="M4,15 L6,15 L6,12 L4,12 L4,15 Z M15.5,13 L7,13 L7,11.5 C7,11.224 6.776,11 6.5,11 L3.5,11 C3.224,11 3,11.224 3,11.5 L3,13 L0.5,13 C0.224,13 0,13.224 0,13.5 C0,13.776 0.224,14 0.5,14 L3,14 L3,15.5 C3,15.776 3.224,16 3.5,16 L6.5,16 C6.776,16 7,15.776 7,15.5 L7,14 L15.5,14 C15.776,14 16,13.776 16,13.5 C16,13.224 15.776,13 15.5,13 L15.5,13 Z" id="Fill-3"></path>
                        <path d="M10,9.5 L12,9.5 L12,6.5 L10,6.5 L10,9.5 Z M15.5,7.5 L13,7.5 L13,6 C13,5.724 12.776,5.5 12.5,5.5 L9.5,5.5 C9.224,5.5 9,5.724 9,6 L9,7.5 L0.5,7.5 C0.224,7.5 0,7.724 0,8 C0,8.276 0.224,8.5 0.5,8.5 L9,8.5 L9,10 C9,10.276 9.224,10.5 9.5,10.5 L12.5,10.5 C12.776,10.5 13,10.276 13,10 L13,8.5 L15.5,8.5 C15.776,8.5 16,8.276 16,8 C16,7.724 15.776,7.5 15.5,7.5 L15.5,7.5 Z" id="Fill-4"></path>
                    </g>
                </g>
            </g>
        </g>
    </g>
</svg>