<?xml version="1.0" encoding="UTF-8"?>
<svg width="16px" height="16px" viewBox="0 0 16 16" version="1.1" xmlns="http://www.w3.org/2000/svg" xmlns:xlink="http://www.w3.org/1999/xlink">
    <!-- Generator: Sketch 49.3 (51167) - http://www.bohemiancoding.com/sketch -->
    <title>Edit</title>
    <desc>Created with Sketch.</desc>
    <defs></defs>
    <g id="Page-1" stroke="none" stroke-width="1" fill="none" fill-rule="evenodd">
        <g id="Iconografía-Copy-3" transform="translate(-38.000000, -182.000000)" fill="#9B9B9B">
            <g id="Edit" transform="translate(38.000000, 182.000000)">
                <g id="Group">
                    <path d="M3.3542,10.6472 C3.2632,10.5562 3.1382,10.5002 3.0002,10.5002 C2.7242,10.5002 2.5002,10.7242 2.5002,11.0002 C2.5002,11.1382 2.5562,11.2632 2.6462,11.3532 L4.6462,13.3532 C4.7372,13.4442 4.8622,13.5002 5.0002,13.5002 C5.2762,13.5002 5.5002,13.2762 5.5002,13.0002 C5.5002,12.8622 5.4442,12.7372 5.3532,12.6462 L3.3542,10.6472 Z" id="Fill-4"></path>
                    <path d="M6.2598,14.0332 L1.1078,14.8922 L1.9668,9.7402 L10.4998,1.2072 L14.7928,5.5002 L6.2598,14.0332 Z M15.9998,5.5002 C15.9998,5.3622 15.9438,5.2362 15.8528,5.1462 L10.8538,0.1472 C10.7638,0.0562 10.6378,0.0002 10.4998,0.0002 C10.3618,0.0002 10.2368,0.0562 10.1468,0.1462 L1.1468,9.1462 C1.0748,9.2182 1.0338,9.3152 1.0158,9.4192 L1.0068,9.4182 L0.0068,15.4182 L0.0158,15.4192 C0.0118,15.4472 -0.000199999999,15.4712 -0.000199999999,15.5002 C-0.000199999999,15.7762 0.2238,16.0002 0.4998,16.0002 C0.5288,16.0002 0.5528,15.9882 0.5808,15.9842 L0.5818,15.9932 L6.5818,14.9932 L6.5808,14.9842 C6.6848,14.9662 6.7818,14.9252 6.8538,14.8532 L15.8538,5.8532 C15.9438,5.7632 15.9998,5.6382 15.9998,5.5002 L15.9998,5.5002 Z" id="Fill-1"></path>
                </g>
            </g>
        </g>
    </g>
</svg>