<?xml version="1.0" encoding="UTF-8"?>
<svg width="40px" height="43px" viewBox="0 0 40 43" version="1.1" xmlns="http://www.w3.org/2000/svg" xmlns:xlink="http://www.w3.org/1999/xlink">
    <!-- Generator: Sketch 51.2 (57519) - http://www.bohemiancoding.com/sketch -->
    <title>faq icon</title>
    <desc>Created with Sketch.</desc>
    <defs></defs>
    <g id="Page-1" stroke="none" stroke-width="1" fill="none" fill-rule="evenodd">
        <g id="onboarding-MVP_4-Copy-7" transform="translate(-400.000000, -698.000000)" fill="#9B9B9B">
            <g id="Group-37" transform="translate(344.000000, 678.000000)">
                <path d="M69.4078212,45.027933 C63.0006704,45.027933 57.7877095,39.8149721 57.7877095,33.4078212 C57.7877095,27.0006704 63.0006704,21.7877095 69.4078212,21.7877095 C75.8149721,21.7877095 81.027933,27.0006704 81.027933,33.4078212 C81.027933,33.9018994 81.4277229,34.301676 81.9217877,34.301676 C82.4158525,34.301676 82.8156425,33.901886 82.8156425,33.4078212 C82.8156425,26.0143017 76.8013408,20 69.4078212,20 C62.0143017,20 56,26.0143017 56,33.4078212 C56,40.8013408 62.0143017,46.8156425 69.4078212,46.8156425 C69.9018994,46.8156425 70.301676,46.4158525 70.301676,45.9217877 C70.301676,45.4277229 69.901886,45.027933 69.4078212,45.027933 Z M69.4078212,26.2569832 C67.3844469,26.2569832 65.2178771,27.6134972 64.9420335,30.6459441 L66.7227709,30.8065609 C66.9619486,28.1773765 69.0010726,28.0446838 69.4078212,28.0446838 C70.0362905,28.0446838 72.0893855,28.2087911 72.0893855,30.3351866 C72.0893855,31.4559911 71.3788603,32.0024492 70.4029497,32.7985162 C69.510838,33.5247732 68.2905028,34.429086 68.2905028,36.0893765 L68.2905028,36.9832313 L70.0782123,36.9832313 L70.0782123,36.0893765 C70.0782123,35.3159687 70.6752626,34.8830302 71.5324693,34.1829631 C72.5275978,33.3729073 73.8212291,32.3620916 73.8212291,30.3351866 C73.8212291,27.8963039 72.0806704,26.2569743 69.4078212,26.2569743 L69.4078212,26.2569832 Z M68.2905028,40.5586592 L70.0782123,40.5586592 L70.0782123,38.7709497 L68.2905028,38.7709497 L68.2905028,40.5586592 Z M92.6480447,36.9832402 L76.5586592,36.9832402 C74.5876201,36.9832402 72.7597765,38.5876201 72.7597765,40.5586592 L72.7597765,55.7541899 C72.7597765,57.7252291 74.5876201,59.3296089 76.5586592,59.3296089 L81.4748603,59.3296089 L83.8875531,62.5471285 C84.0568983,62.7723397 84.3222615,62.905019 84.603352,62.905019 C84.8844425,62.905019 85.1498101,62.7723352 85.3191508,62.5471285 L87.7318436,59.3296089 L92.6480447,59.3296089 C94.6190838,59.3296089 96,57.7252291 96,55.7541899 L96,40.5586592 C96,38.5876201 94.6190838,36.9832402 92.6480447,36.9832402 Z M94.2122905,55.7541899 C94.2122905,56.7388156 93.6326704,57.5418994 92.6480447,57.5418994 L87.2849162,57.5418994 C87.0038391,57.5418994 86.7384581,57.6745832 86.5691173,57.8997899 L84.603352,60.5202592 L82.6375866,57.8997899 C82.4682413,57.6745788 82.2028782,57.5418994 81.9217877,57.5418994 L76.5586592,57.5418994 C75.5722905,57.5418994 74.547486,56.7388156 74.547486,55.7541899 L74.547486,40.5586592 C74.547486,39.5722905 75.5722905,38.7709497 76.5586592,38.7709497 L92.6480447,38.7709497 C93.6326704,38.7709497 94.2122905,39.5722905 94.2122905,40.5586592 L94.2122905,55.7541899 Z M83.4860335,51.2849162 L85.273743,51.2849162 L85.273743,42.3463687 L83.4860335,42.3463687 L83.4860335,51.2849162 Z M83.4860335,54.8603352 L85.273743,54.8603352 L85.273743,53.0726257 L83.4860335,53.0726257 L83.4860335,54.8603352 Z" id="faq-icon"></path>
            </g>
        </g>
    </g>
</svg>