<?xml version="1.0" encoding="UTF-8"?>
<svg width="16px" height="16px" viewBox="0 0 16 16" version="1.1" xmlns="http://www.w3.org/2000/svg" xmlns:xlink="http://www.w3.org/1999/xlink">
    <!-- Generator: Sketch 49.3 (51167) - http://www.bohemiancoding.com/sketch -->
    <title>Home icon</title>
    <desc>Created with Sketch.</desc>
    <defs></defs>
    <g id="Page-1" stroke="none" stroke-width="1" fill="none" fill-rule="evenodd">
        <g id="Iconografía-Copy-3" transform="translate(-71.000000, -183.000000)" fill="#9B9B9B">
            <g id="Home-icon" transform="translate(71.000000, 183.000000)">
                <path d="M7.92816683,0.00207744659 C7.83157799,0.0172549194 7.74161926,0.0592129414 7.67059819,0.123490373 L0.155654375,6.68698748 C-0.0413098781,6.85839396 -0.0526744125,7.14763669 0.129138744,7.33332705 C0.310951901,7.51901741 0.617755543,7.52973145 0.814719797,7.35832497 L1.79195339,6.50842306 L1.79195339,15.542916 C1.79195339,15.7955692 2.00880316,16 2.27678848,16 L5.98117095,16 C6.24916354,16 6.46600603,15.7955623 6.46600603,15.542916 L6.46600603,11.0362968 L9.45065082,11.0362968 L9.45065082,15.542916 C9.45065082,15.7955692 9.66750058,16 9.9354859,16 L13.6398684,16 C13.907861,16 14.1247035,15.7955623 14.1247035,15.542916 L14.1247035,6.42271982 L15.1852802,7.35117161 C15.3822445,7.52257809 15.6890481,7.51186404 15.8708613,7.32617368 C16.0526744,7.14048333 16.0413099,6.8512406 15.8443456,6.67983411 L8.32940181,0.123421811 C8.24607077,0.0511088428 8.13906525,0.00825722171 8.02637988,0.002008884 C7.99323655,-0.000669627999 7.96104108,-0.000669627999 7.92789775,0.002008884 L7.92816683,0.00207744659 Z M8.00392232,1.08052134 L13.1552951,5.58005583 C13.1543472,5.5943397 13.1543472,5.60862357 13.1552951,5.62290745 L13.1552951,15.0859166 L10.4205828,15.0859166 L10.4205828,10.5792974 C10.4205828,10.3266442 10.203733,10.1222134 9.93574771,10.1222134 L5.98143276,10.1222134 C5.71344016,10.1222134 5.49659767,10.3266511 5.49659767,10.5792974 L5.49659767,15.0859166 L2.76188538,15.0859166 L2.76188538,5.65856 L8.00392232,1.08052134 Z" id="Fill-1"></path>
            </g>
        </g>
    </g>
</svg>