<?xml version="1.0" encoding="UTF-8"?>
<svg width="16px" height="14px" viewBox="0 0 16 14" version="1.1" xmlns="http://www.w3.org/2000/svg" xmlns:xlink="http://www.w3.org/1999/xlink">
    <!-- Generator: Sketch 49.3 (51167) - http://www.bohemiancoding.com/sketch -->
    <title>Icon-Camera</title>
    <desc>Created with Sketch.</desc>
    <defs></defs>
    <g id="Page-1" stroke="none" stroke-width="1" fill="none" fill-rule="evenodd">
        <g id="icons" transform="translate(-208.000000, -449.000000)">
            <g id="Icon-Camera" transform="translate(208.000000, 449.000000)">
                <rect id="16X16" x="0" y="0" width="16" height="16"></rect>
                <g id="Shape-Camera" fill="#9B9B9B">
                    <g id="camera-icon">
                        <path d="M15,12.5 C15,12.775 14.775,13 14.5,13 L1.5,13 C1.224,13 1,12.775 1,12.5 L1,6 L4.556,6 C4.212,6.591 4,7.268 4,8 C4,10.206 5.794,12 8,12 C10.206,12 12,10.206 12,8 C12,7.268 11.788,6.591 11.444,6 L15,6 L15,12.5 Z M8,5 C9.654,5 11,6.346 11,8 C11,9.654 9.654,11 8,11 C6.346,11 5,9.654 5,8 C5,6.346 6.346,5 8,5 L8,5 Z M1.5,3 L14.5,3 C14.775,3 15,3.224 15,3.5 L15,5 L10.618,5 C9.914,4.385 9.005,4 8,4 C6.995,4 6.086,4.385 5.382,5 L1,5 L1,3.5 C1,3.224 1.224,3 1.5,3 L1.5,3 Z M3,2 L7,2 L7,1 L3,1 L3,2 Z M14.5,2 L8,2 L8,0.5 C8,0.224 7.776,0 7.5,0 L2.5,0 C2.224,0 2,0.224 2,0.5 L2,2 L1.5,2 C0.673,2 0,2.673 0,3.5 L0,12.5 C0,13.327 0.673,14 1.5,14 L14.5,14 C15.327,14 16,13.327 16,12.5 L16,3.5 C16,2.673 15.327,2 14.5,2 L14.5,2 Z" id="Page-1"></path>
                    </g>
                </g>
            </g>
        </g>
    </g>
</svg>