<?xml version="1.0" encoding="UTF-8"?>
<svg width="16px" height="16px" viewBox="0 0 16 16" version="1.1" xmlns="http://www.w3.org/2000/svg" xmlns:xlink="http://www.w3.org/1999/xlink">
    <!-- Generator: Sketch 49.3 (51167) - http://www.bohemiancoding.com/sketch -->
    <title>Icon-Navigation</title>
    <desc>Created with Sketch.</desc>
    <defs>
        <polygon id="path-1" points="15.9996 16 0 16 0 0.0002 15.9996 0.0002 15.9996 16"></polygon>
    </defs>
    <g id="Page-1" stroke="none" stroke-width="1" fill="none" fill-rule="evenodd">
        <g id="icons" transform="translate(-160.000000, -497.000000)">
            <g id="Icon-Navigation" transform="translate(160.000000, 497.000000)">
                <rect id="16X16" x="0" y="0" width="16" height="16"></rect>
                <g id="Shape-Navigation">
                    <mask id="mask-2" fill="white">
                        <use xlink:href="#path-1"></use>
                    </mask>
                    <g id="Clip-2"></g>
                    <g id="location-icon" mask="url(#mask-2)" fill="#9B9B9B">
                        <path d="M10.7456,13.1812 L9.9966,6.4452 L9.9886,6.4462 C9.9626,6.2152 9.7856,6.0372 9.5546,6.0112 L9.5556,6.0032 L2.8176,5.2542 L14.7096,1.2902 L10.7456,13.1812 Z M15.9996,0.5002 C15.9996,0.2242 15.7766,0.0002 15.4996,0.0002 C15.4446,0.0002 15.3936,0.0152 15.3436,0.0312 L15.3416,0.0262 L0.3416,5.0262 L0.3436,5.0312 C0.1456,5.0982 -0.0004,5.2792 -0.0004,5.5002 C-0.0004,5.7572 0.1966,5.9612 0.4456,5.9892 L0.4446,5.9972 L9.0476,6.9532 L10.0026,15.5552 L10.0106,15.5552 C10.0396,15.8042 10.2436,16.0002 10.4996,16.0002 C10.7206,16.0002 10.9026,15.8542 10.9686,15.6562 L10.9746,15.6582 L15.9746,0.6582 L15.9686,0.6562 C15.9846,0.6062 15.9996,0.5552 15.9996,0.5002 L15.9996,0.5002 Z" id="Fill-1"></path>
                    </g>
                </g>
            </g>
        </g>
    </g>
</svg>