<?xml version="1.0" encoding="UTF-8"?>
<svg width="42px" height="40px" viewBox="0 0 42 40" version="1.1" xmlns="http://www.w3.org/2000/svg" xmlns:xlink="http://www.w3.org/1999/xlink">
    <!-- Generator: Sketch 51.2 (57519) - http://www.bohemiancoding.com/sketch -->
    <title>Group</title>
    <desc>Created with Sketch.</desc>
    <defs></defs>
    <g id="Page-1" stroke="none" stroke-width="1" fill="none" fill-rule="evenodd">
        <g id="1-Home" transform="translate(-936.000000, -248.000000)" fill="#9B9B9B">
            <g id="Group" transform="translate(936.000000, 248.000000)">
                <path d="M38.7878788,40 L3.63636364,40 C1.81818182,40 0,38.0610909 0,36.2429091 L0,8.97018182 C0,7.27272727 1.51515152,6.06060606 3.63636364,6.06060606 L11.5151515,6.06060606 C12.0004727,6.06060606 12.4242424,6.48437576 12.4242424,6.96969697 C12.4242424,7.45501818 12.0004727,7.87878788 11.5151515,7.87878788 L3.63636364,7.87878788 C2.90957576,7.87878788 1.81818182,8.18181818 1.81818182,8.97018182 L1.81818182,36.2429091 C1.81818182,37.0904242 2.848,38.1818182 3.63636364,38.1818182 L38.7878788,38.1818182 C39.4555152,38.1818182 40,37.152 40,36.2429091 L40,8.97018182 C40,8.30254545 39.8177091,7.87878788 38.7878788,7.87878788 L30.3030303,7.87878788 C29.8177091,7.87878788 29.3939394,7.45501818 29.3939394,6.96969697 C29.3939394,6.48437576 29.8177091,6.06060606 30.3030303,6.06060606 L38.7878788,6.06060606 C40.6676364,6.06060606 41.8181818,7.152 41.8181818,8.97018182 L41.8181818,36.2429091 C41.8181818,38.0610909 40.6676364,40 38.7878788,40 Z" id="Fill-1"></path>
                <path d="M20.9709091,25.94 C20.7294303,25.94 20.4855879,25.8784485 20.3032727,25.6985212 L13.5747879,18.9088242 C13.2102061,18.5442424 13.2102061,17.9997333 13.5747879,17.6351273 C13.9393697,17.2705455 14.4838788,17.2705455 14.8484848,17.6351273 L21.5769697,24.4224 C21.9415515,24.7869818 21.9415515,25.3314909 21.5769697,25.696097 C21.3946788,25.8783879 21.1508364,25.9399394 20.9709091,25.9399394 L20.9709091,25.94 Z" id="Fill-2"></path>
                <path d="M20.9709091,25.94 C20.7294303,25.94 20.4855879,25.8784485 20.3032727,25.6985212 C19.9386909,25.3339394 19.9386909,24.7894303 20.3032727,24.4248242 L27.0905455,17.6963394 C27.4551273,17.3317576 27.9996364,17.3317576 28.3642424,17.6963394 C28.7288242,18.0609212 28.7288242,18.6054303 28.3642424,18.9700364 L21.5769697,25.696097 C21.3946788,25.8783879 21.1508364,25.9399394 20.9709091,25.9399394 L20.9709091,25.94 Z" id="Fill-3"></path>
                <path d="M20.9090909,25.1515152 C20.4237697,25.1515152 20,24.7277455 20,24.2424242 L20,1.21212121 C20,0.7268 20.4237697,0.303030303 20.9090909,0.303030303 C21.3944121,0.303030303 21.8181818,0.7268 21.8181818,1.21212121 L21.8181818,24.2424242 C21.8181818,24.7277455 21.3944121,25.1515152 20.9090909,25.1515152 Z" id="Fill-4"></path>
                <path d="M29.6969697,32.1212121 L12.7272727,32.1212121 C12.2419515,32.1212121 11.8181818,31.6974424 11.8181818,31.2121212 C11.8181818,30.7268 12.2419515,30.3030303 12.7272727,30.3030303 L29.6969697,30.3030303 C30.1822909,30.3030303 30.6060606,30.7268 30.6060606,31.2121212 C30.6060606,31.6974424 30.1822909,32.1212121 29.6969697,32.1212121 Z" id="Fill-5"></path>
            </g>
        </g>
    </g>
</svg>