<?xml version="1.0" encoding="UTF-8"?>
<svg width="16px" height="16px" viewBox="0 0 16 16" version="1.1" xmlns="http://www.w3.org/2000/svg" xmlns:xlink="http://www.w3.org/1999/xlink">
    <!-- Generator: Sketch 49.3 (51167) - http://www.bohemiancoding.com/sketch -->
    <title>Integrations icon</title>
    <desc>Created with Sketch.</desc>
    <defs></defs>
    <g id="Page-1" stroke="none" stroke-width="1" fill="none" fill-rule="evenodd">
        <g id="icons" transform="translate(-160.000000, -113.000000)" fill="#9B9B9B">
            <g id="Integrations-icon" transform="translate(160.000000, 113.000000)">
                <g id="Page-1" transform="translate(8.000000, 8.000000) rotate(-90.000000) translate(-8.000000, -8.000000) ">
                    <path d="M14.9126676,9.64669136 L13.1442081,7.88141451 L13.2545287,7.77108512 C13.4329861,7.59261356 13.4329861,7.30380596 13.2545287,7.12209459 C13.0760713,6.94362303 12.7872866,6.94362303 12.6055896,7.12209459 L11.6873363,8.04042068 L9.11430652,5.46718701 C8.9358491,5.28871544 8.64706439,5.28871544 8.46536742,5.46718701 C8.28691,5.64565857 8.28691,5.93446617 8.46536742,6.11617754 L11.0383972,8.68941121 L8.68914526,11.0388493 L6.1161155,8.46561565 C5.93765808,8.28714408 5.64563382,8.28714408 5.4671764,8.46561565 C5.28871898,8.64408721 5.28871898,8.93289481 5.4671764,9.11460618 L8.04020615,11.6878399 L7.12195284,12.6061659 C6.94349541,12.7846375 6.94349541,13.0734451 7.12195284,13.2551565 C7.21280631,13.3460171 7.32961601,13.388201 7.44642239,13.388201 C7.56322877,13.388201 7.68003515,13.3427707 7.77089194,13.2551565 L7.88121258,13.1448271 L9.64967215,14.913427 C10.9605418,16.2244005 13.3291313,16.493736 14.9093649,14.913427 C16.3630038,13.4596694 16.3630038,11.0972721 14.9126095,9.64683756 L14.9126676,9.64669136 Z M14.2637285,14.2610004 C13.1507868,15.3740307 11.4408384,15.4064785 10.298691,14.2610004 L8.53023143,12.4924007 L12.4952689,8.52704894 L14.2637285,10.2956487 C15.3571997,11.3892065 15.3571997,13.1674426 14.2637285,14.2610004 Z" id="Fill-1"></path>
                    <path d="M12,10.6666667 C11.2661428,10.6666667 10.6666667,11.2661428 10.6666667,12 C10.6666667,12.7338572 11.2661428,13.3333333 12,13.3333333 C12.7338572,13.3333333 13.3333333,12.7338572 13.3333333,12 C13.3333333,11.2661428 12.7338572,10.6666667 12,10.6666667 Z M12,12.3617601 C11.8001746,12.3617601 11.6382399,12.1998307 11.6382399,12 C11.6382399,11.8001693 11.8001693,11.6382399 12,11.6382399 C12.1998307,11.6382399 12.3617601,11.8001693 12.3617601,12 C12.3617601,12.1998307 12.1998307,12.3617601 12,12.3617601 Z" id="Fill-2"></path>
                    <path d="M8.75683121,2.7086047 C8.58072807,2.53257342 8.29255632,2.53257342 8.11645318,2.7086047 L8.00758793,2.81742553 L6.26245862,1.07300832 C4.83440348,-0.357669439 2.50334024,-0.357669439 1.07215355,1.07300832 C-0.487183841,2.63170941 -0.221422582,4.96824525 1.07215355,6.26119516 L2.81728319,8.00872594 L2.70841794,8.11754676 C2.5323148,8.29357804 2.5323148,8.5784367 2.70841794,8.75766349 C2.79807283,8.84728179 2.91334153,8.88888889 3.02860695,8.88888889 C3.14387565,8.88888889 3.2591378,8.84407974 3.34879597,8.75766349 L8.75681154,3.35185466 C8.93291467,3.17261149 8.93291467,2.88776921 8.75681154,2.70852604 L8.75683121,2.7086047 Z M3.45767105,7.36879603 L1.71254174,5.62437882 C0.582264681,4.49456346 0.614281779,2.81102469 1.71254174,1.7132463 C2.79158741,0.634640941 4.54622517,0.634640941 5.62527084,1.7132463 L7.37040015,3.45766352 L3.45767105,7.36879603 Z" id="Fill-3"></path>
                    <path d="M4,2.66666667 C3.26614276,2.66666667 2.66666667,3.26614276 2.66666667,4 C2.66666667,4.73385724 3.26614276,5.33333333 4,5.33333333 C4.73385724,5.33333333 5.33333333,4.73385724 5.33333333,4 C5.33333333,3.26270297 4.73729703,2.66666667 4,2.66666667 Z M4,4.35830268 C3.80017464,4.35830268 3.63823989,4.19637323 3.63823989,3.99654257 C3.63823989,3.79671721 3.80016934,3.63478246 4,3.63478246 C4.19982536,3.63478246 4.36176011,3.79671191 4.36176011,3.99654257 C4.36176011,4.19636793 4.19983066,4.35830268 4,4.35830268 Z" id="Fill-4"></path>
                </g>
            </g>
        </g>
    </g>
</svg>