<?xml version="1.0" encoding="UTF-8"?>
<svg width="45px" height="42px" viewBox="0 0 45 42" version="1.1" xmlns="http://www.w3.org/2000/svg" xmlns:xlink="http://www.w3.org/1999/xlink">
    <!-- Generator: Sketch 51.2 (57519) - http://www.bohemiancoding.com/sketch -->
    <title>Group 5</title>
    <desc>Created with Sketch.</desc>
    <defs></defs>
    <g id="Page-1" stroke="none" stroke-width="1" fill="none" fill-rule="evenodd">
        <g id="1-Home" transform="translate(-525.000000, -245.000000)">
            <g id="Group-13" transform="translate(352.000000, 216.000000)">
                <g id="Group-4">
                    <g id="Group-5" transform="translate(173.000000, 26.000000)">
                        <g id="search" transform="translate(0.000000, 5.000000)" fill="#9B9B9B">
                            <g id="Page-1">
                                <path d="M29.3333561,14.5454545 C23.9334743,14.5454545 19.4001506,18.7045236 18.733272,24.0909091 L14.6666354,24.0909091 C14.6666354,23.3408873 14.066658,22.7272727 13.3333049,22.7272727 L1.33333049,22.7272727 C0.599977387,22.7272727 0,23.3408873 0,24.0909091 L0,26.8181818 C0,27.5682036 0.599977387,28.1818182 1.33333049,28.1818182 L13.3333049,28.1818182 C14.066658,28.1818182 14.6666354,27.5682036 14.6666354,26.8181818 L18.733272,26.8181818 C19.3999373,32.2046545 23.8664878,36.3636364 29.3333561,36.3636364 C35.2000102,36.3636364 40,31.4545455 40,25.4545455 C40,19.4545455 35.2000102,14.5454545 29.3333561,14.5454545 Z M29.3333561,33.6363636 C24.9335788,33.6363636 21.3333732,29.9545455 21.3333732,25.4545455 C21.3333732,20.9545455 24.9333655,17.2727273 29.3333561,17.2727273 C33.7333467,17.2727273 37.333339,20.9545455 37.333339,25.4545455 C37.333339,29.9545455 33.7333467,33.6363636 29.3333561,33.6363636 Z" id="Fill-1"></path>
                                <path d="M6,4.09099636 L34,4.09099636 C34.5522847,4.09099636 35,4.53871161 35,5.09099636 L35,14.9320145 C35.4772945,15.13656 35.9545455,15.4093091 36.3636364,15.6820364 L36.3636364,1 C36.3636364,0.44771525 35.9159211,-1.01453063e-16 35.3636364,0 L4.63636364,0 C4.08407889,1.01453063e-16 3.63636364,0.44771525 3.63636364,1 L3.63636364,21.8181818 L5,21.8181818 L5,5.09099636 C5,4.53871161 5.44771525,4.09099636 6,4.09099636 Z M11.1361455,1.36372364 C11.5452364,1.36372364 11.8179636,1.63645091 11.8179636,2.04554182 C11.8179636,2.45463273 11.5452364,2.72736 11.1361455,2.72736 C10.7270545,2.72736 10.4543273,2.45463273 10.4543273,2.04554182 C10.4543273,1.63645091 10.7270545,1.36372364 11.1361455,1.36372364 Z M8.40887273,1.36372364 C8.81796364,1.36372364 9.09069091,1.63645091 9.09069091,2.04554182 C9.09069091,2.45463273 8.81796364,2.72736 8.40887273,2.72736 C7.99978182,2.72736 7.72705455,2.45463273 7.72705455,2.04554182 C7.72705455,1.63645091 7.99978182,1.36372364 8.40887273,1.36372364 Z M5.6816,1.36372364 C6.09069091,1.36372364 6.36341818,1.63645091 6.36341818,2.04554182 C6.36341818,2.45463273 6.09069091,2.72736 5.6816,2.72736 C5.27250909,2.72736 4.99978182,2.45463273 4.99978182,2.04554182 C4.99978182,1.63645091 5.27250909,1.36372364 5.6816,1.36372364 Z" id="Fill-2"></path>
                                <path d="M34,38.6363636 L6,38.6363636 C5.44771525,38.6363636 5,38.1886484 5,37.6363636 L5,29.0909091 L3.63636364,29.0909091 L3.63636364,39 C3.63636364,39.5522847 4.08407889,40 4.63636364,40 L35.3636364,40 C35.9159211,40 36.3636364,39.5522847 36.3636364,39 L36.3636364,35.2270545 C35.9545455,35.4997818 35.4772945,35.7725091 35,35.9770764 L35,37.6363636 C35,38.1886484 34.5522847,38.6363636 34,38.6363636 Z" id="Fill-4"></path>
                            </g>
                        </g>
                        <ellipse id="Oval" fill="#D8D8D8" cx="37" cy="10.9448276" rx="8" ry="7.94482759"></ellipse>
                        <text id="+" font-family="SourceSansPro-Regular, Source Sans Pro" font-size="16" font-weight="normal" fill="#949494">
                            <tspan x="33" y="16">+</tspan>
                        </text>
                    </g>
                </g>
            </g>
        </g>
    </g>
</svg>