<?xml version="1.0" encoding="UTF-8"?>
<svg width="16px" height="16px" viewBox="0 0 16 16" version="1.1" xmlns="http://www.w3.org/2000/svg" xmlns:xlink="http://www.w3.org/1999/xlink">
    <!-- Generator: Sketch 49.3 (51167) - http://www.bohemiancoding.com/sketch -->
    <title>not sure icon</title>
    <desc>Created with Sketch.</desc>
    <defs></defs>
    <g id="Page-1" stroke="none" stroke-width="1" fill="none" fill-rule="evenodd">
        <g id="icons" transform="translate(-208.000000, -832.000000)" fill="#9B9B9B">
            <g id="not-sure-icon" transform="translate(208.000000, 832.000000)">
                <g id="Page-1">
                    <path d="M8,16 C3.5888,16 0,12.4112 0,8 C0,3.5888 3.5888,0 8,0 C12.4112,0 16,3.5888 16,8 C16,12.4112 12.4112,16 8,16 Z M8,0.66688 C3.9568,0.66688 0.66687984,3.9568 0.66687984,8 C0.66687984,12.0432 3.9568,15.3331202 8,15.3331202 C12.0432,15.3331202 15.33312,12.0432 15.33312,8 C15.33312,3.9568 12.0432,0.66688 8,0.66688 Z" id="Fill-1"></path>
                    <path d="M5.28301887,6.33962264 C4.86698264,6.33962264 4.52830189,6.00094189 4.52830189,5.58490566 C4.52830189,5.16886943 4.86698264,4.83018868 5.28301887,4.83018868 C5.69905509,4.83018868 6.03773585,5.16886943 6.03773585,5.58490566 C6.03773585,6.00094189 5.69905509,6.33962264 5.28301887,6.33962264 Z M5.28301887,5.3330234 C5.14434415,5.3330234 5.03160755,5.44575879 5.03160755,5.58490566 C5.03160755,5.72358038 5.14434294,5.83631698 5.28301887,5.83631698 C5.42169479,5.83631698 5.53443019,5.72358158 5.53443019,5.58490566 C5.53443019,5.44576 5.42169479,5.3330234 5.28301887,5.3330234 Z" id="Fill-2"></path>
                    <path d="M10.7169811,6.33962264 C10.3009449,6.33962264 9.96226415,6.00094189 9.96226415,5.58490566 C9.96226415,5.16886943 10.3009449,4.83018868 10.7169811,4.83018868 C11.1330174,4.83018868 11.4716981,5.16886943 11.4716981,5.58490566 C11.4716981,6.00094189 11.1330174,6.33962264 10.7169811,6.33962264 Z M10.7169811,5.3330234 C10.5783064,5.3330234 10.4655698,5.44575879 10.4655698,5.58490566 C10.4655698,5.72358038 10.5783052,5.83631698 10.7169811,5.83631698 C10.8556571,5.83631698 10.9683925,5.72358158 10.9683925,5.58490566 C10.9683925,5.44576 10.8556571,5.3330234 10.7169811,5.3330234 Z" id="Fill-3"></path>
                    <path d="M4.86759634,11.4716909 C4.70648292,11.4716909 4.56319781,11.3867875 4.53390239,11.2650958 C4.50015152,11.1287786 4.62241957,10.9976537 4.80709811,10.9726459 L12.2788168,9.96653802 C12.4622189,9.94106654 12.6398825,10.0321029 12.6736448,10.1688947 C12.7073956,10.3052119 12.5851276,10.4363368 12.4004491,10.4613446 L4.92873036,11.4674525 C4.90771493,11.4707538 4.88733692,11.4716981 4.86759634,11.4716981 L4.86759634,11.4716909 Z" id="Fill-4"></path>
                </g>
            </g>
        </g>
    </g>
</svg>