<?xml version="1.0" encoding="UTF-8"?>
<svg width="16px" height="16px" viewBox="0 0 16 16" version="1.1" xmlns="http://www.w3.org/2000/svg" xmlns:xlink="http://www.w3.org/1999/xlink">
    <!-- Generator: Sketch 50.2 (55047) - http://www.bohemiancoding.com/sketch -->
    <title>notifications  icon on</title>
    <desc>Created with Sketch.</desc>
    <defs></defs>
    <g id="notifications--icon-on" stroke="none" stroke-width="1" fill="none" fill-rule="evenodd">
        <g id="Group-4" transform="translate(2.000000, 0.000000)" fill="#22B3B3">
            <g id="Page-1">
                <path d="M6.39808,0.796058947 C6.780576,0.796058947 7.091824,1.12368842 7.091824,1.52631579 L7.785568,1.52631579 C7.785568,0.720387368 7.163696,0.0657852632 6.398064,0.0657852632 C5.632432,0.0657852632 5.01056,0.720387368 5.01056,1.52631579 L5.704304,1.52631579 C5.7036784,1.12368842 6.015552,0.796058947 6.398048,0.796058947 L6.39808,0.796058947 Z" id="Fill-1"></path>
                <path d="M6.39568,15.0354531 C5.956928,15.0354531 5.553808,14.874926 5.286928,14.5933474 C5.1600528,14.4597945 5.010048,14.2387368 5.010048,13.9407158 L4.316304,13.9394004 C4.3156784,14.3676952 4.48568,14.7828194 4.79568,15.109792 C5.191312,15.5269036 5.774432,15.7657078 6.395056,15.7657078 C7.54256,15.7657078 8.476976,14.9466257 8.478736,13.9406973 L7.784992,13.9393819 C7.7837424,14.5446535 7.160624,15.0354317 6.395616,15.0354317 L6.39568,15.0354531 Z" id="Fill-2"></path>
                <path d="M12.63376,12.0237474 C12.6781344,11.5105853 12.7312592,10.7355958 12.411888,10.1152 L12.3562624,10.054016 C12.2606368,9.93493726 12.1481344,9.82440758 12.0287584,9.70861811 C11.5618784,9.25335916 10.9225024,8.62900547 10.7856384,6.79476547 C10.6000064,4.35788126 9.0325184,1.89152337 6.3981184,1.89152337 C3.7637184,1.89152337 2.1961984,4.35804968 2.0099584,6.79543916 C1.8718336,8.62903916 1.2330784,9.25270232 0.7668384,9.70861811 C0.647464,9.82506611 0.5349664,9.93559916 0.4393344,10.054016 L0.39996,10.1152 C0.080584,10.7355958 0.117464,11.5106021 0.162456,12.0237474 C0.1743312,12.1592741 0.1543312,12.2770358 0.1543312,12.3691453 L0.1543312,12.5829558 L0.3624592,12.6875604 C1.8305872,13.5513752 3.7542992,13.9533457 6.3824592,13.9533457 C9.0112592,13.9533457 10.9568592,13.5513752 12.4256592,12.6875604 L12.6419152,12.5829558 L12.6419152,12.3691453 C12.6419152,12.2770392 12.6219152,12.1586189 12.6337904,12.0237474 L12.63376,12.0237474 Z M11.911888,11.9566417 C11.9056384,12.0230888 11.9006384,12.0862467 11.8962624,12.1454585 C10.5562624,12.8803301 8.8018624,13.2230838 6.3981824,13.2230838 C3.9949824,13.2230838 2.2401024,12.8796564 0.8994624,12.1454585 C0.895088,12.0862484 0.8894624,12.0230905 0.8838384,11.9566417 C0.845088,11.5171638 0.7932128,10.9204648 0.9932128,10.4961112 C1.0588384,10.4197962 1.1425872,10.3375579 1.2388448,10.2434796 C1.7582208,9.73690274 2.5425888,8.97045221 2.7019648,6.85333221 C2.8575904,4.81510063 4.0807168,2.62175326 6.3982832,2.62175326 C8.7158512,2.62175326 9.9389232,4.81510063 10.0946032,6.85333221 C10.2539776,8.97105853 11.0389712,9.73754274 11.5583472,10.2441533 C11.6545968,10.3382316 11.7383472,10.4204733 11.8039792,10.4967848 C12.0027312,10.9191512 11.9502288,11.5171806 11.912104,11.9566585 L11.911888,11.9566417 Z" id="Fill-3"></path>
            </g>
        </g>
    </g>
</svg>
