<?xml version="1.0" encoding="UTF-8"?>
<svg width="40px" height="40px" viewBox="0 0 40 40" version="1.1" xmlns="http://www.w3.org/2000/svg" xmlns:xlink="http://www.w3.org/1999/xlink">
    <!-- Generator: Sketch 51.2 (57519) - http://www.bohemiancoding.com/sketch -->
    <title>organization icon </title>
    <desc>Created with Sketch.</desc>
    <defs></defs>
    <g id="Page-1" stroke="none" stroke-width="1" fill="none" fill-rule="evenodd">
        <g id="onboarding-MVP_4-Copy-7" transform="translate(-400.000000, -287.000000)" fill="#9B9B9B">
            <g id="Group-9" transform="translate(344.000000, 272.000000)">
                <g id="Group-34">
                    <g id="Group-7">
                        <g id="organization-icon" transform="translate(56.000000, 15.000000)">
                            <g id="Group-33">
                                <path d="M11.7168821,2.13162821e-14 C11.6823991,0.00178702793 11.6479205,0.00356948546 11.6151632,0.00892599884 L5.51917947,0.00892599884 C4.75369481,0.00892599884 4.088221,0.36955829 3.64170299,0.881964554 C3.1934637,1.39435254 2.9313876,2.03704274 2.77969417,2.69764892 L0.0212297654,14.6967873 C0.000541288991,14.7771259 -0.0046304991,14.8592515 0.00398958907,14.9413771 C0.00226521835,14.9628031 0.00226521835,14.9842246 0.00226521835,15.0056461 C0.00226521835,17.0712402 1.0470388,18.9815319 2.75384406,20.0189222 C2.75556975,20.0207092 2.75901673,20.0207092 2.76073801,20.0207092 L2.76073801,39.2858744 C2.76073801,39.6804282 3.06934167,40 3.45035389,40 L36.5519162,40 C36.9312071,40 37.2415321,39.6804282 37.2415321,39.2858744 L37.2415321,20.0207092 L37.2432578,20.0189222 C38.9500626,18.981669 40,17.0713773 40,15.0056461 C39.9982743,14.9877941 39.9982743,14.9681551 39.996553,14.9503031 L39.996553,14.9449466 L39.996553,14.9324511 C40.003447,14.8538996 39.9982743,14.7735564 39.981035,14.6967919 L37.2225715,2.69765349 C37.0691303,2.03709301 36.8070763,1.39435711 36.3605627,0.881969125 C35.9140491,0.369581142 35.2468496,0.00893056925 34.4830862,0.00893056925 L28.3871025,0.00893056925 C28.3457255,0.00178702793 28.3043486,4.57040393e-06 28.2629716,4.57040393e-06 C28.2302143,0.00178702793 28.197457,0.00357405586 28.1646997,0.00893056925 L20.1117516,0.00893056925 C20.0703747,0.00178702793 20.0307234,4.57040393e-06 19.9893465,4.57040393e-06 C19.9548679,4.57040393e-06 19.9203849,0.00357405586 19.8841806,0.00893056925 L11.8329979,0.00893056925 C11.795068,0.00357405586 11.7554167,4.57040393e-06 11.7174867,4.57040393e-06 L11.7168821,2.13162821e-14 Z M5.51894555,1.43716351 L10.9617251,1.43716351 L9.70660213,14.2914245 L1.53139763,14.2914245 L4.1209121,3.02949223 C4.23297634,2.53675699 4.42951576,2.10828162 4.6639984,1.83867349 C4.89848104,1.56906537 5.13637976,1.43697612 5.51912209,1.43697612 L5.51894555,1.43716351 Z M12.3497839,1.43716351 L19.3112632,1.43716351 L19.3112632,14.2914245 L11.0981035,14.2914245 L12.3497839,1.43716351 Z M20.6904949,1.43716351 L27.6506501,1.43716351 L28.9040077,14.2914245 L20.690848,14.2914245 L20.6904949,1.43716351 Z M29.0382676,1.43716351 L34.4828126,1.43716351 C34.8638248,1.43716351 35.0982809,1.56927561 35.3327724,1.83886088 C35.5689675,2.10844159 35.7672326,2.53689867 35.8793013,3.02967962 L38.4688144,14.2916119 L30.2936112,14.2916119 L29.0382676,1.43716351 Z M1.56044005,15.7196757 L9.4721548,15.7196757 C9.26182305,16.9818842 8.65322214,18.1370081 7.58086393,18.7886106 C6.30164302,19.5652136 4.73276138,19.5652136 3.45177505,18.7886106 C2.38113812,18.1369624 1.77083358,16.9836666 1.56044005,15.7196757 Z M11.2150624,15.7196757 L19.1267771,15.7196757 C18.9164454,16.9818842 18.3078445,18.1370081 17.2354863,18.7886106 C15.9562654,19.5652136 14.3873837,19.5652136 13.1063974,18.7886106 C12.0357605,18.1369624 11.4254559,16.9836666 11.2150624,15.7196757 Z M20.8696847,15.7196757 L28.7813995,15.7196757 C28.5710677,16.9818842 27.9624668,18.1370081 26.8901086,18.7886106 C25.6108877,19.5652136 24.042006,19.5652136 22.7610197,18.7886106 C21.6903828,18.1369624 21.0800783,16.9836666 20.8696847,15.7196757 Z M30.5243071,15.7196757 L38.4360218,15.7196757 C38.2256901,16.9818842 37.6170891,18.1370081 36.5447309,18.7886106 C35.26551,19.5652136 33.6966284,19.5652136 32.4156421,18.7886106 C31.3450051,18.1369624 30.7347006,16.9836666 30.5243071,15.7196757 Z M10.3425052,17.7960102 C10.8183291,18.7029612 11.5234807,19.4813467 12.4079103,20.0187348 C14.1147151,21.0559879 16.2266389,21.0559879 17.9336644,20.0187348 C18.8198153,19.4813467 19.519803,18.7029612 19.9973482,17.7960102 C20.4731721,18.7029612 21.1783237,19.4813467 22.0627533,20.0187348 C23.7695581,21.0559879 25.8814819,21.0559879 27.5885074,20.0187348 C28.4746583,19.4813467 29.174646,18.7029612 29.6521912,17.7960102 C30.1280152,18.7029612 30.8331667,19.4813467 31.7175963,20.0187348 C32.9864895,20.7899904 34.4777811,20.9845982 35.8621767,20.609688 L35.8621767,38.571832 L4.13984619,38.571832 L4.13984619,20.609688 C5.52252052,20.9846028 7.01209082,20.7882171 8.27926276,20.0187348 C9.16541365,19.4813467 9.86540136,18.7029612 10.3429466,17.7960102 L10.3425052,17.7960102 Z" id="Page-1"></path>
                            </g>
                        </g>
                    </g>
                </g>
            </g>
        </g>
    </g>
</svg>