<?xml version="1.0" encoding="UTF-8"?>
<svg width="16px" height="16px" viewBox="0 0 16 16" version="1.1" xmlns="http://www.w3.org/2000/svg" xmlns:xlink="http://www.w3.org/1999/xlink">
    <!-- Generator: Sketch 49.3 (51167) - http://www.bohemiancoding.com/sketch -->
    <title>payments icon</title>
    <desc>Created with Sketch.</desc>
    <defs></defs>
    <g id="Page-1" stroke="none" stroke-width="1" fill="none" fill-rule="evenodd">
        <g id="icons" transform="translate(-160.000000, -624.000000)" fill="#A7A7A7">
            <g id="payments-icon" transform="translate(160.000000, 624.000000)">
                <g id="Page-1">
                    <path d="M3.50561616,12.9408696 L2.37430303,12.9408696 C2.1508202,12.9408696 1.97026263,13.1351652 1.97026263,13.3756522 C1.97026263,13.6154609 2.1508202,13.8104348 2.37430303,13.8104348 L3.50561616,13.8104348 C3.72846869,13.8104348 3.90965657,13.6154609 3.90965657,13.3756522 C3.90965657,13.1351652 3.72846869,12.9408696 3.50561616,12.9408696 Z" id="Fill-1"></path>
                    <path d="M6.23870707,12.9408696 L5.10739394,12.9408696 C4.88391111,12.9408696 4.70335354,13.1351652 4.70335354,13.3756522 C4.70335354,13.6154609 4.88391111,13.8104348 5.10739394,13.8104348 L6.23870707,13.8104348 C6.4615596,13.8104348 6.64274747,13.6154609 6.64274747,13.3756522 C6.64274747,13.1351652 6.4615596,12.9408696 6.23870707,12.9408696 Z" id="Fill-2"></path>
                    <path d="M8.97292929,12.9408696 L7.84161616,12.9408696 C7.61876364,12.9408696 7.43757576,13.1351652 7.43757576,13.3756522 C7.43757576,13.6154609 7.61876364,13.8104348 7.84161616,13.8104348 L8.97292929,13.8104348 C9.19641212,13.8104348 9.3769697,13.6154609 9.3769697,13.3756522 C9.3769697,13.1351652 9.19641212,12.9408696 8.97292929,12.9408696 Z" id="Fill-3"></path>
                    <path d="M3.77519192,8.54417391 L2.80549495,8.54417391 C2.3446303,8.54553217 1.97089293,8.94702609 1.97026263,9.44363478 L1.97026263,10.0346609 C1.97089455,10.5312696 2.3446303,10.9327652 2.80549495,10.9341217 L3.77519192,10.9341217 C4.23668687,10.9327635 4.60979394,10.5312696 4.61105455,10.0346609 L4.61105455,9.44363478 C4.60979232,8.94702609 4.23668687,8.54553043 3.77519192,8.54417391 Z M3.80297051,10.0346609 C3.80297051,10.0509652 3.79034343,10.064553 3.77519192,10.064553 L2.80549495,10.064553 C2.79034343,10.064553 2.77834828,10.050967 2.77834828,10.0346609 L2.77834828,9.44363478 C2.77834828,9.42733043 2.79034343,9.41374261 2.80549495,9.41374261 L3.77519192,9.41374261 C3.79034343,9.41374261 3.80297051,9.42733043 3.80297051,9.44363478 L3.80297051,10.0346609 Z" id="Fill-4"></path>
                    <path d="M15.0157576,3.96191304 L7.20646465,0.173913043 C6.86807273,0.0108695652 6.48360404,-0.00067826087 6.13701818,0.141984348 C5.79106263,0.284646957 5.51201616,0.569288696 5.36113131,0.934106087 L3.1080404,6.32541043 L1.41737438,6.32541043 C0.637075394,6.32609043 0.00386311111,7.00544522 8.14545455e-05,7.84511478 L8.14545455e-05,14.4348539 C0.000712727273,15.2765581 0.635184485,15.9593059 1.41737438,15.9599842 L9.93632323,15.9599842 C10.7185131,15.9593049 11.3529859,15.2765581 11.3536162,14.4348539 L11.3536162,12.749393 C12.0524768,13.0829583 12.8706586,12.748713 13.1882828,12.0000713 L15.7154747,5.94772348 C16.0317576,5.19160174 15.7186311,4.30234957 15.0159838,3.96198435 L15.0157576,3.96191304 Z M6.87499152,0.974086957 L14.6842828,4.7546087 C14.9797333,4.8979513 15.1116768,5.2716 14.9784727,5.58953043 L14.6874343,6.28518261 L5.80856727,1.98431304 L6.09960566,1.28866087 L6.09897374,1.28866087 C6.23344323,0.972086957 6.5800404,0.83146087 6.87486061,0.974121739 L6.87499152,0.974086957 Z M10.5454562,14.4346087 C10.5448242,14.7960174 10.2720986,15.089496 9.93624404,15.0901743 L1.41729406,15.0901743 C1.08143952,15.089495 0.808712242,14.7960174 0.808081939,14.4346087 L0.808081939,7.84486957 C0.808713212,7.48346087 1.08143952,7.18998261 1.41729406,7.18930435 L9.93624404,7.18930435 C10.2720986,7.18998435 10.5448259,7.48346087 10.5454562,7.84486957 L10.5454562,14.4346087 Z M12.4444461,11.6363478 C12.3112388,11.9542783 11.9640097,12.0962609 11.6685592,11.9529217 L11.3453269,11.7980313 L11.3453269,7.84498783 C11.3446949,7.00328348 10.7102238,6.32053565 9.92803394,6.31985739 L3.99494303,6.31985739 L5.4772703,2.78246609 L14.356139,7.07794435 L12.4444461,11.6363478 Z" id="Fill-5"></path>
                </g>
            </g>
        </g>
    </g>
</svg>