<?xml version="1.0" encoding="UTF-8"?>
<svg width="12px" height="16px" viewBox="0 0 12 16" version="1.1" xmlns="http://www.w3.org/2000/svg" xmlns:xlink="http://www.w3.org/1999/xlink">
    <!-- Generator: Sketch 49.3 (51167) - http://www.bohemiancoding.com/sketch -->
    <title>pin icon</title>
    <desc>Created with Sketch.</desc>
    <defs></defs>
    <g id="Page-1" stroke="none" stroke-width="1" fill="none" fill-rule="evenodd">
        <g id="icons" transform="translate(-210.000000, -497.000000)">
            <g id="pin-icon" transform="translate(208.000000, 497.000000)">
                <g id="Icon-Pin">
                    <rect id="16X16" x="0" y="0" width="16" height="16"></rect>
                    <g id="Shape-Pin" transform="translate(2.000000, 0.000000)">
                        <path d="M8.5,6 C8.5,7.381 7.381,8.5 6,8.5 C4.619,8.5 3.5,7.381 3.5,6 C3.5,4.619 4.619,3.5 6,3.5 C7.381,3.5 8.5,4.619 8.5,6 Z" id="Stroke-1" stroke="#9B9B9B"></path>
                        <path d="M6.5,15.5 C6.5,15.776 6.276,16 6,16 C5.724,16 5.5,15.776 5.5,15.5 C5.5,15.224 5.724,15 6,15 C6.276,15 6.5,15.224 6.5,15.5" id="Fill-3" fill="#424242"></path>
                        <path d="M6,15.5 C6,15.5 8.827,11.698 10,10.031 C11.173,8.364 11.5,7.33 11.5,6 C11.5,2.962 9.038,0.5 6,0.5 C2.962,0.5 0.5,2.962 0.5,6 C0.5,7.33 0.827,8.364 2,10.031 C3.173,11.698 6,15.5 6,15.5" id="Stroke-5" stroke="#9B9B9B"></path>
                    </g>
                </g>
            </g>
        </g>
    </g>
</svg>