<?xml version="1.0" encoding="UTF-8"?>
<svg width="40px" height="40px" viewBox="0 0 40 40" version="1.1" xmlns="http://www.w3.org/2000/svg" xmlns:xlink="http://www.w3.org/1999/xlink">
    <!-- Generator: Sketch 51.2 (57519) - http://www.bohemiancoding.com/sketch -->
    <title>product bidding icon </title>
    <desc>Created with Sketch.</desc>
    <defs></defs>
    <g id="Page-1" stroke="none" stroke-width="1" fill="none" fill-rule="evenodd">
        <g id="onboarding-MVP_4-Copy-7" transform="translate(-768.000000, -697.000000)" fill="#9B9B9B">
            <g id="Group-36" transform="translate(712.000000, 678.000000)">
                <g id="product-bidding-icon-" transform="translate(56.000000, 19.000000)">
                    <path d="M37.1591489,16.0106383 C35.674766,16.0987362 34.4912766,17.287234 34.4114894,18.7732766 L33.4507234,27.2639149 C32.7658723,26.994634 31.9879574,27.1525447 31.4626809,27.6661745 L25.6248085,31.4078766 C25.4336511,31.5308809 25.3189574,31.7419872 25.3189574,31.9680468 L25.3189574,39.2820889 C25.3189574,39.4582847 25.3887702,39.6278336 25.5134383,39.7525145 C25.6381064,39.8771953 25.8076553,39.9469953 25.9838638,39.9469953 L32.6328,39.9469953 C32.8089957,39.9469953 32.9785447,39.8771826 33.1032255,39.7525145 C33.2279064,39.6278464 33.2977064,39.4582974 33.2977064,39.2820889 L33.2977064,38.3246421 L37.6743021,35.6534511 C39.1520468,34.5580468 40.0014511,32.809366 39.9465574,30.9708979 L39.9349191,19.2223872 C39.9332596,17.4520894 38.6882383,16.0109404 37.1590043,16.0109404 L37.1591489,16.0106383 Z M36.9596809,34.5344681 L32.288617,37.3851906 L32.288617,37.3835281 C32.0891489,37.5048728 31.9678043,37.7192983 31.9678043,37.9519962 L31.9678043,38.6168898 L26.6486553,38.6168898 L26.6486553,32.331783 L32.2337617,28.7513149 C32.2736553,28.726383 32.3118851,28.6964596 32.3451319,28.6615532 C32.5163404,28.4587617 32.8088766,28.4055702 33.0382809,28.5385489 C33.1263787,28.5900766 33.2028426,28.6582298 33.2643447,28.738017 C33.6217234,29.240017 33.6283745,29.9098894 33.280966,30.4185277 L29.0489234,33.3822723 L29.8119021,34.4726979 L34.1170085,31.4574213 L34.1153447,31.4557617 C34.1585617,31.4258383 34.1984553,31.3909362 34.2333617,31.3510426 C34.8949362,30.5481915 35.0528511,29.4444426 34.6472596,28.4869957 L35.7293872,18.9291234 L35.7293872,18.9274638 C35.7493362,18.1179745 36.3560681,17.4447404 37.1589191,17.340017 C37.9567915,17.340017 38.6033872,18.1844426 38.6050468,19.2233362 L38.6166851,30.9701447 C38.6732,32.3564426 38.0548553,33.6845702 36.9577915,34.5339745 L36.9596809,34.5344681 Z" id="Fill-1"></path>
                    <path d="M2.3487234,35.6680851 L6.70191489,38.3243404 L6.70191489,39.2817872 C6.70191489,39.457983 6.77172766,39.6275319 6.89639574,39.7522128 C7.02106383,39.8768936 7.19061277,39.9466936 7.36682128,39.9466936 L14.0157574,39.9466936 C14.1919532,39.9466936 14.3615021,39.8768809 14.486183,39.7522128 C14.6108638,39.6275447 14.6806638,39.4579957 14.6806638,39.2817872 L14.6806638,31.9677447 C14.6806638,31.7416809 14.5659702,31.5305957 14.3748128,31.4075745 L8.53694043,27.6658723 C8.01166383,27.1522553 7.23374894,26.9943404 6.54889787,27.2636128 L5.58813191,18.7644638 C5.50502128,17.2817404 4.32315319,16.0965915 2.84047234,16.0101234 C1.31119574,16.0101234 0.0662170213,17.4512723 0.0645574468,19.2215702 L0.0529217021,30.9700809 C-0.000269787234,32.8185064 0.859091915,34.5738255 2.34845362,35.6675277 L2.3487234,35.6680851 Z M1.39459574,19.2234043 C1.39625787,18.1845106 2.04451064,17.3400851 2.8407234,17.3400851 C3.64025532,17.4448043 4.24531915,18.1146809 4.26693617,18.9208511 L5.3507234,28.4868085 C4.9434766,29.4442553 5.10305106,30.548 5.76462128,31.3508511 C5.79952766,31.3907447 5.8377617,31.4256511 5.88097872,31.4555702 L10.1860851,34.4708468 L10.9490638,33.3804213 L6.71702128,30.4183362 C6.36961277,29.9113574 6.37626383,29.2398255 6.73198298,28.7394851 C6.79514894,28.658034 6.87161277,28.5915447 6.95804681,28.540017 C7.18909787,28.4070383 7.48166383,28.458566 7.65285532,28.6613617 C7.68609787,28.6962681 7.72266809,28.7261872 7.76422553,28.7511234 L13.351034,32.3315915 L13.351034,38.6166974 L8.03188511,38.6166974 L8.03188511,37.9518038 C8.03188511,37.7207528 7.91054043,37.5046549 7.71273617,37.3833357 L3.06677447,34.5492085 C1.95639362,33.7014638 1.32809574,32.3666979 1.38294681,30.9704 L1.39459574,19.2234043 Z" id="Fill-2"></path>
                    <path d="M12.6859574,6.03744681 C12.3186043,6.03744681 12.0210638,6.33498723 12.0210638,6.70234043 L12.0210638,21.33 C12.0210638,21.5061957 12.0908766,21.6757447 12.2155447,21.8004255 C12.3402128,21.9251064 12.5097617,21.9949064 12.6859702,21.9949064 L27.3136298,21.9949064 C27.4898255,21.9949064 27.6593745,21.9250936 27.7840553,21.8004255 C27.9087362,21.6757574 27.9785362,21.5062085 27.9785362,21.33 L27.9785362,6.70234043 C27.9785362,6.52614468 27.9087234,6.35659574 27.7840553,6.23191489 C27.6593872,6.10723404 27.4898383,6.03743404 27.3136298,6.03743404 L12.6859574,6.03744681 Z M26.6485106,20.6651064 L13.3506383,20.6651064 L13.3506383,7.36723404 L26.6485106,7.36723404 L26.6485106,20.6651064 Z" id="Fill-3"></path>
                    <path d="M22.4502128,1.62068085 L22.7078596,0.319148936 C21.8152213,0.142953191 20.9093064,0.0548553191 20.0000723,0.0531914894 L19.9867745,0.0531914894 L20.0000723,1.38297872 C20.8228809,1.38297872 21.6440298,1.46276596 22.4502,1.6206766 L22.4502128,1.62068085 Z" id="Fill-4"></path>
                    <path d="M22.7659574,27.7042553 C23.6619149,27.5247319 24.5379149,27.258766 25.3822979,26.906383 L24.8703404,25.6796596 L24.8686766,25.6796596 C24.1056979,25.9988085 23.3145064,26.2414894 22.5033149,26.404383 L22.7659574,27.7042553 Z" id="Fill-5"></path>
                    <path d="M27.7910638,25.6051064 C28.5490213,25.0948085 29.2554894,24.5113617 29.9004255,23.8630638 L28.9562553,22.9255745 C28.3728085,23.5123404 27.7345106,24.0392766 27.048,24.5013617 L27.7910638,25.6051064 Z" id="Fill-6"></path>
                    <path d="M14.7008511,26.9382979 L15.2061702,25.7082553 C14.4398723,25.3924298 13.7085106,25.0034894 13.0186809,24.5463404 L12.2872766,25.6517447 C13.0469362,26.1587234 13.854766,26.589234 14.7008511,26.9382979 Z" id="Fill-7"></path>
                    <path d="M33.6919149,11.2651064 C33.5123915,10.3691489 33.244766,9.49148936 32.8940426,8.64710638 L31.6673191,9.15906383 L31.6656596,9.15906383 C31.9848085,9.92370213 32.2258298,10.7148936 32.3870638,11.5260851 L33.6919149,11.2651064 Z" id="Fill-8"></path>
                    <path d="M30.5234043,21.007234 L31.6304681,21.743617 L31.6304681,21.7452809 C32.1374468,20.9839617 32.5679574,20.1744723 32.9153617,19.3300468 L31.6853191,18.8230681 C31.3711574,19.5877064 30.9822128,20.3190681 30.5234043,21.0072383 L30.5234043,21.007234 Z" id="Fill-9"></path>
                    <path d="M31.5974468,6.23659574 C31.0871489,5.4786383 30.5053617,4.77051064 29.8571064,4.12557447 L28.919617,5.06804255 C29.5047234,5.65314894 30.0316596,6.29310638 30.4937447,6.97961702 L31.5974468,6.23659574 Z" id="Fill-10"></path>
                    <path d="M33.9625532,14.0161702 L33.9625532,13.9879106 L32.632766,14.0161702 C32.632766,14.834 32.5546426,15.6518298 32.3983915,16.4546809 L33.7032426,16.7090043 C33.8761149,15.8213872 33.9625532,14.9204511 33.9625532,14.0161957 L33.9625532,14.0161702 Z" id="Fill-11"></path>
                    <path d="M27.7408511,2.39361702 C26.9811915,1.8866383 26.1717021,1.45446809 25.3272766,1.10540426 L24.8202979,2.33378723 C25.5832766,2.64961277 26.3146383,3.04025532 27.0028085,3.49902128 L27.7408511,2.39361702 Z" id="Fill-12"></path>
                    <path d="M17.5234043,1.62565957 L17.2640936,0.319148936 C16.3664766,0.49867234 15.488817,0.766297872 14.644434,1.11702128 L15.1547319,2.34540426 L15.1563957,2.34540426 C15.9193745,2.02791915 16.7122255,1.78689362 17.523417,1.62565957 L17.5234043,1.62565957 Z" id="Fill-13"></path>
                    <path d="M6.31319149,16.7953191 C6.4960383,17.6929362 6.76531915,18.5689362 7.11770213,19.4116596 L8.34442553,18.896383 C8.0252766,18.1350638 7.78093617,17.3422128 7.61638298,16.5326809 L6.31319149,16.7953191 Z" id="Fill-14"></path>
                    <path d="M7.60638298,11.5523404 L6.30319149,11.2946936 C6.12699574,12.1906511 6.03723404,13.1015447 6.03723404,14.0157574 L6.03723404,14.0722723 L7.36702128,14.0157574 C7.36702128,13.1879702 7.44680851,12.3635021 7.60638298,11.5523106 L7.60638298,11.5523404 Z" id="Fill-15"></path>
                    <path d="M9.49446809,7.0012766 L8.38906383,6.26157447 C7.88042553,7.02289362 7.44825532,7.8307234 7.09748936,8.67514894 L8.32587234,9.18378723 C8.64335745,8.41914894 9.034,7.68944681 9.49442553,7.0012766 L9.49446809,7.0012766 Z" id="Fill-16"></path>
                    <path d="M10.1629787,23.9229787 L11.1004681,22.9788085 C10.5137021,22.3970213 9.98344681,21.7570638 9.5213617,21.0722128 L8.41931915,21.8168936 L8.41931915,21.815234 C8.9312766,22.5731915 9.5147234,23.2796596 10.1630213,23.9229362 L10.1629787,23.9229787 Z" id="Fill-17"></path>
                    <path d="M12.9753191,3.51574468 L12.2339574,2.41034043 C11.476,2.9206383 10.7678723,3.50242553 10.1212766,4.1473617 L11.0620851,5.08817021 C11.6471915,4.50306383 12.2871489,3.97612766 12.9753191,3.51570213 L12.9753191,3.51574468 Z" id="Fill-18"></path>
                    <path d="M17.3221277,27.7225532 C18.204766,27.8921021 19.1007234,27.9785362 20,27.9785362 L20.0415574,27.9785362 L20,26.6487489 C19.1871489,26.6487489 18.3743404,26.5706255 17.5764681,26.416034 L17.3221277,27.7225532 Z" id="Fill-19"></path>
                    <path d="M15.2957447,13.6170213 L17.5630213,15.212766 L16.6986809,17.7908936 L16.697017,17.7908936 C16.6072553,18.0634979 16.7003447,18.3627234 16.9313915,18.5355745 C17.1607787,18.706783 17.476583,18.7101106 17.710966,18.5455489 L19.9998596,16.9348255 L22.2870936,18.5472085 L22.2870936,18.5488681 C22.5231319,18.7134298 22.8373064,18.7101064 23.0666681,18.5388936 C23.2977191,18.3660213 23.3924638,18.0668085 23.3010426,17.7942128 L22.4367021,15.2160851 L24.7039787,13.6203404 C24.940017,13.4541191 25.0430723,13.1515745 24.9549745,12.8756596 C24.8668766,12.5997277 24.6108936,12.4119149 24.3199957,12.4119149 L21.4991872,12.4119149 L20.6314851,9.81880851 L20.6298255,9.81880851 C20.5400638,9.54620426 20.2857447,9.36170213 19.998166,9.36170213 C19.7106,9.36170213 19.4562936,9.54620851 19.3665064,9.81880851 L18.4988043,12.4119149 L15.6779957,12.4119149 C15.388766,12.4119149 15.1311021,12.5997489 15.043017,12.8756596 C14.956583,13.1515915 15.0579745,13.4541277 15.2956766,13.6203404 L15.2957447,13.6170213 Z M18.979234,13.738366 C19.2651404,13.738366 19.5194468,13.5555191 19.6108936,13.2845787 L19.9998553,12.1210043 L20.388817,13.2862383 L20.388817,13.2845745 C20.4802383,13.5571787 20.7345617,13.7383617 21.0204766,13.7383617 L22.225583,13.7383617 L21.2681362,14.4148723 C21.0271106,14.5844213 20.9273787,14.8902766 21.0204638,15.1695106 L21.3961277,16.2931702 L20.3821702,15.5784043 C20.152783,15.417166 19.8469362,15.417166 19.6175319,15.5784043 L18.6035745,16.2931702 L18.9792383,15.1695106 C19.0739872,14.8902553 18.9725915,14.5827447 18.7332298,14.4148723 L17.775783,13.7400213 L18.979234,13.738366 Z" id="Fill-20"></path>
                </g>
            </g>
        </g>
    </g>
</svg>