<?xml version="1.0" encoding="UTF-8"?>
<svg width="16px" height="16px" viewBox="0 0 16 16" version="1.1" xmlns="http://www.w3.org/2000/svg" xmlns:xlink="http://www.w3.org/1999/xlink">
    <!-- Generator: Sketch 50.2 (55047) - http://www.bohemiancoding.com/sketch -->
    <title>profile settings icon</title>
    <desc>Created with Sketch.</desc>
    <defs></defs>
    <g id="Page-1" stroke="none" stroke-width="1" fill="none" fill-rule="evenodd">
        <g id="User-select" transform="translate(-1111.000000, -73.000000)">
            <g id="Group-13" transform="translate(1080.000000, 57.000000)">
                <g id="user-settings" transform="translate(31.000000, 16.000000)">
                    <g id="Group">
                        <g id="Page-1" transform="translate(7.578947, 7.578947)">
                            <path d="M7.98652632,3.27402105 L7.19902316,3.27402105 C7.07797053,3.27270568 6.96941474,3.19869221 6.92369684,3.08651789 C6.87797305,2.97402105 6.90363116,2.84539789 6.98948632,2.75954526 L7.54705263,2.20197895 C7.71580211,2.03257263 7.71580211,1.75856 7.54705263,1.58915368 L6.83619789,0.878298947 C6.66481263,0.714155789 6.39442105,0.714155789 6.22304421,0.878298947 L5.66152842,1.43158737 C5.57501895,1.51776842 5.44541053,1.54342737 5.33258526,1.49671916 C5.22008842,1.44968 5.14673263,1.33980968 5.14706105,1.21777179 L5.14706105,0.434546526 C5.14706105,0.195733895 4.95462316,0.00198231579 4.71581053,3.36842105e-06 L3.70528421,3.36842105e-06 C3.46514947,3.36842105e-06 3.27074105,0.194411789 3.27074105,0.434546526 L3.27074105,1.22204968 C3.26810947,1.34178863 3.19475453,1.44836547 3.08389474,1.49409179 C2.97304,1.53948632 2.84573895,1.51481516 2.75954947,1.43159158 L2.20198316,0.874025263 C2.03093474,0.709882105 1.76053474,0.709882105 1.58915789,0.874025263 L0.878303158,1.58488 C0.709553432,1.75428632 0.709553432,2.02829895 0.878303158,2.19803368 L1.43159158,2.75954947 C1.51777263,2.84605895 1.54343158,2.97566737 1.49672337,3.08849263 C1.44968421,3.20098947 1.33981389,3.27434526 1.217776,3.27401684 L0.434550484,3.27401684 C0.195737853,3.27401684 0.00198628295,3.46645474 7.33827284e-06,3.70526737 L7.33827284e-06,4.71579368 C7.33827284e-06,4.95592842 0.194415747,5.15033684 0.434550484,5.15033684 L1.22205389,5.15033684 C1.34474863,5.14803453 1.45626021,5.22204716 1.50132968,5.33651789 C1.54902737,5.44868632 1.52106695,5.57862316 1.43159326,5.66152 L0.874026947,6.21908632 C0.705277221,6.38849263 0.705277221,6.66250526 0.874026947,6.83191158 L1.58488168,7.54276632 C1.75626695,7.70690956 2.02665853,7.70690956 2.19803537,7.54276632 L2.75955116,6.98947789 C2.84606063,6.90329684 2.97566905,6.87763789 3.08849432,6.92434611 C3.20099116,6.97138526 3.27434695,7.08125558 3.27401853,7.20329347 L3.27401853,7.99079663 C3.27632084,8.22763874 3.46809853,8.41908297 3.70526905,8.42106192 L4.71579537,8.42106192 C4.830928,8.42106192 4.94145432,8.37533813 5.02302905,8.29376084 C5.10460379,8.21218358 5.15033011,8.10165979 5.15033011,7.98652716 L5.15033011,7.199024 C5.14802695,7.07632926 5.22204042,6.96481768 5.33651116,6.91974821 C5.449008,6.86909053 5.58124379,6.89540632 5.66579116,6.98520842 L6.22335747,7.54277474 L6.22302821,7.54277474 C6.39441347,7.70691789 6.66480505,7.70691789 6.83618189,7.54277474 L7.54703663,6.83192 C7.71578611,6.66251368 7.71578611,6.38850105 7.54703663,6.21909474 L6.98947032,5.66152842 C6.90328926,5.57501895 6.87763032,5.44541053 6.92433853,5.33258526 C6.97137768,5.22008842 7.081248,5.14673263 7.20328589,5.14706105 L7.99078905,5.14706105 C8.22763116,5.14475874 8.41907537,4.95298105 8.42105263,4.71581053 L8.42105263,3.70528421 C8.41973811,3.46647158 8.22533221,3.27370526 7.98651116,3.27403368 L7.98652632,3.27402105 Z M8.10856421,4.71149474 C8.10889263,4.74406063 8.096064,4.77531032 8.07303832,4.79800421 C8.05034105,4.82103074 8.01909053,4.83385937 7.98652884,4.83353095 L7.19902568,4.83353095 C6.950672,4.83386021 6.72665516,4.98352674 6.63158989,5.21313516 C6.53652463,5.44274358 6.58882695,5.70721516 6.76448253,5.88286989 L7.32632674,6.43945095 C7.37402442,6.48714863 7.37402442,6.56445305 7.32632674,6.61214989 L6.615472,7.32136253 C6.56777432,7.36873095 6.49079832,7.36873095 6.44310147,7.32136253 L5.88553516,6.76379621 C5.709552,6.58814147 5.44540042,6.53550989 5.21580042,6.63057516 C4.986192,6.72564042 4.83619621,6.94965726 4.83619621,7.19833937 L4.83619621,7.98584261 L4.83619621,7.98551368 C4.83652463,8.01807958 4.823696,8.04932926 4.80066947,8.07235158 C4.77764295,8.09504884 4.74672253,8.10787832 4.71416,8.10787832 L3.70531789,8.10787832 C3.672752,8.10787832 3.64183074,8.09504968 3.61880842,8.07235158 C3.59578189,8.04932505 3.58295326,8.01807537 3.58328168,7.98551368 L3.58328168,7.19735411 C3.58624168,6.94801516 3.43525642,6.72235537 3.20334905,6.62991832 C2.97406905,6.53321095 2.70894063,6.58583916 2.53394274,6.76281095 L1.97637642,7.32037726 C1.92867874,7.36807495 1.85137432,7.36807495 1.80400589,7.32037726 L1.099728,6.61050779 C1.05235958,6.56281011 1.05235958,6.48550568 1.099728,6.43780884 L1.65729432,5.88024253 C1.83361432,5.70491621 1.88624589,5.44076463 1.79117221,5.21083621 C1.69577853,4.98122779 1.47143326,4.83188884 1.22275116,4.83287411 L0.435576084,4.83287411 C0.403010189,4.83320253 0.371760505,4.82037389 0.348738189,4.79734737 C0.326040926,4.77432084 0.313211453,4.74307116 0.313211453,4.71083789 L0.313211453,3.70528 C0.313211453,3.67271411 0.326040084,3.64179284 0.348738189,3.61877053 C0.371764716,3.595744 0.4030144,3.58291537 0.435576084,3.58324379 L1.22307958,3.58324379 L1.22275032,3.58324379 C1.47143242,3.58291453 1.69544926,3.433248 1.79051453,3.20363958 C1.88557979,2.97403116 1.83294905,2.70955958 1.65729347,2.533904 L1.09972716,1.97633853 C1.05235874,1.92864084 1.05235874,1.85133558 1.09972716,1.80396716 L1.81058189,1.09475537 C1.85827958,1.04705768 1.935584,1.04705768 1.98328084,1.09475537 L2.54084716,1.65232168 C2.71650189,1.82797642 2.98065347,1.88027958 3.21058189,1.78521432 C3.44019032,1.69014905 3.58985768,1.46613221 3.58985768,1.21777853 L3.58985768,0.431269053 C3.58985768,0.398703158 3.60235789,0.367453474 3.62538442,0.344431158 C3.64841095,0.321733895 3.67966063,0.308904421 3.71189389,0.309233684 L4.71585179,0.309233684 C4.74841768,0.308904421 4.77933895,0.321733895 4.80236126,0.344431158 C4.82538779,0.367457684 4.83821642,0.398707368 4.837888,0.431269053 L4.837888,1.21877221 L4.837888,1.21844295 C4.83821642,1.46712505 4.98788379,1.69114189 5.21749221,1.78620716 C5.44710063,1.88127242 5.71157221,1.82864168 5.88722695,1.65298611 L6.44479326,1.09476295 C6.49249095,1.04706526 6.56979537,1.04706526 6.61716379,1.09476295 L7.32637642,1.80561768 C7.37407411,1.85331537 7.37407411,1.93029137 7.32637642,1.97798821 L6.76881011,2.53555453 C6.59315537,2.71153768 6.54085221,2.97568926 6.63591747,3.20528926 C6.73098274,3.43489768 6.95499958,3.58489347 7.20335326,3.58489347 L7.99151326,3.58489347 C8.02374989,3.58456421 8.05467116,3.59706442 8.07769432,3.61976168 C8.10039158,3.64245895 8.11354947,3.67305095 8.11387874,3.70528589 L8.11387874,4.71151747 L8.10856421,4.71149474 Z" id="Fill-1" fill="#9B9B9B"></path>
                            <path d="M4.21052632,2.80656842 C3.83848421,2.80689768 3.48191158,2.95492211 3.21911579,3.21808 C2.95595789,3.48123789 2.80826105,3.83781895 2.80858947,4.20982737 C2.80858947,4.58186947 2.95628632,4.93877053 3.21944421,5.20157474 C3.48227368,5.46473263 3.83918316,5.61242947 4.21119158,5.61242947 C4.58323368,5.61275874 4.93980632,5.46506105 5.20293895,5.20190316 C5.46609684,4.93907368 5.61412211,4.58249263 5.61445053,4.21049263 C5.61445053,3.83812211 5.46642526,3.48121263 5.20326737,3.21773474 C4.93978105,2.95457684 4.58287158,2.80655158 4.21050947,2.80655158 L4.21052632,2.80656842 Z M4.21052632,5.30526316 C3.76776421,5.30526316 3.36842105,5.03848421 3.19898947,4.62960842 C3.02958316,4.22039579 3.12333137,3.74969263 3.43648842,3.43651368 C3.74964547,3.12333474 4.22037053,3.02960842 4.62958316,3.19901474 C5.03846737,3.36842105 5.30523789,3.76776421 5.30523789,4.21055158 C5.30523789,4.81515789 4.81510737,5.30528842 4.21050105,5.30528842 L4.21052632,5.30526316 Z" id="Fill-2" fill="#A7A7A7"></path>
                        </g>
                        <path d="M6.73659427,12.983622 C6.58230423,12.983622 6.42522933,12.9764068 6.27370995,12.9641962 C6.24651347,12.961976 6.21987255,12.9592009 6.19267749,12.9592009 C6.03838745,12.9447707 5.88408321,12.9275643 5.72979317,12.9025886 C5.7225781,12.9025886 5.71536303,12.9003685 5.71036732,12.8975934 C5.38679729,12.843756 5.06876857,12.7627229 4.75740363,12.6600409 C4.74741364,12.6578215 4.73797778,12.6528258 4.72798779,12.6500509 C4.57369775,12.5984343 4.42162424,12.5396026 4.27232138,12.4763237 C4.27232138,12.4763237 4.27010202,12.4763237 4.27010202,12.4741043 C4.12801708,12.4130518 3.98814866,12.3464495 3.85383577,12.273182 C3.83663071,12.263192 3.81720485,12.2559769 3.79999837,12.2459855 C3.67511849,12.1799387 3.55245798,12.1061199 3.43258092,12.0306416 C3.39595,12.0084408 3.36153845,11.9867956 3.32490753,11.9618185 C3.21445923,11.8885566 3.10456221,11.8125156 2.99689024,11.7342552 C2.98467946,11.7270402 2.97468947,11.7170502 2.96525361,11.7098337 C2.97246868,11.704838 2.97968376,11.6998437 2.98967517,11.6976229 L4.92728749,10.6419744 C5.26030617,10.4604893 5.46843219,10.1102642 5.46843219,9.73285814 L5.46843219,8.85093692 L5.41181987,8.78211382 C5.40682416,8.77489874 4.87789308,8.13052649 4.67697077,7.25853701 L4.65477,7.16029806 L4.56374754,7.10424129 C4.44608416,7.02820312 4.37504453,6.90110245 4.37504453,6.76346477 L4.37504453,5.89651931 C4.37504453,5.78385021 4.42388623,5.67617398 4.51213377,5.5979136 L4.59316623,5.52465034 L4.59316623,4.16040759 L4.59094544,4.12877095 C4.59094544,4.12377667 4.5176836,3.53323614 4.93395269,3.06091738 C5.28639439,2.65574797 5.89358017,2.44983847 6.73672641,2.44983847 C7.57703095,2.44983847 8.18201441,2.65297731 8.53722676,3.05480773 C8.95127648,3.52269343 8.88522119,4.1226613 8.88245054,4.12766269 L8.88023117,5.52408768 L8.96126363,5.59734952 C9.04951117,5.67560706 9.09835286,5.78328187 9.09835286,5.89595523 L9.09835286,6.7629007 C9.09835286,6.93662795 8.9784687,7.09591938 8.8091816,7.14975536 C8.67930744,7.1891612 8.60825928,7.32625327 8.64767365,7.45611891 C8.68707948,7.58599307 8.82417156,7.65704122 8.95403719,7.61762686 C9.33367394,7.49996348 9.58841661,7.15695907 9.58841661,6.7629007 L9.58841661,5.89595523 C9.58841661,5.68282782 9.51015907,5.47691833 9.37028781,5.31541037 L9.37028781,4.17151294 C9.38249859,4.04385815 9.4291195,3.32622122 8.90962144,2.73617088 C8.45617014,2.22166711 7.72632243,1.95970511 6.73671504,1.95970511 C5.74710764,1.95970511 5.0172031,2.22168132 4.56381006,2.73617088 C4.0443191,3.32893504 4.09093717,4.04657766 4.10314227,4.17151294 L4.10314227,5.31541037 C3.9632767,5.47691833 3.88501347,5.68282782 3.88501347,5.89595523 L3.88501347,6.7629007 C3.88501347,7.03263475 4.00489764,7.28462239 4.21303076,7.45390238 C4.41172234,8.23036816 4.82077067,8.82091579 4.97007353,9.01911008 L4.97007353,9.72731825 C4.97007353,9.92824056 4.85962522,10.1119422 4.68590365,10.2074091 L2.74829133,11.2630575 C2.68723885,11.2974691 2.62563224,11.3363194 2.5645755,11.3807209 C1.29302967,10.2373776 0.489425669,8.57894798 0.489425669,6.73681674 C0.489425669,3.29239364 3.29233456,0.490052377 6.73675909,0.490052377 C10.1806138,0.490052377 12.9835235,3.29239364 12.9835235,6.73681674 C12.9835235,6.87168661 13.0939718,6.98158647 13.2282932,6.98158647 C13.363163,6.98158647 13.4730629,6.87113816 13.4730629,6.73681674 C13.473617,3.02314268 10.45049,0 6.73681592,0 C3.02257352,0 0,3.02314268 0,6.73681674 C0,8.69886767 0.842521094,10.4676831 2.1878245,11.6998437 L2.18005387,11.7048394 L2.39818267,11.8885552 C2.41261282,11.900766 2.42759851,11.910756 2.44202866,11.9229668 C2.55691712,12.0184308 2.67958047,12.1116698 2.8022424,12.1999187 C2.84164824,12.2293346 2.88049994,12.2565311 2.92212657,12.2853913 C3.05200073,12.3758597 3.18687343,12.4618893 3.32395698,12.5423662 C3.35337283,12.5595712 3.38500946,12.5767777 3.41442531,12.5939828 C3.56372816,12.6794554 3.7180182,12.7604921 3.8750931,12.8343051 C3.88730246,12.8393002 3.89729387,12.8442955 3.90950465,12.8487353 C4.42123777,13.0862871 4.96792378,13.2605542 5.53850848,13.3654556 C5.55293863,13.3676756 5.56792433,13.3704507 5.58235447,13.3726709 C5.75885238,13.4043075 5.93978335,13.4265083 6.12128265,13.4437134 C6.14348342,13.4459333 6.16512864,13.4459333 6.18732941,13.4487085 C6.36936864,13.4636942 6.55031381,13.4736842 6.73680029,13.4736842 C6.87167016,13.4736842 6.98157001,13.3632359 6.98157001,13.2289145 C6.98157001,13.0940446 6.87112171,12.9835906 6.73680029,12.9835906 L6.73659427,12.983622 Z" id="Fill-3" fill="#979797"></path>
                    </g>
                </g>
            </g>
        </g>
    </g>
</svg>