<?xml version="1.0" encoding="UTF-8"?>
<svg width="16px" height="16px" viewBox="0 0 16 16" version="1.1" xmlns="http://www.w3.org/2000/svg" xmlns:xlink="http://www.w3.org/1999/xlink">
    <!-- Generator: Sketch 49.3 (51167) - http://www.bohemiancoding.com/sketch -->
    <title>recommendations symbol</title>
    <desc>Created with Sketch.</desc>
    <defs></defs>
    <g id="Page-1" stroke="none" stroke-width="1" fill="none" fill-rule="evenodd">
        <g id="icons" transform="translate(-63.000000, -865.000000)" fill="#9B9B9B">
            <g id="recommendations-symbol" transform="translate(63.000000, 865.000000)">
                <g id="Page-1">
                    <path d="M15.9916021,6.14377954 C15.967158,6.04481386 15.8944714,5.9956582 15.7979797,5.97076074 L13.5941626,5.65025987 C12.6736741,3.97242054 11.1240694,2.81303355 9.28368538,2.44273441 L8.21844948,0.148121335 C8.17020527,0.0491556591 8.09751702,0 8.00038966,0 C7.9032623,0 7.83057899,0.0491556591 7.78232984,0.148121335 L6.71709394,2.44273441 C4.87670987,2.81303355 3.32647942,3.99735323 2.40661673,5.65025987 L0.202798969,5.97076074 C0.10566832,5.99566659 0.032988299,6.04482225 0.00917660106,6.14377954 C-0.0152674407,6.24274521 0.00917660106,6.34105989 0.0818648553,6.39022058 L1.65590767,7.96910095 C1.41403615,9.94324672 2.0431524,11.8673929 3.35088558,13.2989254 L2.96364085,15.7166922 C2.93919681,15.8156579 2.98808489,15.9139726 3.0607715,15.9631333 C3.13345975,16.0122889 3.23058217,16.0122889 3.32708047,15.9631333 L5.38549142,14.7539146 C7.03222018,15.5187745 8.94522499,15.5187745 10.5919537,14.7539146 L12.6503647,15.9631333 C12.723053,16.0122889 12.8439871,16.0122889 12.9166737,15.9631333 C12.9893619,15.9139776 13.0376061,15.8150119 13.0138043,15.7166922 L12.6265596,13.2989254 C13.9342928,11.8924262 14.5878135,9.96807874 14.3215375,7.96910095 L15.8955797,6.39022058 C15.9914242,6.34172096 16.0152244,6.2427536 15.9914242,6.14377954 L15.9916021,6.14377954 Z M12.9644206,5.55195527 L10.5669482,5.20655526 L9.54996142,3.01026357 C10.9541764,3.38056271 12.164802,4.29354221 12.9642888,5.5518546 L12.9644206,5.55195527 Z M6.4501592,3.01036424 L5.43313952,5.20665593 L3.01129553,5.55205594 C3.83465991,4.29367643 5.0453349,3.38076405 6.4501592,3.01046491 L6.4501592,3.01036424 Z M2.11527748,8.41418139 L3.88287613,10.1660134 L3.47119394,12.6827725 C2.5268938,11.4984528 1.99427585,10.0178602 2.11521161,8.41418139 L2.11527748,8.41418139 Z M5.9169155,14.4347723 L7.99969803,13.2255535 L10.0824806,14.4347723 C8.75030994,14.9525371 7.24895439,14.9525371 5.91675082,14.4347723 L5.9169155,14.4347723 Z M12.5282021,12.6579404 L12.1165199,10.1411814 L13.8841186,8.38934937 C14.0050511,10.018028 13.4968739,11.4985534 12.5281363,12.6579404 L12.5282021,12.6579404 Z M11.7048377,9.89470683 C11.6565935,9.94386248 11.6321495,10.0428282 11.6321495,10.1168863 L12.4555139,15.2735581 L8.12066508,12.7319667 C8.07242087,12.7077169 8.04797683,12.682811 7.99973261,12.682811 C7.9514884,12.682811 7.92704436,12.682811 7.87880015,12.7077169 L3.54395136,15.2736369 L4.36731574,10.1169652 C4.39175978,10.0429037 4.34287169,9.96884383 4.29462748,9.89478568 L0.759265833,6.39095379 L5.62683105,5.67525465 C5.6995193,5.67525465 5.77220591,5.60119314 5.82045342,5.52713331 L7.99973426,0.814082613 L10.1790151,5.52713331 C10.2034591,5.60119482 10.2761458,5.65035048 10.3726375,5.67525465 L15.240203,6.39095379 L11.7048377,9.89470683 Z" id="Fill-1"></path>
                    <path d="M8.16494845,6.02150538 C6.57482426,6.02150538 5.27835052,7.33503869 5.27835052,8.94623656 C5.27835052,10.557367 6.57475772,11.8709677 8.16494845,11.8709677 C9.75513919,11.8709677 11.0515464,10.5574344 11.0515464,8.94623656 C11.0515464,7.31075021 9.75513919,6.02150538 8.16494845,6.02150538 Z M8.16494845,11.3757591 C6.84385412,11.3757591 5.76776794,10.2854236 5.76776794,8.94691077 C5.76776794,7.6083979 6.84388739,6.51806243 8.16494845,6.51806243 C9.48600952,6.51806243 10.562129,7.6083979 10.562129,8.94691077 C10.562129,10.2848 9.48600952,11.3757591 8.16494845,11.3757591 Z" id="Fill-2"></path>
                    <path d="M9.32026654,7.97959657 L7.62087031,9.55147091 L7.02259039,8.75294599 C6.9507457,8.65288184 6.78352583,8.62836117 6.6875289,8.70324472 C6.59152546,8.77812828 6.56799987,8.95242114 6.63984457,9.0524785 L7.40596448,10.0504735 C7.45364881,10.1001748 7.50196792,10.1505376 7.57380448,10.1505376 L7.59796484,10.1505376 C7.64564918,10.1505376 7.71749387,10.1253553 7.76580484,10.0756541 L9.65660897,8.32948519 C9.75261241,8.22942104 9.75261241,8.08030877 9.68076934,7.98025141 C9.5834931,7.90470623 9.4156466,7.88018726 9.32028444,7.97958809 L9.32026654,7.97959657 Z" id="Fill-3"></path>
                </g>
            </g>
        </g>
    </g>
</svg>