<?xml version="1.0" encoding="UTF-8"?>
<svg width="16px" height="16px" viewBox="0 0 16 16" version="1.1" xmlns="http://www.w3.org/2000/svg" xmlns:xlink="http://www.w3.org/1999/xlink">
    <!-- Generator: Sketch 49.3 (51167) - http://www.bohemiancoding.com/sketch -->
    <title>search</title>
    <desc>Created with Sketch.</desc>
    <defs></defs>
    <g id="Page-1" stroke="none" stroke-width="1" fill="none" fill-rule="evenodd">
        <g id="icons" transform="translate(-112.000000, -305.000000)" fill="#9B9B9B">
            <g id="search" transform="translate(112.000000, 305.000000)">
                <g id="Page-1">
                    <path d="M11.7333424,5.81818182 C9.57338971,5.81818182 7.76006025,7.48180945 7.49330881,9.63636364 L5.86665415,9.63636364 C5.86665415,9.33635491 5.6266632,9.09090909 5.33332196,9.09090909 L0.533332196,9.09090909 C0.239990955,9.09090909 0,9.33635491 0,9.63636364 L0,10.7272727 C0,11.0272815 0.239990955,11.2727273 0.533332196,11.2727273 L5.33332196,11.2727273 C5.6266632,11.2727273 5.86665415,11.0272815 5.86665415,10.7272727 L7.49330881,10.7272727 C7.75997491,12.8818618 9.5465951,14.5454545 11.7333424,14.5454545 C14.0800041,14.5454545 16,12.5818182 16,10.1818182 C16,7.78181818 14.0800041,5.81818182 11.7333424,5.81818182 Z M11.7333424,13.4545455 C9.97343152,13.4545455 8.53334926,11.9818182 8.53334926,10.1818182 C8.53334926,8.38181818 9.97334619,6.90909091 11.7333424,6.90909091 C13.4933387,6.90909091 14.9333356,8.38181818 14.9333356,10.1818182 C14.9333356,11.9818182 13.4933387,13.4545455 11.7333424,13.4545455 Z" id="Fill-1"></path>
                    <path d="M2,1.63639855 L14,1.63639855 L14,5.97280582 C14.1909178,6.054624 14.3818182,6.16372364 14.5454545,6.27281455 L14.5454545,0 L1.45454545,0 L1.45454545,8.72727273 L2,8.72727273 L2,1.63639855 Z M4.45445818,0.545489455 C4.61809455,0.545489455 4.72718545,0.654580364 4.72718545,0.818216727 C4.72718545,0.981853091 4.61809455,1.090944 4.45445818,1.090944 C4.29082182,1.090944 4.18173091,0.981853091 4.18173091,0.818216727 C4.18173091,0.654580364 4.29082182,0.545489455 4.45445818,0.545489455 Z M3.36354909,0.545489455 C3.52718545,0.545489455 3.63627636,0.654580364 3.63627636,0.818216727 C3.63627636,0.981853091 3.52718545,1.090944 3.36354909,1.090944 C3.19991273,1.090944 3.09082182,0.981853091 3.09082182,0.818216727 C3.09082182,0.654580364 3.19991273,0.545489455 3.36354909,0.545489455 Z M2.27264,0.545489455 C2.43627636,0.545489455 2.54536727,0.654580364 2.54536727,0.818216727 C2.54536727,0.981853091 2.43627636,1.090944 2.27264,1.090944 C2.10900364,1.090944 1.99991273,0.981853091 1.99991273,0.818216727 C1.99991273,0.654580364 2.10900364,0.545489455 2.27264,0.545489455 Z" id="Fill-2"></path>
                    <path d="M14,15.4545455 L2,15.4545455 L2,11.6363636 L1.45454545,11.6363636 L1.45454545,16 L14.5454545,16 L14.5454545,14.0908218 C14.3818182,14.1999127 14.1909178,14.3090036 14,14.3908305 L14,15.4545455 Z" id="Fill-4"></path>
                </g>
            </g>
        </g>
    </g>
</svg>