<?xml version="1.0" encoding="UTF-8"?>
<svg width="16px" height="16px" viewBox="0 0 16 16" version="1.1" xmlns="http://www.w3.org/2000/svg" xmlns:xlink="http://www.w3.org/1999/xlink">
    <!-- Generator: Sketch 50.2 (55047) - http://www.bohemiancoding.com/sketch -->
    <title>user custom</title>
    <desc>Created with Sketch.</desc>
    <defs></defs>
    <g id="user-custom" stroke="none" stroke-width="1" fill="none" fill-rule="evenodd">
        <g id="Group" fill="#C7C7C7">
            <path d="M6.73659427,12.983622 C6.58230423,12.983622 6.42522933,12.9764068 6.27370995,12.9641962 C6.24651347,12.961976 6.21987255,12.9592009 6.19267749,12.9592009 C6.03838745,12.9447707 5.88408321,12.9275643 5.72979317,12.9025886 C5.7225781,12.9025886 5.71536303,12.9003685 5.71036732,12.8975934 C5.38679729,12.843756 5.06876857,12.7627229 4.75740363,12.6600409 C4.74741364,12.6578215 4.73797778,12.6528258 4.72798779,12.6500509 C4.57369775,12.5984343 4.42162424,12.5396026 4.27232138,12.4763237 C4.27232138,12.4763237 4.27010202,12.4763237 4.27010202,12.4741043 C4.12801708,12.4130518 3.98814866,12.3464495 3.85383577,12.273182 C3.83663071,12.263192 3.81720485,12.2559769 3.79999837,12.2459855 C3.67511849,12.1799387 3.55245798,12.1061199 3.43258092,12.0306416 C3.39595,12.0084408 3.36153845,11.9867956 3.32490753,11.9618185 C3.21445923,11.8885566 3.10456221,11.8125156 2.99689024,11.7342552 C2.98467946,11.7270402 2.97468947,11.7170502 2.96525361,11.7098337 C2.97246868,11.704838 2.97968376,11.6998437 2.98967517,11.6976229 L4.92728749,10.6419744 C5.26030617,10.4604893 5.46843219,10.1102642 5.46843219,9.73285814 L5.46843219,8.85093692 L5.41181987,8.78211382 C5.40682416,8.77489874 4.87789308,8.13052649 4.67697077,7.25853701 L4.65477,7.16029806 L4.56374754,7.10424129 C4.44608416,7.02820312 4.37504453,6.90110245 4.37504453,6.76346477 L4.37504453,5.89651931 C4.37504453,5.78385021 4.42388623,5.67617398 4.51213377,5.5979136 L4.59316623,5.52465034 L4.59316623,4.16040759 L4.59094544,4.12877095 C4.59094544,4.12377667 4.5176836,3.53323614 4.93395269,3.06091738 C5.28639439,2.65574797 5.89358017,2.44983847 6.73672641,2.44983847 C7.57703095,2.44983847 8.18201441,2.65297731 8.53722676,3.05480773 C8.95127648,3.52269343 8.88522119,4.1226613 8.88245054,4.12766269 L8.88023117,5.52408768 L8.96126363,5.59734952 C9.04951117,5.67560706 9.09835286,5.78328187 9.09835286,5.89595523 L9.09835286,6.7629007 C9.09835286,6.93662795 8.9784687,7.09591938 8.8091816,7.14975536 C8.67930744,7.1891612 8.60825928,7.32625327 8.64767365,7.45611891 C8.68707948,7.58599307 8.82417156,7.65704122 8.95403719,7.61762686 C9.33367394,7.49996348 9.58841661,7.15695907 9.58841661,6.7629007 L9.58841661,5.89595523 C9.58841661,5.68282782 9.51015907,5.47691833 9.37028781,5.31541037 L9.37028781,4.17151294 C9.38249859,4.04385815 9.4291195,3.32622122 8.90962144,2.73617088 C8.45617014,2.22166711 7.72632243,1.95970511 6.73671504,1.95970511 C5.74710764,1.95970511 5.0172031,2.22168132 4.56381006,2.73617088 C4.0443191,3.32893504 4.09093717,4.04657766 4.10314227,4.17151294 L4.10314227,5.31541037 C3.9632767,5.47691833 3.88501347,5.68282782 3.88501347,5.89595523 L3.88501347,6.7629007 C3.88501347,7.03263475 4.00489764,7.28462239 4.21303076,7.45390238 C4.41172234,8.23036816 4.82077067,8.82091579 4.97007353,9.01911008 L4.97007353,9.72731825 C4.97007353,9.92824056 4.85962522,10.1119422 4.68590365,10.2074091 L2.74829133,11.2630575 C2.68723885,11.2974691 2.62563224,11.3363194 2.5645755,11.3807209 C1.29302967,10.2373776 0.489425669,8.57894798 0.489425669,6.73681674 C0.489425669,3.29239364 3.29233456,0.490052377 6.73675909,0.490052377 C10.1806138,0.490052377 12.9835235,3.29239364 12.9835235,6.73681674 C12.9835235,6.87168661 13.0939718,6.98158647 13.2282932,6.98158647 C13.363163,6.98158647 13.4730629,6.87113816 13.4730629,6.73681674 C13.473617,3.02314268 10.45049,0 6.73681592,0 C3.02257352,0 0,3.02314268 0,6.73681674 C0,8.69886767 0.842521094,10.4676831 2.1878245,11.6998437 L2.18005387,11.7048394 L2.39818267,11.8885552 C2.41261282,11.900766 2.42759851,11.910756 2.44202866,11.9229668 C2.55691712,12.0184308 2.67958047,12.1116698 2.8022424,12.1999187 C2.84164824,12.2293346 2.88049994,12.2565311 2.92212657,12.2853913 C3.05200073,12.3758597 3.18687343,12.4618893 3.32395698,12.5423662 C3.35337283,12.5595712 3.38500946,12.5767777 3.41442531,12.5939828 C3.56372816,12.6794554 3.7180182,12.7604921 3.8750931,12.8343051 C3.88730246,12.8393002 3.89729387,12.8442955 3.90950465,12.8487353 C4.42123777,13.0862871 4.96792378,13.2605542 5.53850848,13.3654556 C5.55293863,13.3676756 5.56792433,13.3704507 5.58235447,13.3726709 C5.75885238,13.4043075 5.93978335,13.4265083 6.12128265,13.4437134 C6.14348342,13.4459333 6.16512864,13.4459333 6.18732941,13.4487085 C6.36936864,13.4636942 6.55031381,13.4736842 6.73680029,13.4736842 C6.87167016,13.4736842 6.98157001,13.3632359 6.98157001,13.2289145 C6.98157001,13.0940446 6.87112171,12.9835906 6.73680029,12.9835906 L6.73659427,12.983622 Z" id="Fill-3"></path>
        </g>
        <g id="Group-6" transform="translate(8.000000, 8.000000)" fill="#9B9B9B">
            <path d="M5.459904,0.958596 L3.906984,0.958596 C3.779952,0.6 3.44058,0.36 3.059952,0.36 C2.679324,0.36 2.339952,0.6 2.21292,0.958596 L0.66,0.958596 C0.494532,0.958596 0.36,1.093128 0.36,1.258596 C0.36,1.424064 0.494532,1.558596 0.66,1.558596 L2.21292,1.558596 C2.339952,1.917192 2.679324,2.157192 3.059952,2.157192 C3.44058,2.157192 3.779952,1.917192 3.906984,1.558596 L5.459904,1.558596 C5.625372,1.558596 5.759904,1.424064 5.759904,1.258596 C5.759904,1.093128 5.625372,0.958596 5.459904,0.958596 Z M3.059904,1.558596 C2.9385,1.558596 2.829276,1.4854704 2.782872,1.373436 C2.7364656,1.2614052 2.7617784,1.132032 2.8475592,1.046244 C2.93334,0.9604632 3.0627192,0.9351504 3.1747512,0.9815568 C3.286782,1.0279632 3.3599112,1.1371848 3.3599112,1.2585888 C3.3599112,1.338276 3.3285048,1.4146848 3.2722548,1.4709288 C3.2160048,1.5271728 3.1395948,1.5585852 3.0599148,1.5585852 L3.059904,1.558596 Z" id="Fill-2"></path>
            <path d="M5.459904,4.558596 L3.906984,4.558596 C3.779952,4.2 3.44058,3.96 3.059952,3.96 C2.679324,3.96 2.339952,4.2 2.21292,4.558596 L0.66,4.558596 C0.494532,4.558596 0.36,4.693128 0.36,4.858596 C0.36,5.024064 0.494532,5.158596 0.66,5.158596 L2.21292,5.158596 C2.339952,5.517192 2.679324,5.757192 3.059952,5.757192 C3.44058,5.757192 3.779952,5.517192 3.906984,5.158596 L5.459904,5.158596 C5.625372,5.158596 5.759904,5.024064 5.759904,4.858596 C5.759904,4.693128 5.625372,4.558596 5.459904,4.558596 Z M3.059904,5.158596 C2.9385,5.158596 2.829276,5.0854704 2.782872,4.973436 C2.7364656,4.8614052 2.7617784,4.732032 2.8475592,4.646244 C2.93334,4.5604632 3.0627192,4.5351504 3.1747512,4.5815568 C3.286782,4.6279632 3.3599112,4.7371848 3.3599112,4.8585888 C3.3599112,4.938276 3.3285048,5.0146848 3.2722548,5.0709288 C3.2160048,5.1271728 3.1395948,5.1585852 3.0599148,5.1585852 L3.059904,5.158596 Z" id="Fill-3"></path>
            <path d="M4.859952,2.16000088 C4.479324,2.16093808 4.139952,2.40093688 4.01292,2.76000088 L0.66,2.76000088 C0.494532,2.76000088 0.36,2.89453288 0.36,3.06000088 C0.36,3.22546888 0.494532,3.36000088 0.66,3.36000088 L4.01292,3.36000088 C4.1249508,3.67734088 4.404792,3.90562888 4.73808,3.95156488 C5.071356,3.99750208 5.402304,3.85406488 5.596356,3.57890488 C5.79042,3.30421288 5.81526,2.94421288 5.660106,2.64516088 C5.504946,2.34656488 5.19651,2.15953288 4.859946,2.16000088 L4.859952,2.16000088 Z M4.859952,3.36000088 C4.738548,3.36000088 4.629324,3.28687528 4.58292,3.17484088 C4.5365136,3.06281008 4.5618264,2.93343688 4.6476072,2.84764888 C4.733388,2.76186808 4.8627672,2.73655528 4.9747992,2.78296168 C5.08683,2.82936808 5.1599592,2.93858968 5.1599592,3.05999368 C5.1599592,3.13968088 5.1285528,3.21608968 5.0723028,3.27233368 C5.0160528,3.32857768 4.9396428,3.35999008 4.8599628,3.35999008 L4.859952,3.36000088 Z" id="Fill-4"></path>
        </g>
    </g>
</svg>