<?xml version="1.0" encoding="UTF-8"?>
<svg width="16px" height="16px" viewBox="0 0 16 16" version="1.1" xmlns="http://www.w3.org/2000/svg" xmlns:xlink="http://www.w3.org/1999/xlink">
    <!-- Generator: Sketch 50.2 (55047) - http://www.bohemiancoding.com/sketch -->
    <title>user admin</title>
    <desc>Created with Sketch.</desc>
    <defs></defs>
    <g id="user-admin" stroke="none" stroke-width="1" fill="none" fill-rule="evenodd">
        <g id="Group" fill="#C7C7C7">
            <path d="M6.73659427,12.983622 C6.58230423,12.983622 6.42522933,12.9764068 6.27370995,12.9641962 C6.24651347,12.961976 6.21987255,12.9592009 6.19267749,12.9592009 C6.03838745,12.9447707 5.88408321,12.9275643 5.72979317,12.9025886 C5.7225781,12.9025886 5.71536303,12.9003685 5.71036732,12.8975934 C5.38679729,12.843756 5.06876857,12.7627229 4.75740363,12.6600409 C4.74741364,12.6578215 4.73797778,12.6528258 4.72798779,12.6500509 C4.57369775,12.5984343 4.42162424,12.5396026 4.27232138,12.4763237 C4.27232138,12.4763237 4.27010202,12.4763237 4.27010202,12.4741043 C4.12801708,12.4130518 3.98814866,12.3464495 3.85383577,12.273182 C3.83663071,12.263192 3.81720485,12.2559769 3.79999837,12.2459855 C3.67511849,12.1799387 3.55245798,12.1061199 3.43258092,12.0306416 C3.39595,12.0084408 3.36153845,11.9867956 3.32490753,11.9618185 C3.21445923,11.8885566 3.10456221,11.8125156 2.99689024,11.7342552 C2.98467946,11.7270402 2.97468947,11.7170502 2.96525361,11.7098337 C2.97246868,11.704838 2.97968376,11.6998437 2.98967517,11.6976229 L4.92728749,10.6419744 C5.26030617,10.4604893 5.46843219,10.1102642 5.46843219,9.73285814 L5.46843219,8.85093692 L5.41181987,8.78211382 C5.40682416,8.77489874 4.87789308,8.13052649 4.67697077,7.25853701 L4.65477,7.16029806 L4.56374754,7.10424129 C4.44608416,7.02820312 4.37504453,6.90110245 4.37504453,6.76346477 L4.37504453,5.89651931 C4.37504453,5.78385021 4.42388623,5.67617398 4.51213377,5.5979136 L4.59316623,5.52465034 L4.59316623,4.16040759 L4.59094544,4.12877095 C4.59094544,4.12377667 4.5176836,3.53323614 4.93395269,3.06091738 C5.28639439,2.65574797 5.89358017,2.44983847 6.73672641,2.44983847 C7.57703095,2.44983847 8.18201441,2.65297731 8.53722676,3.05480773 C8.95127648,3.52269343 8.88522119,4.1226613 8.88245054,4.12766269 L8.88023117,5.52408768 L8.96126363,5.59734952 C9.04951117,5.67560706 9.09835286,5.78328187 9.09835286,5.89595523 L9.09835286,6.7629007 C9.09835286,6.93662795 8.9784687,7.09591938 8.8091816,7.14975536 C8.67930744,7.1891612 8.60825928,7.32625327 8.64767365,7.45611891 C8.68707948,7.58599307 8.82417156,7.65704122 8.95403719,7.61762686 C9.33367394,7.49996348 9.58841661,7.15695907 9.58841661,6.7629007 L9.58841661,5.89595523 C9.58841661,5.68282782 9.51015907,5.47691833 9.37028781,5.31541037 L9.37028781,4.17151294 C9.38249859,4.04385815 9.4291195,3.32622122 8.90962144,2.73617088 C8.45617014,2.22166711 7.72632243,1.95970511 6.73671504,1.95970511 C5.74710764,1.95970511 5.0172031,2.22168132 4.56381006,2.73617088 C4.0443191,3.32893504 4.09093717,4.04657766 4.10314227,4.17151294 L4.10314227,5.31541037 C3.9632767,5.47691833 3.88501347,5.68282782 3.88501347,5.89595523 L3.88501347,6.7629007 C3.88501347,7.03263475 4.00489764,7.28462239 4.21303076,7.45390238 C4.41172234,8.23036816 4.82077067,8.82091579 4.97007353,9.01911008 L4.97007353,9.72731825 C4.97007353,9.92824056 4.85962522,10.1119422 4.68590365,10.2074091 L2.74829133,11.2630575 C2.68723885,11.2974691 2.62563224,11.3363194 2.5645755,11.3807209 C1.29302967,10.2373776 0.489425669,8.57894798 0.489425669,6.73681674 C0.489425669,3.29239364 3.29233456,0.490052377 6.73675909,0.490052377 C10.1806138,0.490052377 12.9835235,3.29239364 12.9835235,6.73681674 C12.9835235,6.87168661 13.0939718,6.98158647 13.2282932,6.98158647 C13.363163,6.98158647 13.4730629,6.87113816 13.4730629,6.73681674 C13.473617,3.02314268 10.45049,0 6.73681592,0 C3.02257352,0 0,3.02314268 0,6.73681674 C0,8.69886767 0.842521094,10.4676831 2.1878245,11.6998437 L2.18005387,11.7048394 L2.39818267,11.8885552 C2.41261282,11.900766 2.42759851,11.910756 2.44202866,11.9229668 C2.55691712,12.0184308 2.67958047,12.1116698 2.8022424,12.1999187 C2.84164824,12.2293346 2.88049994,12.2565311 2.92212657,12.2853913 C3.05200073,12.3758597 3.18687343,12.4618893 3.32395698,12.5423662 C3.35337283,12.5595712 3.38500946,12.5767777 3.41442531,12.5939828 C3.56372816,12.6794554 3.7180182,12.7604921 3.8750931,12.8343051 C3.88730246,12.8393002 3.89729387,12.8442955 3.90950465,12.8487353 C4.42123777,13.0862871 4.96792378,13.2605542 5.53850848,13.3654556 C5.55293863,13.3676756 5.56792433,13.3704507 5.58235447,13.3726709 C5.75885238,13.4043075 5.93978335,13.4265083 6.12128265,13.4437134 C6.14348342,13.4459333 6.16512864,13.4459333 6.18732941,13.4487085 C6.36936864,13.4636942 6.55031381,13.4736842 6.73680029,13.4736842 C6.87167016,13.4736842 6.98157001,13.3632359 6.98157001,13.2289145 C6.98157001,13.0940446 6.87112171,12.9835906 6.73680029,12.9835906 L6.73659427,12.983622 Z" id="Fill-3"></path>
        </g>
        <path d="M13.3355509,14.9995599 C13.3968164,15.0017302 13.4560229,14.9752515 13.4975592,14.9275026 C13.5390881,14.8797536 13.5584141,14.8155116 13.5510121,14.751704 L13.2648267,12.1685102 L14.9444872,10.25684 C14.9958844,10.1982398 15.0131536,10.1149011 14.9897171,10.0389365 C14.9662795,9.96297313 14.9054256,9.90610975 14.8310035,9.8900523 L12.4000905,9.37956981 L11.1842129,7.11285777 C11.146384,7.04297063 11.0760776,7 11.000005,7 C10.9239324,7 10.8536281,7.04297396 10.815797,7.11285777 L9.59949842,9.37956981 L7.16858537,9.8900523 L7.16899694,9.8900523 C7.09457378,9.90611308 7.03371464,9.96297757 7.01028339,10.0389365 C6.98684583,10.1149 7.00411611,10.1982442 7.05551328,10.2572734 L8.73517378,12.1689436 L8.44898835,14.7521374 L8.44898835,14.7517029 C8.43994216,14.831139 8.47242591,14.9097105 8.53410188,14.9570271 C8.59577891,15.0039082 8.67678408,15.0125893 8.74626731,14.9795987 L10.9999197,13.8948373 L13.2535721,14.9795987 C13.2790654,14.9917535 13.307025,14.9986987 13.3353962,15 L13.3355509,14.9995599 Z M13.0880176,14.4105126 L11.0888879,13.4490325 L11.0884774,13.4490325 C11.0325571,13.4221193 10.9675949,13.4221193 10.9116694,13.4490325 L8.9125397,14.4105126 L9.16706242,12.1203534 L9.16706242,12.1207868 C9.17364128,12.0565425 9.15349314,11.9923049 9.11155373,11.9454216 L7.62020636,10.2485546 L9.77849168,9.79276748 C9.83893504,9.78017933 9.89074273,9.7402435 9.92117388,9.684248 L11.000106,7.67234382 L12.0790382,9.684248 C12.1094651,9.74024461 12.1612738,9.78017933 12.2217204,9.79276748 L14.3800057,10.2481212 L12.8886583,11.9449882 L12.8886583,11.9454227 C12.8467178,11.9927372 12.8265708,12.056547 12.8331496,12.1207879 L13.0876723,14.4109471 L13.0880176,14.4105126 Z" id="Fill-1" fill="#9B9B9B"></path>
    </g>
</svg>