<?xml version="1.0" encoding="UTF-8"?>
<svg width="16px" height="16px" viewBox="0 0 16 16" version="1.1" xmlns="http://www.w3.org/2000/svg" xmlns:xlink="http://www.w3.org/1999/xlink">
    <!-- Generator: Sketch 52.4 (67378) - http://www.bohemiancoding.com/sketch -->
    <title>x - Small Copy 3</title>
    <desc>Created with Sketch.</desc>
    <defs>
        <rect id="path-1" x="0" y="0" width="16" height="16"></rect>
    </defs>
    <g id="x---Small-Copy-3" stroke="none" stroke-width="1" fill="none" fill-rule="evenodd">
        <mask id="mask-2" fill="white">
            <use xlink:href="#path-1"></use>
        </mask>
        <g id="Mask" fill-rule="nonzero"></g>
        <g id="x" mask="url(#mask-2)" fill="#9B9B9B">
            <g transform="translate(1.000000, 1.000000)" id="Path">
                <path d="M7.97779528,7.03417323 L13.8291339,1.18283465 C13.9119332,1.10012738 13.9584571,0.987896991 13.9584571,0.870866142 C13.9584571,0.753835292 13.9119332,0.641604901 13.8291339,0.558897638 L13.5083465,0.239212598 C13.3362336,0.0675160255 13.0576247,0.0675160255 12.8855118,0.239212598 L7.03417323,6.09055118 L1.18283465,0.239212598 C1.10012738,0.156413272 0.987896991,0.109889348 0.870866142,0.109889348 C0.753835292,0.109889348 0.641604901,0.156413272 0.558897638,0.239212598 L0.239212598,0.558897638 C0.156413272,0.641604901 0.109889348,0.753835292 0.109889348,0.870866142 C0.109889348,0.987896991 0.156413272,1.10012738 0.239212598,1.18283465 L6.09055118,7.03417323 L0.239212598,12.8855118 C0.0675160255,13.0576247 0.0675160255,13.3362336 0.239212598,13.5083465 L0.558897638,13.8291339 C0.641604901,13.9119332 0.753835292,13.9584571 0.870866142,13.9584571 C0.987896991,13.9584571 1.10012738,13.9119332 1.18283465,13.8291339 L7.03417323,7.97779528 L12.8855118,13.8291339 C13.0576247,14.0008304 13.3362336,14.0008304 13.5083465,13.8291339 L13.8291339,13.5083465 C14.0008304,13.3362336 14.0008304,13.0576247 13.8291339,12.8855118 L7.97779528,7.03417323 Z"></path>
            </g>
        </g>
    </g>
</svg>